<?xml version="1.0" encoding="utf-8"?>
<svg id="master-artboard" viewBox="0 0 1096 780" version="1.1" xmlns="http://www.w3.org/2000/svg" x="0px" y="0px" style="enable-background:new 0 0 1096 780;" width="1096px" height="780px" xmlns:xlink="http://www.w3.org/1999/xlink"><rect id="ee-background" x="0" y="0" width="1096" height="780" style="fill: white; fill-opacity: 0; pointer-events: none;"/>

<g transform="matrix(1, 0, 0, 1, 0, 0)">
		<path d="M 0 0 H 1096 V 780 H 0 V 0 Z" class="st0" style="fill: rgb(255, 255, 255);"/>
		<g class="st1" style="opacity: 0.49;">
			<defs>
				<path d="M 0 0 H 1096 V 780 H 0 V 0 Z" id="SVGID_1_" class="st1" style="opacity: 0.49;"/>
			</defs>
			<clipPath id="SVGID_2_">
				<use style="overflow:visible;" xlink:href="#SVGID_1_"/>
			</clipPath>
			<g class="st2" style="clip-path: url('#SVGID_2_');">
				
					<path d="M -319.899994 -384.600006 H -283.899994 V 1083.099945 H -319.899994 V -384.600006 Z" transform="matrix(0.7071 0.7071 -0.7071 0.7071 158.5002 315.7191)" class="st3" style="fill: rgb(255, 184, 139);"/>
				
					<path d="M -208.899994 -384.600006 H -172.899994 V 1083.099945 H -208.899994 V -384.600006 Z" transform="matrix(0.7071 0.7071 -0.7071 0.7071 191.0113 237.2302)" class="st3" style="fill: rgb(255, 184, 139);"/>
				
					<path d="M -97.900002 -384.600006 H -61.900002 V 1083.099945 H -97.900002 V -384.600006 Z" transform="matrix(0.7071 0.7071 -0.7071 0.7071 223.5225 158.7413)" class="st3" style="fill: rgb(255, 184, 139);"/>
				
					<path d="M 13.1 -384.600006 H 49.1 V 1083.099945 H 13.1 V -384.600006 Z" transform="matrix(0.7071 0.7071 -0.7071 0.7071 256.0336 80.2525)" class="st3" style="fill: rgb(255, 184, 139);"/>
				
					<path d="M 124.099998 -384.600006 H 160.099998 V 1083.099945 H 124.099998 V -384.600006 Z" transform="matrix(0.7071 0.7071 -0.7071 0.7071 288.5448 1.7636)" class="st3" style="fill: rgb(255, 184, 139);"/>
				
					<path d="M 235.100006 -384.600006 H 271.100006 V 1083.099945 H 235.100006 V -384.600006 Z" transform="matrix(0.7071 0.7071 -0.7071 0.7071 321.0559 -76.7252)" class="st3" style="fill: rgb(255, 184, 139);"/>
				
					<path d="M 346.100006 -384.600006 H 382.100006 V 1083.099945 H 346.100006 V -384.600006 Z" transform="matrix(0.7071 0.7071 -0.7071 0.7071 353.567 -155.2141)" class="st3" style="fill: rgb(255, 184, 139);"/>
				
					<path d="M 457.100006 -384.600006 H 493.100006 V 1083.099945 H 457.100006 V -384.600006 Z" transform="matrix(0.7071 0.7071 -0.7071 0.7071 386.0782 -233.703)" class="st3" style="fill: rgb(255, 184, 139);"/>
				
					<path d="M 568.099976 -384.600006 H 604.099976 V 1083.099945 H 568.099976 V -384.600006 Z" transform="matrix(0.7071 0.7071 -0.7071 0.7071 418.5894 -312.1918)" class="st3" style="fill: rgb(255, 184, 139);"/>
				
					<path d="M 679.099976 -384.600006 H 715.099976 V 1083.099945 H 679.099976 V -384.600006 Z" transform="matrix(0.7071 0.7071 -0.7071 0.7071 451.1005 -390.6807)" class="st3" style="fill: rgb(255, 184, 139);"/>
				
					<path d="M 790.099976 -384.600006 H 826.099976 V 1083.099945 H 790.099976 V -384.600006 Z" transform="matrix(0.7071 0.7071 -0.7071 0.7071 483.6117 -469.1695)" class="st3" style="fill: rgb(255, 184, 139);"/>
				
					<path d="M 901.099976 -384.600006 H 937.099976 V 1083.099945 H 901.099976 V -384.600006 Z" transform="matrix(0.7071 0.7071 -0.7071 0.7071 516.1228 -547.6584)" class="st3" style="fill: rgb(255, 184, 139);"/>
				
					<path d="M 1012.099976 -384.600006 H 1048.099976 V 1083.099945 H 1012.099976 V -384.600006 Z" transform="matrix(0.7071 0.7071 -0.7071 0.7071 548.634 -626.1472)" class="st3" style="fill: rgb(255, 184, 139);"/>
				
					<path d="M 1123.099976 -384.600006 H 1159.099976 V 1083.099945 H 1123.099976 V -384.600006 Z" transform="matrix(0.7071 0.7071 -0.7071 0.7071 581.1451 -704.6361)" class="st3" style="fill: rgb(255, 184, 139);"/>
				
					<path d="M 1234.099976 -384.600006 H 1270.099976 V 1083.099945 H 1234.099976 V -384.600006 Z" transform="matrix(0.7071 0.7071 -0.7071 0.7071 613.6562 -783.1249)" class="st3" style="fill: rgb(255, 184, 139);"/>
				
					<path d="M 1345.099976 -384.600006 H 1381.099976 V 1083.099945 H 1345.099976 V -384.600006 Z" transform="matrix(0.7071 0.7071 -0.7071 0.7071 646.1674 -861.6138)" class="st3" style="fill: rgb(255, 184, 139);"/>
				
					<path d="M 1456.099976 -384.600006 H 1492.099976 V 1083.099945 H 1456.099976 V -384.600006 Z" transform="matrix(0.7071 0.7071 -0.7071 0.7071 678.6785 -940.1027)" class="st3" style="fill: rgb(255, 184, 139);"/>
			</g>
		</g>
		<g>
			<defs>
				<path d="M 0 0 H 1096 V 780 H 0 V 0 Z" id="SVGID_3_"/>
			</defs>
			<clipPath id="SVGID_4_">
				<use style="overflow:visible;" xlink:href="#SVGID_3_"/>
			</clipPath>
			<path d="M 156.299997 238.899994 A 24.1 24.1 0 0 1 132.199997 262.999994 A 24.1 24.1 0 0 1 108.099997 238.899994 A 24.1 24.1 0 0 1 132.199997 214.799994 A 24.1 24.1 0 0 1 156.299997 238.899994 Z" class="st4" style="clip-path: url('#SVGID_4_'); fill: rgb(255, 127, 131);"/>
			<path d="M 258.800003 240.800003 A 14.5 14.5 0 0 1 244.300003 255.300003 A 14.5 14.5 0 0 1 229.800003 240.800003 A 14.5 14.5 0 0 1 244.300003 226.300003 A 14.5 14.5 0 0 1 258.800003 240.800003 Z" class="st5" style="clip-path: url('#SVGID_4_'); fill: rgb(0, 159, 227);"/>
			<path d="M 152.9 57.799999 A 13.4 13.4 0 0 1 139.5 71.199999 A 13.4 13.4 0 0 1 126.1 57.799999 A 13.4 13.4 0 0 1 139.5 44.4 A 13.4 13.4 0 0 1 152.9 57.799999 Z" class="st6" style="clip-path: url('#SVGID_4_'); fill: rgb(235, 90, 106);"/>
			<path class="st7" d="M370.2,246.1c0-7.1-5.8-12.9-12.9-12.9c-7.1,0-12.9,5.8-12.9,12.9c0,7.1,5.8,12.9,12.9,12.9&#10;&#9;&#9;&#9;&#9;C364.4,259,370.2,253.2,370.2,246.1z" style="clip-path: url('#SVGID_4_'); fill: rgb(92, 189, 109);"/>
			<path d="M 250.300006 13.2 A 3.2 3.2 0 0 1 247.100006 16.4 A 3.2 3.2 0 0 1 243.900006 13.2 A 3.2 3.2 0 0 1 247.100006 10 A 3.2 3.2 0 0 1 250.300006 13.2 Z" class="st4" style="clip-path: url('#SVGID_4_'); fill: rgb(255, 127, 131);"/>
			<path d="M 391.000006 138.199997 A 12.9 12.9 0 0 1 378.100006 151.099997 A 12.9 12.9 0 0 1 365.200006 138.199997 A 12.9 12.9 0 0 1 378.100006 125.299997 A 12.9 12.9 0 0 1 391.000006 138.199997 Z" class="st8" style="clip-path: url('#SVGID_4_'); fill: rgb(115, 207, 215);"/>
			<path d="M 442.399994 174.699997 A 17.5 17.5 0 0 1 424.899994 192.199997 A 17.5 17.5 0 0 1 407.399994 174.699997 A 17.5 17.5 0 0 1 424.899994 157.199997 A 17.5 17.5 0 0 1 442.399994 174.699997 Z" class="st7" style="clip-path: url('#SVGID_4_'); fill: rgb(92, 189, 109);"/>
			<path d="M 211.900003 47 A 10.6 10.6 0 0 1 201.300003 57.6 A 10.6 10.6 0 0 1 190.700003 47 A 10.6 10.6 0 0 1 201.300003 36.4 A 10.6 10.6 0 0 1 211.900003 47 Z" class="st9" style="clip-path: url('#SVGID_4_'); fill: rgb(145, 109, 255);"/>
			<path d="M 230.199997 121.400002 A 17.5 17.5 0 0 1 212.699997 138.900002 A 17.5 17.5 0 0 1 195.199997 121.400002 A 17.5 17.5 0 0 1 212.699997 103.900002 A 17.5 17.5 0 0 1 230.199997 121.400002 Z" class="st7" style="clip-path: url('#SVGID_4_'); fill: rgb(92, 189, 109);"/>
			<path d="M 306.800013 408.899994 A 10.6 10.6 0 0 1 296.200012 419.499994 A 10.6 10.6 0 0 1 285.600012 408.899994 A 10.6 10.6 0 0 1 296.200012 398.299994 A 10.6 10.6 0 0 1 306.800013 408.899994 Z" class="st5" style="clip-path: url('#SVGID_4_'); fill: rgb(0, 159, 227);"/>
			<path d="M 295.4 170.899994 A 13.4 13.4 0 0 1 282 184.299994 A 13.4 13.4 0 0 1 268.6 170.899994 A 13.4 13.4 0 0 1 282 157.499994 A 13.4 13.4 0 0 1 295.4 170.899994 Z" class="st10" style="clip-path: url('#SVGID_4_'); fill: rgb(254, 180, 29);"/>
			<path d="M 68.1 426.200012 A 12.9 12.9 0 0 1 55.200001 439.100012 A 12.9 12.9 0 0 1 42.300001 426.200012 A 12.9 12.9 0 0 1 55.200001 413.300013 A 12.9 12.9 0 0 1 68.1 426.200012 Z" class="st7" style="clip-path: url('#SVGID_4_'); fill: rgb(92, 189, 109);"/>
			<path d="M 414.7 104.300003 A 5.7 5.7 0 0 1 409 110.000003 A 5.7 5.7 0 0 1 403.3 104.300003 A 5.7 5.7 0 0 1 409 98.600003 A 5.7 5.7 0 0 1 414.7 104.300003 Z" class="st8" style="clip-path: url('#SVGID_4_'); fill: rgb(115, 207, 215);"/>
			<path d="M 317.299988 57.799999 A 17.5 17.5 0 0 1 299.799988 75.299999 A 17.5 17.5 0 0 1 282.299988 57.799999 A 17.5 17.5 0 0 1 299.799988 40.299999 A 17.5 17.5 0 0 1 317.299988 57.799999 Z" class="st11" style="clip-path: url('#SVGID_4_'); fill: rgb(226, 2, 63);"/>
			<path d="M 91.499997 186.800003 A 6.3 6.3 0 0 1 85.199997 193.100003 A 6.3 6.3 0 0 1 78.899997 186.800003 A 6.3 6.3 0 0 1 85.199997 180.500003 A 6.3 6.3 0 0 1 91.499997 186.800003 Z" class="st5" style="clip-path: url('#SVGID_4_'); fill: rgb(0, 159, 227);"/>
			<path d="M 178.500006 183.300003 A 6.4 6.4 0 0 1 172.100006 189.700003 A 6.4 6.4 0 0 1 165.700006 183.300003 A 6.4 6.4 0 0 1 172.100006 176.900003 A 6.4 6.4 0 0 1 178.500006 183.300003 Z" class="st8" style="clip-path: url('#SVGID_4_'); fill: rgb(115, 207, 215);"/>
			<path class="st8" d="M18.8,202.2c3.7,6.1,11.6,8.1,17.7,4.5c6.1-3.7,8.1-11.6,4.5-17.7c-3.7-6.1-11.6-8.1-17.7-4.5&#10;&#9;&#9;&#9;&#9;C17.2,188.1,15.2,196,18.8,202.2z" style="clip-path: url('#SVGID_4_'); fill: rgb(115, 207, 215);"/>
			<path d="M 363.199994 57.900002 A 5.3 5.3 0 0 1 357.899994 63.200002 A 5.3 5.3 0 0 1 352.599994 57.900002 A 5.3 5.3 0 0 1 357.899994 52.600001 A 5.3 5.3 0 0 1 363.199994 57.900002 Z" class="st7" style="clip-path: url('#SVGID_4_'); fill: rgb(92, 189, 109);"/>
			<path d="M 712.900012 48.900002 A 3.2 3.2 0 0 1 709.700012 52.100002 A 3.2 3.2 0 0 1 706.500012 48.900002 A 3.2 3.2 0 0 1 709.700012 45.700001 A 3.2 3.2 0 0 1 712.900012 48.900002 Z" class="st9" style="clip-path: url('#SVGID_4_'); fill: rgb(145, 109, 255);"/>
			<path class="st10" d="M115.9,154.4c8.3-5,11-15.7,6.1-24c-5-8.3-15.7-11-24-6.1c-8.3,5-11,15.7-6.1,24&#10;&#9;&#9;&#9;&#9;C96.8,156.6,107.6,159.3,115.9,154.4z" style="clip-path: url('#SVGID_4_'); fill: rgb(254, 180, 29);"/>
			<path class="st5" d="M59.6,96.8c-3.9,2.3-5.2,7.4-2.9,11.3c2.3,3.9,7.4,5.2,11.3,2.9c3.9-2.3,5.2-7.4,2.9-11.3&#10;&#9;&#9;&#9;&#9;C68.5,95.7,63.5,94.5,59.6,96.8z" style="clip-path: url('#SVGID_4_'); fill: rgb(0, 159, 227);"/>
			<path class="st5" d="M201.9,261.1c-1.2-2.1-3.9-2.8-6-1.5c-2.1,1.2-2.8,3.9-1.5,6c1.2,2.1,3.9,2.8,6,1.5&#10;&#9;&#9;&#9;&#9;C202.5,265.9,203.2,263.2,201.9,261.1z" style="clip-path: url('#SVGID_4_'); fill: rgb(0, 159, 227);"/>
			<path d="M 229.799994 190.300003 A 3.4 3.4 0 0 1 226.399994 193.700003 A 3.4 3.4 0 0 1 222.999994 190.300003 A 3.4 3.4 0 0 1 226.399994 186.900003 A 3.4 3.4 0 0 1 229.799994 190.300003 Z" class="st10" style="clip-path: url('#SVGID_4_'); fill: rgb(254, 180, 29);"/>
			<path d="M 198.9 299.700012 A 13.4 13.4 0 0 1 185.5 313.100012 A 13.4 13.4 0 0 1 172.1 299.700012 A 13.4 13.4 0 0 1 185.5 286.300013 A 13.4 13.4 0 0 1 198.9 299.700012 Z" class="st11" style="clip-path: url('#SVGID_4_'); fill: rgb(226, 2, 63);"/>
			<path d="M 81.999999 312 A 6.4 6.4 0 0 1 75.599998 318.4 A 6.4 6.4 0 0 1 69.199998 312 A 6.4 6.4 0 0 1 75.599998 305.6 A 6.4 6.4 0 0 1 81.999999 312 Z" class="st9" style="clip-path: url('#SVGID_4_'); fill: rgb(145, 109, 255);"/>
			<path d="M 133.200003 319.100006 A 3.4 3.4 0 0 1 129.800003 322.500006 A 3.4 3.4 0 0 1 126.400003 319.100006 A 3.4 3.4 0 0 1 129.800003 315.700006 A 3.4 3.4 0 0 1 133.200003 319.100006 Z" class="st10" style="clip-path: url('#SVGID_4_'); fill: rgb(254, 180, 29);"/>
			<path d="M 124.499997 345.299988 A 5.8 5.8 0 0 1 118.699997 351.099988 A 5.8 5.8 0 0 1 112.899997 345.299988 A 5.8 5.8 0 0 1 118.699997 339.499988 A 5.8 5.8 0 0 1 124.499997 345.299988 Z" class="st5" style="clip-path: url('#SVGID_4_'); fill: rgb(0, 159, 227);"/>
			<path d="M 74.699999 246 A 13.4 13.4 0 0 1 61.299999 259.4 A 13.4 13.4 0 0 1 47.9 246 A 13.4 13.4 0 0 1 61.299999 232.6 A 13.4 13.4 0 0 1 74.699999 246 Z" class="st10" style="clip-path: url('#SVGID_4_'); fill: rgb(254, 180, 29);"/>
			<path class="st8" d="M-33.3,293.7c5.3-3.2,7-10,3.9-15.3c-3.2-5.3-10-7-15.3-3.9c-5.3,3.2-7,10-3.9,15.3&#10;&#9;&#9;&#9;&#9;C-45.4,295.1-38.6,296.9-33.3,293.7z" style="clip-path: url('#SVGID_4_'); fill: rgb(115, 207, 215);"/>
			<path class="st5" d="M-28,342.3c2.1-1.2,2.8-3.9,1.5-6c-1.2-2.1-3.9-2.8-6-1.5c-2.1,1.2-2.8,3.9-1.5,6&#10;&#9;&#9;&#9;&#9;C-32.7,342.8-30,343.5-28,342.3z" style="clip-path: url('#SVGID_4_'); fill: rgb(0, 159, 227);"/>
			<path d="M 1.4 265.399994 A 3.4 3.4 0 0 1 -2 268.799994 A 3.4 3.4 0 0 1 -5.4 265.399994 A 3.4 3.4 0 0 1 -2 261.999994 A 3.4 3.4 0 0 1 1.4 265.399994 Z" class="st10" style="clip-path: url('#SVGID_4_'); fill: rgb(254, 180, 29);"/>
			<path d="M 44.1 357.899994 A 13.4 13.4 0 0 1 30.700001 371.299994 A 13.4 13.4 0 0 1 17.300001 357.899994 A 13.4 13.4 0 0 1 30.700001 344.499994 A 13.4 13.4 0 0 1 44.1 357.899994 Z" class="st11" style="clip-path: url('#SVGID_4_'); fill: rgb(226, 2, 63);"/>
			<path d="M 12.200001 111.699997 A 24.1 24.1 0 0 1 -11.9 135.799997 A 24.1 24.1 0 0 1 -36 111.699997 A 24.1 24.1 0 0 1 -11.9 87.599997 A 24.1 24.1 0 0 1 12.200001 111.699997 Z" class="st9" style="clip-path: url('#SVGID_4_'); fill: rgb(145, 109, 255);"/>
			<path d="M 54.100001 13.7 A 6.4 6.4 0 0 1 47.700001 20.1 A 6.4 6.4 0 0 1 41.300001 13.7 A 6.4 6.4 0 0 1 47.700001 7.3 A 6.4 6.4 0 0 1 54.100001 13.7 Z" class="st9" style="clip-path: url('#SVGID_4_'); fill: rgb(145, 109, 255);"/>
			<path d="M 142.4 -15 A 3.4 3.4 0 0 1 139 -11.6 A 3.4 3.4 0 0 1 135.6 -15 A 3.4 3.4 0 0 1 139 -18.4 A 3.4 3.4 0 0 1 142.4 -15 Z" class="st10" style="clip-path: url('#SVGID_4_'); fill: rgb(254, 180, 29);"/>
			<path d="M 107.600003 25 A 5.8 5.8 0 0 1 101.800003 30.8 A 5.8 5.8 0 0 1 96.000003 25 A 5.8 5.8 0 0 1 101.800003 19.2 A 5.8 5.8 0 0 1 107.600003 25 Z" class="st5" style="clip-path: url('#SVGID_4_'); fill: rgb(0, 159, 227);"/>
			<path d="M 19.599999 37.599998 A 13.4 13.4 0 0 1 6.2 50.999998 A 13.4 13.4 0 0 1 -7.2 37.599998 A 13.4 13.4 0 0 1 6.2 24.199999 A 13.4 13.4 0 0 1 19.599999 37.599998 Z" class="st11" style="clip-path: url('#SVGID_4_'); fill: rgb(226, 2, 63);"/>
			<path d="M 310.799994 226.100006 A 6.4 6.4 0 0 1 304.399994 232.500006 A 6.4 6.4 0 0 1 297.999994 226.100006 A 6.4 6.4 0 0 1 304.399994 219.700006 A 6.4 6.4 0 0 1 310.799994 226.100006 Z" class="st9" style="clip-path: url('#SVGID_4_'); fill: rgb(145, 109, 255);"/>
			<path d="M 262.100012 131.199997 A 3.4 3.4 0 0 1 258.700012 134.599997 A 3.4 3.4 0 0 1 255.300012 131.199997 A 3.4 3.4 0 0 1 258.700012 127.799997 A 3.4 3.4 0 0 1 262.100012 131.199997 Z" class="st10" style="clip-path: url('#SVGID_4_'); fill: rgb(254, 180, 29);"/>
			<path d="M 331.8 178.800003 A 5.8 5.8 0 0 1 326 184.600003 A 5.8 5.8 0 0 1 320.2 178.800003 A 5.8 5.8 0 0 1 326 173.000003 A 5.8 5.8 0 0 1 331.8 178.800003 Z" class="st5" style="clip-path: url('#SVGID_4_'); fill: rgb(0, 159, 227);"/>
			<path class="st5" d="M251.6,296.2c0-2.4-2-4.4-4.4-4.4c-2.4,0-4.4,2-4.4,4.4c0,2.4,1.9,4.4,4.4,4.4&#10;&#9;&#9;&#9;&#9;C249.7,300.6,251.6,298.7,251.6,296.2z" style="clip-path: url('#SVGID_4_'); fill: rgb(0, 159, 227);"/>
			<path d="M 193.500006 226.600006 A 3.4 3.4 0 0 1 190.100006 230.000006 A 3.4 3.4 0 0 1 186.700006 226.600006 A 3.4 3.4 0 0 1 190.100006 223.200006 A 3.4 3.4 0 0 1 193.500006 226.600006 Z" class="st9" style="clip-path: url('#SVGID_4_'); fill: rgb(145, 109, 255);"/>
			<path d="M 309.4 274.399994 A 13.4 13.4 0 0 1 296 287.799994 A 13.4 13.4 0 0 1 282.6 274.399994 A 13.4 13.4 0 0 1 296 260.999994 A 13.4 13.4 0 0 1 309.4 274.399994 Z" class="st11" style="clip-path: url('#SVGID_4_'); fill: rgb(226, 2, 63);"/>
			<path class="st5" d="M144.2,388.2c6.1-0.4,10.8-5.6,10.5-11.8c-0.4-6.1-5.6-10.8-11.8-10.5c-6.1,0.4-10.8,5.6-10.5,11.8&#10;&#9;&#9;&#9;&#9;C132.8,383.9,138.1,388.6,144.2,388.2z" style="clip-path: url('#SVGID_4_'); fill: rgb(0, 159, 227);"/>
			<path d="M 304.500006 328.899994 A 4.4 4.4 0 0 1 300.100006 333.299994 A 4.4 4.4 0 0 1 295.700006 328.899994 A 4.4 4.4 0 0 1 300.100006 324.499994 A 4.4 4.4 0 0 1 304.500006 328.899994 Z" class="st7" style="clip-path: url('#SVGID_4_'); fill: rgb(92, 189, 109);"/>
			<path d="M 199.999997 419.799988 A 10.3 10.3 0 0 1 189.699997 430.099988 A 10.3 10.3 0 0 1 179.399997 419.799988 A 10.3 10.3 0 0 1 189.699997 409.499988 A 10.3 10.3 0 0 1 199.999997 419.799988 Z" class="st10" style="clip-path: url('#SVGID_4_'); fill: rgb(254, 180, 29);"/>
			<path d="M 440.000012 706.799988 A 10.3 10.3 0 0 1 429.700012 717.099988 A 10.3 10.3 0 0 1 419.400012 706.799988 A 10.3 10.3 0 0 1 429.700012 696.499988 A 10.3 10.3 0 0 1 440.000012 706.799988 Z" class="st10" style="clip-path: url('#SVGID_4_'); fill: rgb(254, 180, 29);"/>
			<path d="M 247.800003 360.5 A 5 5 0 0 1 242.800003 365.5 A 5 5 0 0 1 237.800003 360.5 A 5 5 0 0 1 242.800003 355.5 A 5 5 0 0 1 247.800003 360.5 Z" class="st8" style="clip-path: url('#SVGID_4_'); fill: rgb(115, 207, 215);"/>
			<path class="st10" d="M82.5,370.5c-1.5,1-2,3.2-0.9,4.7c1,1.5,3.2,2,4.7,0.9c1.5-1,2-3.2,0.9-4.7C86.1,369.8,84,369.4,82.5,370.5&#10;&#9;&#9;&#9;&#9;z" style="clip-path: url('#SVGID_4_'); fill: rgb(254, 180, 29);"/>
			<path d="M 159.6 440.799988 A 2.6 2.6 0 0 1 157 443.399988 A 2.6 2.6 0 0 1 154.4 440.799988 A 2.6 2.6 0 0 1 157 438.199988 A 2.6 2.6 0 0 1 159.6 440.799988 Z" class="st10" style="clip-path: url('#SVGID_4_'); fill: rgb(254, 180, 29);"/>
			<path d="M 424.900006 63.200001 A 10.3 10.3 0 0 1 414.600006 73.500001 A 10.3 10.3 0 0 1 404.300006 63.200001 A 10.3 10.3 0 0 1 414.600006 52.900001 A 10.3 10.3 0 0 1 424.900006 63.200001 Z" class="st11" style="clip-path: url('#SVGID_4_'); fill: rgb(226, 2, 63);"/>
			<path d="M 202.399994 345.899994 A 5 5 0 0 1 197.399994 350.899994 A 5 5 0 0 1 192.399994 345.899994 A 5 5 0 0 1 197.399994 340.899994 A 5 5 0 0 1 202.399994 345.899994 Z" class="st9" style="clip-path: url('#SVGID_4_'); fill: rgb(145, 109, 255);"/>
			<path d="M 243.299997 407.899994 A 2.6 2.6 0 0 1 240.699997 410.499994 A 2.6 2.6 0 0 1 238.099997 407.899994 A 2.6 2.6 0 0 1 240.699997 405.299994 A 2.6 2.6 0 0 1 243.299997 407.899994 Z" class="st10" style="clip-path: url('#SVGID_4_'); fill: rgb(254, 180, 29);"/>
			<path class="st5" d="M178.6,462.6c-1.1,2.2-0.3,4.9,1.9,6c2.2,1.1,4.9,0.3,6-1.9c1.1-2.2,0.3-4.9-1.9-6&#10;&#9;&#9;&#9;&#9;C182.4,459.6,179.8,460.4,178.6,462.6z" style="clip-path: url('#SVGID_4_'); fill: rgb(0, 159, 227);"/>
			<path class="st5" d="M88.7,406c-1.9,0.1-3.3,1.7-3.2,3.6c0.1,1.9,1.7,3.3,3.6,3.2c1.9-0.1,3.3-1.7,3.2-3.6&#10;&#9;&#9;&#9;&#9;C92.2,407.3,90.6,405.9,88.7,406z" style="clip-path: url('#SVGID_4_'); fill: rgb(0, 159, 227);"/>
			<path d="M 122.500001 273.200012 A 2.6 2.6 0 0 1 119.900002 275.800012 A 2.6 2.6 0 0 1 117.300002 273.200012 A 2.6 2.6 0 0 1 119.900002 270.600012 A 2.6 2.6 0 0 1 122.500001 273.200012 Z" class="st9" style="clip-path: url('#SVGID_4_'); fill: rgb(145, 109, 255);"/>
			<path d="M 128.499997 441.700012 A 10.3 10.3 0 0 1 118.199997 452.000012 A 10.3 10.3 0 0 1 107.899997 441.700012 A 10.3 10.3 0 0 1 118.199997 431.400012 A 10.3 10.3 0 0 1 128.499997 441.700012 Z" class="st11" style="clip-path: url('#SVGID_4_'); fill: rgb(226, 2, 63);"/>
			<path d="M 537.000025 514.099976 A 16.6 16.6 0 0 1 520.400024 530.699976 A 16.6 16.6 0 0 1 503.800024 514.099976 A 16.6 16.6 0 0 1 520.400024 497.499975 A 16.6 16.6 0 0 1 537.000025 514.099976 Z" class="st8" style="clip-path: url('#SVGID_4_'); fill: rgb(115, 207, 215);"/>
			<path d="M 438.299988 586.200012 A 14.5 14.5 0 0 1 423.799988 600.700012 A 14.5 14.5 0 0 1 409.299988 586.200012 A 14.5 14.5 0 0 1 423.799988 571.700012 A 14.5 14.5 0 0 1 438.299988 586.200012 Z" class="st5" style="clip-path: url('#SVGID_4_'); fill: rgb(0, 159, 227);"/>
			<path d="M 623.4 663.700012 A 13.4 13.4 0 0 1 610 677.100012 A 13.4 13.4 0 0 1 596.6 663.700012 A 13.4 13.4 0 0 1 610 650.300013 A 13.4 13.4 0 0 1 623.4 663.700012 Z" class="st6" style="clip-path: url('#SVGID_4_'); fill: rgb(235, 90, 106);"/>
			<path d="M 342.4 648.5 A 12.9 12.9 0 0 1 329.5 661.4 A 12.9 12.9 0 0 1 316.6 648.5 A 12.9 12.9 0 0 1 329.5 635.6 A 12.9 12.9 0 0 1 342.4 648.5 Z" class="st7" style="clip-path: url('#SVGID_4_'); fill: rgb(92, 189, 109);"/>
			<path d="M 552.499988 763.099976 A 3.2 3.2 0 0 1 549.299988 766.299976 A 3.2 3.2 0 0 1 546.099988 763.099976 A 3.2 3.2 0 0 1 549.299988 759.899976 A 3.2 3.2 0 0 1 552.499988 763.099976 Z" class="st4" style="clip-path: url('#SVGID_4_'); fill: rgb(255, 127, 131);"/>
			<path d="M 389.100012 747.900024 A 12.9 12.9 0 0 1 376.200012 760.800024 A 12.9 12.9 0 0 1 363.300013 747.900024 A 12.9 12.9 0 0 1 376.200012 735.000025 A 12.9 12.9 0 0 1 389.100012 747.900024 Z" class="st8" style="clip-path: url('#SVGID_4_'); fill: rgb(115, 207, 215);"/>
			<path d="M 334.399994 746 A 17.5 17.5 0 0 1 316.899994 763.5 A 17.5 17.5 0 0 1 299.399994 746 A 17.5 17.5 0 0 1 316.899994 728.5 A 17.5 17.5 0 0 1 334.399994 746 Z" class="st7" style="clip-path: url('#SVGID_4_'); fill: rgb(92, 189, 109);"/>
			<path d="M 577.000025 708.799988 A 10.6 10.6 0 0 1 566.400024 719.399988 A 10.6 10.6 0 0 1 555.800024 708.799988 A 10.6 10.6 0 0 1 566.400024 698.199987 A 10.6 10.6 0 0 1 577.000025 708.799988 Z" class="st9" style="clip-path: url('#SVGID_4_'); fill: rgb(145, 109, 255);"/>
			<path d="M 537.399988 664.099976 A 17.6 17.6 0 0 1 519.799988 681.699976 A 17.6 17.6 0 0 1 502.199987 664.099976 A 17.6 17.6 0 0 1 519.799988 646.499975 A 17.6 17.6 0 0 1 537.399988 664.099976 Z" class="st7" style="clip-path: url('#SVGID_4_'); fill: rgb(92, 189, 109);"/>
			<path d="M 293.499994 481 A 10.6 10.6 0 0 1 282.899994 491.6 A 10.6 10.6 0 0 1 272.299994 481 A 10.6 10.6 0 0 1 282.899994 470.4 A 10.6 10.6 0 0 1 293.499994 481 Z" class="st5" style="clip-path: url('#SVGID_4_'); fill: rgb(0, 159, 227);"/>
			<path d="M 447.9 664.900024 A 13.4 13.4 0 0 1 434.5 678.300024 A 13.4 13.4 0 0 1 421.1 664.900024 A 13.4 13.4 0 0 1 434.5 651.500025 A 13.4 13.4 0 0 1 447.9 664.900024 Z" class="st10" style="clip-path: url('#SVGID_4_'); fill: rgb(254, 180, 29);"/>
			<path class="st7" d="M455.1,328.9c2.1,6.8,9.4,10.6,16.2,8.5c6.8-2.1,10.6-9.4,8.5-16.2c-2.1-6.8-9.4-10.6-16.2-8.5&#10;&#9;&#9;&#9;&#9;C456.8,314.9,453,322.1,455.1,328.9z" style="clip-path: url('#SVGID_4_'); fill: rgb(92, 189, 109);"/>
			<path d="M 243.399997 616.400024 A 5.7 5.7 0 0 1 237.699997 622.100024 A 5.7 5.7 0 0 1 231.999997 616.400024 A 5.7 5.7 0 0 1 237.699997 610.700025 A 5.7 5.7 0 0 1 243.399997 616.400024 Z" class="st8" style="clip-path: url('#SVGID_4_'); fill: rgb(115, 207, 215);"/>
			<path d="M 498 758.200012 A 17.5 17.5 0 0 1 480.5 775.700012 A 17.5 17.5 0 0 1 463 758.200012 A 17.5 17.5 0 0 1 480.5 740.700012 A 17.5 17.5 0 0 1 498 758.200012 Z" class="st11" style="clip-path: url('#SVGID_4_'); fill: rgb(226, 2, 63);"/>
			<path d="M 590.500012 536.200012 A 6.3 6.3 0 0 1 584.200012 542.500012 A 6.3 6.3 0 0 1 577.900012 536.200012 A 6.3 6.3 0 0 1 584.200012 529.900012 A 6.3 6.3 0 0 1 590.500012 536.200012 Z" class="st5" style="clip-path: url('#SVGID_4_'); fill: rgb(0, 159, 227);"/>
			<path d="M 522.499976 590.200012 A 6.4 6.4 0 0 1 516.099976 596.600012 A 6.4 6.4 0 0 1 509.699975 590.200012 A 6.4 6.4 0 0 1 516.099976 583.800012 A 6.4 6.4 0 0 1 522.499976 590.200012 Z" class="st8" style="clip-path: url('#SVGID_4_'); fill: rgb(115, 207, 215);"/>
			<path class="st8" d="M627.9,529.9c6.6,2.8,14.2-0.3,16.9-6.8c2.8-6.6-0.3-14.2-6.8-17c-6.6-2.8-14.2,0.3-17,6.8&#10;&#9;&#9;&#9;&#9;C618.3,519.5,621.3,527.1,627.9,529.9z" style="clip-path: url('#SVGID_4_'); fill: rgb(115, 207, 215);"/>
			<path d="M 770.900012 643.900024 A 3.2 3.2 0 0 1 767.700012 647.100024 A 3.2 3.2 0 0 1 764.500012 643.900024 A 3.2 3.2 0 0 1 767.700012 640.700024 A 3.2 3.2 0 0 1 770.900012 643.900024 Z" class="st9" style="clip-path: url('#SVGID_4_'); fill: rgb(145, 109, 255);"/>
			<path class="st10" d="M587.8,603.4c8.9,3.8,19.2-0.4,22.9-9.2c3.8-8.9-0.4-19.2-9.2-22.9c-8.9-3.8-19.2,0.4-22.9,9.2&#10;&#9;&#9;&#9;&#9;C574.8,589.3,578.9,599.6,587.8,603.4z" style="clip-path: url('#SVGID_4_'); fill: rgb(254, 180, 29);"/>
			<path class="st5" d="M647.2,598.1c4.2,1.8,9-0.2,10.8-4.4c1.8-4.2-0.2-9-4.4-10.8c-4.2-1.8-9,0.2-10.8,4.4&#10;&#9;&#9;&#9;&#9;C641,591.5,643,596.4,647.2,598.1z" style="clip-path: url('#SVGID_4_'); fill: rgb(0, 159, 227);"/>
			<path class="st5" d="M451.9,542.5c1-2.2-0.1-4.8-2.3-5.8c-2.2-1-4.8,0.1-5.8,2.3c-0.9,2.2,0.1,4.8,2.3,5.8&#10;&#9;&#9;&#9;&#9;C448.4,545.8,451,544.7,451.9,542.5z" style="clip-path: url('#SVGID_4_'); fill: rgb(0, 159, 227);"/>
			<path d="M 471.500006 616.5 A 3.4 3.4 0 0 1 468.100006 619.9 A 3.4 3.4 0 0 1 464.700006 616.5 A 3.4 3.4 0 0 1 468.100006 613.1 A 3.4 3.4 0 0 1 471.500006 616.5 Z" class="st10" style="clip-path: url('#SVGID_4_'); fill: rgb(254, 180, 29);"/>
			<path d="M 450.100012 504 A 13.4 13.4 0 0 1 436.700012 517.4 A 13.4 13.4 0 0 1 423.300013 504 A 13.4 13.4 0 0 1 436.700012 490.6 A 13.4 13.4 0 0 1 450.100012 504 Z" class="st11" style="clip-path: url('#SVGID_4_'); fill: rgb(226, 2, 63);"/>
			<path d="M 60.300002 484.5 A 6.4 6.4 0 0 1 53.900002 490.9 A 6.4 6.4 0 0 1 47.500001 484.5 A 6.4 6.4 0 0 1 53.900002 478.1 A 6.4 6.4 0 0 1 60.300002 484.5 Z" class="st9" style="clip-path: url('#SVGID_4_'); fill: rgb(145, 109, 255);"/>
			<path d="M 473.699988 455.600006 A 3.4 3.4 0 0 1 470.299988 459.000006 A 3.4 3.4 0 0 1 466.899988 455.600006 A 3.4 3.4 0 0 1 470.299988 452.200006 A 3.4 3.4 0 0 1 473.699988 455.600006 Z" class="st10" style="clip-path: url('#SVGID_4_'); fill: rgb(254, 180, 29);"/>
			<path d="M 287.3 545.799988 A 5.8 5.8 0 0 1 281.5 551.599988 A 5.8 5.8 0 0 1 275.7 545.799988 A 5.8 5.8 0 0 1 281.5 539.999988 A 5.8 5.8 0 0 1 287.3 545.799988 Z" class="st5" style="clip-path: url('#SVGID_4_'); fill: rgb(0, 159, 227);"/>
			<path d="M 574 460.399994 A 6.5 6.5 0 0 1 567.5 466.899994 A 6.5 6.5 0 0 1 561 460.399994 A 6.5 6.5 0 0 1 567.5 453.899994 A 6.5 6.5 0 0 1 574 460.399994 Z" class="st10" style="clip-path: url('#SVGID_4_'); fill: rgb(254, 180, 29);"/>
			<path d="M 632.199976 388.899994 A 11.1 11.1 0 0 1 621.099976 399.999994 A 11.1 11.1 0 0 1 609.999975 388.899994 A 11.1 11.1 0 0 1 621.099976 377.799994 A 11.1 11.1 0 0 1 632.199976 388.899994 Z" class="st8" style="clip-path: url('#SVGID_4_'); fill: rgb(115, 207, 215);"/>
			<path class="st5" d="M450,125.8c2.2,1,4.8-0.1,5.8-2.3c1-2.2-0.1-4.8-2.3-5.8c-2.2-1-4.8,0.1-5.8,2.3&#10;&#9;&#9;&#9;&#9;C446.7,122.3,447.7,124.9,450,125.8z" style="clip-path: url('#SVGID_4_'); fill: rgb(0, 159, 227);"/>
			<path d="M 974.9 47.299999 A 3.4 3.4 0 0 1 971.5 50.699999 A 3.4 3.4 0 0 1 968.1 47.299999 A 3.4 3.4 0 0 1 971.5 43.899999 A 3.4 3.4 0 0 1 974.9 47.299999 Z" class="st10" style="clip-path: url('#SVGID_4_'); fill: rgb(254, 180, 29);"/>
			<path d="M 540.9 365.799988 A 13.4 13.4 0 0 1 527.5 379.199987 A 13.4 13.4 0 0 1 514.1 365.799988 A 13.4 13.4 0 0 1 527.5 352.399988 A 13.4 13.4 0 0 1 540.9 365.799988 Z" class="st11" style="clip-path: url('#SVGID_4_'); fill: rgb(226, 2, 63);"/>
			<path d="M 792.300013 528.799988 A 24.1 24.1 0 0 1 768.200012 552.899988 A 24.1 24.1 0 0 1 744.100012 528.799988 A 24.1 24.1 0 0 1 768.200012 504.699987 A 24.1 24.1 0 0 1 792.300013 528.799988 Z" class="st9" style="clip-path: url('#SVGID_4_'); fill: rgb(145, 109, 255);"/>
			<path class="st10" d="M686.6,472.1c3.2-7.5-0.3-16.2-7.8-19.4c-7.5-3.2-16.2,0.3-19.4,7.8c-3.2,7.5,0.3,16.2,7.8,19.4&#10;&#9;&#9;&#9;&#9;C674.7,483.1,683.3,479.6,686.6,472.1z" style="clip-path: url('#SVGID_4_'); fill: rgb(254, 180, 29);"/>
			<path d="M 720.600012 669.5 A 6.4 6.4 0 0 1 714.200012 675.9 A 6.4 6.4 0 0 1 707.800012 669.5 A 6.4 6.4 0 0 1 714.200012 663.1 A 6.4 6.4 0 0 1 720.600012 669.5 Z" class="st9" style="clip-path: url('#SVGID_4_'); fill: rgb(145, 109, 255);"/>
			<path d="M 656.699988 722.299988 A 3.4 3.4 0 0 1 653.299988 725.699988 A 3.4 3.4 0 0 1 649.899988 722.299988 A 3.4 3.4 0 0 1 653.299988 718.899988 A 3.4 3.4 0 0 1 656.699988 722.299988 Z" class="st10" style="clip-path: url('#SVGID_4_'); fill: rgb(254, 180, 29);"/>
			<path d="M 665.599988 668 A 5.8 5.8 0 0 1 659.799988 673.8 A 5.8 5.8 0 0 1 653.999988 668 A 5.8 5.8 0 0 1 659.799988 662.2 A 5.8 5.8 0 0 1 665.599988 668 Z" class="st5" style="clip-path: url('#SVGID_4_'); fill: rgb(0, 159, 227);"/>
			<path class="st5" d="M779.7,586.3c-2.2-1-4.8,0.1-5.8,2.3c-0.9,2.2,0.1,4.8,2.3,5.8c2.2,1,4.8-0.1,5.8-2.3&#10;&#9;&#9;&#9;&#9;C782.9,589.8,781.9,587.2,779.7,586.3z" style="clip-path: url('#SVGID_4_'); fill: rgb(0, 159, 227);"/>
			<path d="M 924.199988 419.399994 A 3.4 3.4 0 0 1 920.799988 422.799994 A 3.4 3.4 0 0 1 917.399988 419.399994 A 3.4 3.4 0 0 1 920.799988 415.999994 A 3.4 3.4 0 0 1 924.199988 419.399994 Z" class="st10" style="clip-path: url('#SVGID_4_'); fill: rgb(254, 180, 29);"/>
			<path d="M 736.9 606 A 13.4 13.4 0 0 1 723.5 619.4 A 13.4 13.4 0 0 1 710.1 606 A 13.4 13.4 0 0 1 723.5 592.6 A 13.4 13.4 0 0 1 736.9 606 Z" class="st11" style="clip-path: url('#SVGID_4_'); fill: rgb(226, 2, 63);"/>
			<path d="M 390.4 633.5 A 6.4 6.4 0 0 1 384 639.9 A 6.4 6.4 0 0 1 377.6 633.5 A 6.4 6.4 0 0 1 384 627.1 A 6.4 6.4 0 0 1 390.4 633.5 Z" class="st9" style="clip-path: url('#SVGID_4_'); fill: rgb(145, 109, 255);"/>
			<path d="M 480.199988 683.299988 A 3.4 3.4 0 0 1 476.799988 686.699988 A 3.4 3.4 0 0 1 473.399988 683.299988 A 3.4 3.4 0 0 1 476.799988 679.899988 A 3.4 3.4 0 0 1 480.199988 683.299988 Z" class="st10" style="clip-path: url('#SVGID_4_'); fill: rgb(254, 180, 29);"/>
			<path d="M 400.199994 684.5 A 5.8 5.8 0 0 1 394.399994 690.3 A 5.8 5.8 0 0 1 388.599994 684.5 A 5.8 5.8 0 0 1 394.399994 678.7 A 5.8 5.8 0 0 1 400.199994 684.5 Z" class="st5" style="clip-path: url('#SVGID_4_'); fill: rgb(0, 159, 227);"/>
			<path class="st5" d="M386.3,539.6c-2,1.4-2.4,4.2-1,6.1c1.4,2,4.2,2.4,6.1,1c2-1.4,2.4-4.2,1-6.1&#10;&#9;&#9;&#9;&#9;C391,538.7,388.2,538.2,386.3,539.6z" style="clip-path: url('#SVGID_4_'); fill: rgb(0, 159, 227);"/>
			<path d="M 479.4 565.799988 A 3.4 3.4 0 0 1 476 569.199988 A 3.4 3.4 0 0 1 472.6 565.799988 A 3.4 3.4 0 0 1 476 562.399988 A 3.4 3.4 0 0 1 479.4 565.799988 Z" class="st9" style="clip-path: url('#SVGID_4_'); fill: rgb(145, 109, 255);"/>
			<path d="M 375.699987 589.5 A 13.4 13.4 0 0 1 362.299988 602.9 A 13.4 13.4 0 0 1 348.899988 589.5 A 13.4 13.4 0 0 1 362.299988 576.1 A 13.4 13.4 0 0 1 375.699987 589.5 Z" class="st11" style="clip-path: url('#SVGID_4_'); fill: rgb(226, 2, 63);"/>
			<path d="M 436.1 416.799988 A 11.1 11.1 0 0 1 425 427.899988 A 11.1 11.1 0 0 1 413.9 416.799988 A 11.1 11.1 0 0 1 425 405.699987 A 11.1 11.1 0 0 1 436.1 416.799988 Z" class="st5" style="clip-path: url('#SVGID_4_'); fill: rgb(0, 159, 227);"/>
			<path d="M 331.299994 547.900024 A 4.4 4.4 0 0 1 326.899994 552.300025 A 4.4 4.4 0 0 1 322.499994 547.900024 A 4.4 4.4 0 0 1 326.899994 543.500024 A 4.4 4.4 0 0 1 331.299994 547.900024 Z" class="st7" style="clip-path: url('#SVGID_4_'); fill: rgb(92, 189, 109);"/>
			<path class="st10" d="M366.2,419.1c5.3-2,8-8,6-13.3c-2-5.3-8-8-13.3-6c-5.3,2-8,8-6,13.3C354.8,418.4,360.8,421.1,366.2,419.1z" style="clip-path: url('#SVGID_4_'); fill: rgb(254, 180, 29);"/>
			<path d="M 377.5 455.700012 A 5 5 0 0 1 372.5 460.700012 A 5 5 0 0 1 367.5 455.700012 A 5 5 0 0 1 372.5 450.700012 A 5 5 0 0 1 377.5 455.700012 Z" class="st8" style="clip-path: url('#SVGID_4_'); fill: rgb(115, 207, 215);"/>
			<path d="M 565.800025 46.299999 A 3.4 3.4 0 0 1 562.400024 49.699999 A 3.4 3.4 0 0 1 559.000024 46.299999 A 3.4 3.4 0 0 1 562.400024 42.899999 A 3.4 3.4 0 0 1 565.800025 46.299999 Z" class="st10" style="clip-path: url('#SVGID_4_'); fill: rgb(254, 180, 29);"/>
			<path class="st10" d="M374,373.2c0,1.4,1.1,2.6,2.5,2.7c1.4,0,2.6-1.1,2.7-2.5c0-1.4-1.1-2.6-2.5-2.7&#10;&#9;&#9;&#9;&#9;C375.2,370.6,374,371.7,374,373.2z" style="clip-path: url('#SVGID_4_'); fill: rgb(254, 180, 29);"/>
			<path class="st11" d="M417.2,777.7c-2-5.3-8-8-13.3-6c-5.3,2-8,8-6,13.3c2,5.3,8,8,13.3,6C416.6,789,419.3,783.1,417.2,777.7z" style="clip-path: url('#SVGID_4_'); fill: rgb(226, 2, 63);"/>
			<path d="M 404.899994 473.600006 A 5 5 0 0 1 399.899994 478.600006 A 5 5 0 0 1 394.899994 473.600006 A 5 5 0 0 1 399.899994 468.600006 A 5 5 0 0 1 404.899994 473.600006 Z" class="st9" style="clip-path: url('#SVGID_4_'); fill: rgb(145, 109, 255);"/>
			<path d="M 330.999994 449.100006 A 2.6 2.6 0 0 1 328.399994 451.700006 A 2.6 2.6 0 0 1 325.799994 449.100006 A 2.6 2.6 0 0 1 328.399994 446.500006 A 2.6 2.6 0 0 1 330.999994 449.100006 Z" class="st10" style="clip-path: url('#SVGID_4_'); fill: rgb(254, 180, 29);"/>
			<path class="st5" d="M341.2,364.6c-2.4,0.4-4.1,2.6-3.8,5c0.4,2.4,2.6,4.1,5,3.8c2.4-0.4,4.1-2.6,3.8-5&#10;&#9;&#9;&#9;&#9;C345.9,365.9,343.7,364.2,341.2,364.6z" style="clip-path: url('#SVGID_4_'); fill: rgb(0, 159, 227);"/>
			<path d="M 504.100012 67.300003 A 3.4 3.4 0 0 1 500.700012 70.700003 A 3.4 3.4 0 0 1 497.300012 67.300003 A 3.4 3.4 0 0 1 500.700012 63.900003 A 3.4 3.4 0 0 1 504.100012 67.300003 Z" class="st5" style="clip-path: url('#SVGID_4_'); fill: rgb(0, 159, 227);"/>
			<path class="st9" d="M224.9,463.3c-1.1,0.9-1.3,2.5-0.4,3.6c0.9,1.1,2.5,1.3,3.6,0.4c1.1-0.9,1.3-2.5,0.4-3.6&#10;&#9;&#9;&#9;&#9;C227.6,462.6,226,462.4,224.9,463.3z" style="clip-path: url('#SVGID_4_'); fill: rgb(145, 109, 255);"/>
			<path d="M 512.8 -1.3 A 10.3 10.3 0 0 1 502.5 9 A 10.3 10.3 0 0 1 492.2 -1.3 A 10.3 10.3 0 0 1 502.5 -11.6 A 10.3 10.3 0 0 1 512.8 -1.3 Z" class="st11" style="clip-path: url('#SVGID_4_'); fill: rgb(226, 2, 63);"/>
			<path d="M 660.699976 282.700012 A 24.1 24.1 0 0 1 636.599976 306.800013 A 24.1 24.1 0 0 1 612.499975 282.700012 A 24.1 24.1 0 0 1 636.599976 258.600012 A 24.1 24.1 0 0 1 660.699976 282.700012 Z" class="st4" style="clip-path: url('#SVGID_4_'); fill: rgb(255, 127, 131);"/>
			<path d="M 691 387.600006 A 14.5 14.5 0 0 1 676.5 402.100006 A 14.5 14.5 0 0 1 662 387.600006 A 14.5 14.5 0 0 1 676.5 373.100006 A 14.5 14.5 0 0 1 691 387.600006 Z" class="st5" style="clip-path: url('#SVGID_4_'); fill: rgb(0, 159, 227);"/>
			<path d="M 810.999975 226.399994 A 13.4 13.4 0 0 1 797.599976 239.799994 A 13.4 13.4 0 0 1 784.199976 226.399994 A 13.4 13.4 0 0 1 797.599976 212.999994 A 13.4 13.4 0 0 1 810.999975 226.399994 Z" class="st6" style="clip-path: url('#SVGID_4_'); fill: rgb(235, 90, 106);"/>
			<path d="M 710.999975 538.900024 A 12.9 12.9 0 0 1 698.099976 551.800024 A 12.9 12.9 0 0 1 685.199976 538.900024 A 12.9 12.9 0 0 1 698.099976 526.000025 A 12.9 12.9 0 0 1 710.999975 538.900024 Z" class="st7" style="clip-path: url('#SVGID_4_'); fill: rgb(92, 189, 109);"/>
			<path d="M 882.100024 309.799988 A 3.2 3.2 0 0 1 878.900024 312.999988 A 3.2 3.2 0 0 1 875.700024 309.799988 A 3.2 3.2 0 0 1 878.900024 306.599988 A 3.2 3.2 0 0 1 882.100024 309.799988 Z" class="st4" style="clip-path: url('#SVGID_4_'); fill: rgb(255, 127, 131);"/>
			<path d="M 834.300024 473.700012 A 12.9 12.9 0 0 1 821.400024 486.600012 A 12.9 12.9 0 0 1 808.500025 473.700012 A 12.9 12.9 0 0 1 821.400024 460.800013 A 12.9 12.9 0 0 1 834.300024 473.700012 Z" class="st8" style="clip-path: url('#SVGID_4_'); fill: rgb(115, 207, 215);"/>
			<path d="M 869.899988 547.599976 A 17.6 17.6 0 0 1 852.299988 565.199976 A 17.6 17.6 0 0 1 834.699987 547.599976 A 17.6 17.6 0 0 1 852.299988 529.999975 A 17.6 17.6 0 0 1 869.899988 547.599976 Z" class="st7" style="clip-path: url('#SVGID_4_'); fill: rgb(92, 189, 109);"/>
			<path d="M 841.1 279.700012 A 10.6 10.6 0 0 1 830.5 290.300013 A 10.6 10.6 0 0 1 819.9 279.700012 A 10.6 10.6 0 0 1 830.5 269.100012 A 10.6 10.6 0 0 1 841.1 279.700012 Z" class="st9" style="clip-path: url('#SVGID_4_'); fill: rgb(145, 109, 255);"/>
			<path d="M 793.099976 313.899994 A 17.5 17.5 0 0 1 775.599976 331.399994 A 17.5 17.5 0 0 1 758.099976 313.899994 A 17.5 17.5 0 0 1 775.599976 296.399994 A 17.5 17.5 0 0 1 793.099976 313.899994 Z" class="st7" style="clip-path: url('#SVGID_4_'); fill: rgb(92, 189, 109);"/>
			<path d="M 905.800013 262.100006 A 10.6 10.6 0 0 1 895.200012 272.700006 A 10.6 10.6 0 0 1 884.600012 262.100006 A 10.6 10.6 0 0 1 895.200012 251.500006 A 10.6 10.6 0 0 1 905.800013 262.100006 Z" class="st5" style="clip-path: url('#SVGID_4_'); fill: rgb(0, 159, 227);"/>
			<path class="st10" d="M754.6,383.3c-7.4,0.4-13.1,6.7-12.7,14.1c0.4,7.4,6.7,13.1,14.1,12.7c7.4-0.4,13.1-6.7,12.7-14.1&#10;&#9;&#9;&#9;&#9;C768.4,388.6,762,382.9,754.6,383.3z" style="clip-path: url('#SVGID_4_'); fill: rgb(254, 180, 29);"/>
			<path d="M 445.600012 259.299988 A 12.9 12.9 0 0 1 432.700012 272.199987 A 12.9 12.9 0 0 1 419.800013 259.299988 A 12.9 12.9 0 0 1 432.700012 246.399988 A 12.9 12.9 0 0 1 445.600012 259.299988 Z" class="st7" style="clip-path: url('#SVGID_4_'); fill: rgb(92, 189, 109);"/>
			<path d="M 972.299975 456.600006 A 5.7 5.7 0 0 1 966.599976 462.300006 A 5.7 5.7 0 0 1 960.899976 456.600006 A 5.7 5.7 0 0 1 966.599976 450.900006 A 5.7 5.7 0 0 1 972.299975 456.600006 Z" class="st8" style="clip-path: url('#SVGID_4_'); fill: rgb(115, 207, 215);"/>
			<path d="M 874.599976 375.200012 A 17.5 17.5 0 0 1 857.099976 392.700012 A 17.5 17.5 0 0 1 839.599976 375.200012 A 17.5 17.5 0 0 1 857.099976 357.700012 A 17.5 17.5 0 0 1 874.599976 375.200012 Z" class="st11" style="clip-path: url('#SVGID_4_'); fill: rgb(226, 2, 63);"/>
			<path d="M 673.899976 219.800003 A 6.3 6.3 0 0 1 667.599976 226.100003 A 6.3 6.3 0 0 1 661.299975 219.800003 A 6.3 6.3 0 0 1 667.599976 213.500003 A 6.3 6.3 0 0 1 673.899976 219.800003 Z" class="st5" style="clip-path: url('#SVGID_4_'); fill: rgb(0, 159, 227);"/>
			<path d="M 709.499976 299.200012 A 6.4 6.4 0 0 1 703.099976 305.600012 A 6.4 6.4 0 0 1 696.699975 299.200012 A 6.4 6.4 0 0 1 703.099976 292.800012 A 6.4 6.4 0 0 1 709.499976 299.200012 Z" class="st8" style="clip-path: url('#SVGID_4_'); fill: rgb(115, 207, 215);"/>
			<path class="st8" d="M631.1,182c5.7,4.3,13.8,3.2,18.1-2.4c4.3-5.7,3.2-13.8-2.4-18.1c-5.7-4.3-13.8-3.2-18.1,2.4&#10;&#9;&#9;&#9;&#9;C624.4,169.5,625.5,177.6,631.1,182z" style="clip-path: url('#SVGID_4_'); fill: rgb(115, 207, 215);"/>
			<path d="M 932.700025 344 A 5.3 5.3 0 0 1 927.400024 349.3 A 5.3 5.3 0 0 1 922.100024 344 A 5.3 5.3 0 0 1 927.400024 338.7 A 5.3 5.3 0 0 1 932.700025 344 Z" class="st7" style="clip-path: url('#SVGID_4_'); fill: rgb(92, 189, 109);"/>
			<path d="M 820.600024 57.900002 A 3.2 3.2 0 0 1 817.400024 61.100002 A 3.2 3.2 0 0 1 814.200024 57.900002 A 3.2 3.2 0 0 1 817.400024 54.700001 A 3.2 3.2 0 0 1 820.600024 57.900002 Z" class="st9" style="clip-path: url('#SVGID_4_'); fill: rgb(145, 109, 255);"/>
			<path class="st10" d="M730.3,208.5c-7.7-5.9-18.7-4.4-24.5,3.3c-5.9,7.7-4.4,18.7,3.3,24.5c7.7,5.9,18.7,4.4,24.5-3.3&#10;&#9;&#9;&#9;&#9;C739.5,225.3,738,214.3,730.3,208.5z" style="clip-path: url('#SVGID_4_'); fill: rgb(254, 180, 29);"/>
			<path class="st5" d="M731.6,175.7c3.6,2.8,8.8,2.1,11.6-1.5c2.8-3.6,2.1-8.8-1.5-11.6c-3.6-2.8-8.8-2.1-11.6,1.5&#10;&#9;&#9;&#9;&#9;C727.3,167.8,728,172.9,731.6,175.7z" style="clip-path: url('#SVGID_4_'); fill: rgb(0, 159, 227);"/>
			<path class="st5" d="M641.9,355.8c1.5-1.9,1.1-4.7-0.8-6.2c-1.9-1.5-4.7-1.1-6.2,0.8c-1.5,1.9-1.1,4.7,0.8,6.2&#10;&#9;&#9;&#9;&#9;C637.6,358.1,640.4,357.7,641.9,355.8z" style="clip-path: url('#SVGID_4_'); fill: rgb(0, 159, 227);"/>
			<path d="M 720.100012 352.200012 A 3.4 3.4 0 0 1 716.700012 355.600012 A 3.4 3.4 0 0 1 713.300012 352.200012 A 3.4 3.4 0 0 1 716.700012 348.800012 A 3.4 3.4 0 0 1 720.100012 352.200012 Z" class="st10" style="clip-path: url('#SVGID_4_'); fill: rgb(254, 180, 29);"/>
			<path d="M 610.300024 344.100006 A 13.4 13.4 0 0 1 596.900024 357.500006 A 13.4 13.4 0 0 1 583.500025 344.100006 A 13.4 13.4 0 0 1 596.900024 330.700006 A 13.4 13.4 0 0 1 610.300024 344.100006 Z" class="st11" style="clip-path: url('#SVGID_4_'); fill: rgb(226, 2, 63);"/>
			<path d="M 554.100012 257.299988 A 6.4 6.4 0 0 1 547.700012 263.699988 A 6.4 6.4 0 0 1 541.300012 257.299988 A 6.4 6.4 0 0 1 547.700012 250.899988 A 6.4 6.4 0 0 1 554.100012 257.299988 Z" class="st9" style="clip-path: url('#SVGID_4_'); fill: rgb(145, 109, 255);"/>
			<path d="M 564.699988 310.299988 A 3.4 3.4 0 0 1 561.299988 313.699988 A 3.4 3.4 0 0 1 557.899988 310.299988 A 3.4 3.4 0 0 1 561.299988 306.899988 A 3.4 3.4 0 0 1 564.699988 310.299988 Z" class="st10" style="clip-path: url('#SVGID_4_'); fill: rgb(254, 180, 29);"/>
			<path d="M 538.599988 309.700012 A 5.8 5.8 0 0 1 532.799988 315.500012 A 5.8 5.8 0 0 1 526.999988 309.700012 A 5.8 5.8 0 0 1 532.799988 303.900012 A 5.8 5.8 0 0 1 538.599988 309.700012 Z" class="st5" style="clip-path: url('#SVGID_4_'); fill: rgb(0, 159, 227);"/>
			<path d="M 617.100012 219.600006 A 13.4 13.4 0 0 1 603.700012 233.000006 A 13.4 13.4 0 0 1 590.300013 219.600006 A 13.4 13.4 0 0 1 603.700012 206.200006 A 13.4 13.4 0 0 1 617.100012 219.600006 Z" class="st10" style="clip-path: url('#SVGID_4_'); fill: rgb(254, 180, 29);"/>
			<path d="M 545.1 147.699997 A 11.1 11.1 0 0 1 534 158.799997 A 11.1 11.1 0 0 1 522.9 147.699997 A 11.1 11.1 0 0 1 534 136.599997 A 11.1 11.1 0 0 1 545.1 147.699997 Z" class="st8" style="clip-path: url('#SVGID_4_'); fill: rgb(115, 207, 215);"/>
			<path class="st5" d="M484.1,179.5c1.9,1.5,4.7,1.1,6.2-0.8c1.5-1.9,1.1-4.7-0.8-6.2c-1.9-1.5-4.7-1.1-6.2,0.8&#10;&#9;&#9;&#9;&#9;C481.8,175.3,482.2,178,484.1,179.5z" style="clip-path: url('#SVGID_4_'); fill: rgb(0, 159, 227);"/>
			<path d="M 568.499976 175.100006 A 3.4 3.4 0 0 1 565.099976 178.500006 A 3.4 3.4 0 0 1 561.699975 175.100006 A 3.4 3.4 0 0 1 565.099976 171.700006 A 3.4 3.4 0 0 1 568.499976 175.100006 Z" class="st10" style="clip-path: url('#SVGID_4_'); fill: rgb(254, 180, 29);"/>
			<path d="M 501.9 232.600006 A 13.4 13.4 0 0 1 488.5 246.000006 A 13.4 13.4 0 0 1 475.1 232.600006 A 13.4 13.4 0 0 1 488.5 219.200006 A 13.4 13.4 0 0 1 501.9 232.600006 Z" class="st11" style="clip-path: url('#SVGID_4_'); fill: rgb(226, 2, 63);"/>
			<path d="M 722.1 108.900002 A 24.1 24.1 0 0 1 698 133.000002 A 24.1 24.1 0 0 1 673.9 108.900002 A 24.1 24.1 0 0 1 698 84.800001 A 24.1 24.1 0 0 1 722.1 108.900002 Z" class="st8" style="clip-path: url('#SVGID_4_'); fill: rgb(115, 207, 215);"/>
			<path class="st10" d="M612.8,128.3c6.5,5,15.8,3.7,20.8-2.8c5-6.5,3.7-15.8-2.8-20.8c-6.5-5-15.8-3.7-20.8,2.8&#10;&#9;&#9;&#9;&#9;C605.1,114.1,606.3,123.4,612.8,128.3z" style="clip-path: url('#SVGID_4_'); fill: rgb(254, 180, 29);"/>
			<path d="M 835.4 126.800003 A 6.4 6.4 0 0 1 829 133.200003 A 6.4 6.4 0 0 1 822.6 126.800003 A 6.4 6.4 0 0 1 829 120.400003 A 6.4 6.4 0 0 1 835.4 126.800003 Z" class="st9" style="clip-path: url('#SVGID_4_'); fill: rgb(145, 109, 255);"/>
			<path d="M 915.4 11.8 A 6.4 6.4 0 0 1 909 18.2 A 6.4 6.4 0 0 1 902.6 11.8 A 6.4 6.4 0 0 1 909 5.4 A 6.4 6.4 0 0 1 915.4 11.8 Z" class="st9" style="clip-path: url('#SVGID_4_'); fill: rgb(145, 109, 255);"/>
			<path d="M 868.4 198.899994 A 3.4 3.4 0 0 1 865 202.299994 A 3.4 3.4 0 0 1 861.6 198.899994 A 3.4 3.4 0 0 1 865 195.499994 A 3.4 3.4 0 0 1 868.4 198.899994 Z" class="st10" style="clip-path: url('#SVGID_4_'); fill: rgb(254, 180, 29);"/>
			<path d="M 819.899976 179.199997 A 5.8 5.8 0 0 1 814.099976 184.999997 A 5.8 5.8 0 0 1 808.299975 179.199997 A 5.8 5.8 0 0 1 814.099976 173.399997 A 5.8 5.8 0 0 1 819.899976 179.199997 Z" class="st5" style="clip-path: url('#SVGID_4_'); fill: rgb(0, 159, 227);"/>
			<path class="st5" d="M765.3,38.3c1.9,1.5,4.7,1.1,6.2-0.8c1.5-1.9,1.1-4.7-0.8-6.2c-1.9-1.5-4.7-1.1-6.2,0.8&#10;&#9;&#9;&#9;&#9;C763,34,763.4,36.8,765.3,38.3z" style="clip-path: url('#SVGID_4_'); fill: rgb(0, 159, 227);"/>
			<path d="M 671.300025 70.5 A 3.4 3.4 0 0 1 667.900024 73.9 A 3.4 3.4 0 0 1 664.500024 70.5 A 3.4 3.4 0 0 1 667.900024 67.1 A 3.4 3.4 0 0 1 671.300025 70.5 Z" class="st10" style="clip-path: url('#SVGID_4_'); fill: rgb(254, 180, 29);"/>
			<path d="M 783.100012 102.199997 A 13.4 13.4 0 0 1 769.700012 115.599997 A 13.4 13.4 0 0 1 756.300013 102.199997 A 13.4 13.4 0 0 1 769.700012 88.799997 A 13.4 13.4 0 0 1 783.100012 102.199997 Z" class="st11" style="clip-path: url('#SVGID_4_'); fill: rgb(226, 2, 63);"/>
			<path d="M 718.800025 437.899994 A 6.4 6.4 0 0 1 712.400024 444.299994 A 6.4 6.4 0 0 1 706.000024 437.899994 A 6.4 6.4 0 0 1 712.400024 431.499994 A 6.4 6.4 0 0 1 718.800025 437.899994 Z" class="st9" style="clip-path: url('#SVGID_4_'); fill: rgb(145, 109, 255);"/>
			<path class="st10" d="M782.4,357.2c-1.7,0.7-2.6,2.6-1.9,4.4c0.7,1.7,2.6,2.6,4.4,1.9c1.7-0.7,2.6-2.6,1.9-4.4&#10;&#9;&#9;&#9;&#9;C786.1,357.4,784.1,356.5,782.4,357.2z" style="clip-path: url('#SVGID_4_'); fill: rgb(254, 180, 29);"/>
			<path d="M 770.099988 440.399994 A 5.8 5.8 0 0 1 764.299988 446.199994 A 5.8 5.8 0 0 1 758.499988 440.399994 A 5.8 5.8 0 0 1 764.299988 434.599994 A 5.8 5.8 0 0 1 770.099988 440.399994 Z" class="st5" style="clip-path: url('#SVGID_4_'); fill: rgb(0, 159, 227);"/>
			<path class="st5" d="M866.6,419c-2.3,0.9-3.4,3.4-2.5,5.7c0.9,2.3,3.4,3.4,5.7,2.5c2.3-0.9,3.4-3.4,2.5-5.7&#10;&#9;&#9;&#9;&#9;C871.4,419.2,868.9,418.1,866.6,419z" style="clip-path: url('#SVGID_4_'); fill: rgb(0, 159, 227);"/>
			<path class="st9" d="M673.8,327.4c1.7-0.7,2.6-2.6,1.9-4.4c-0.7-1.7-2.6-2.6-4.4-1.9c-1.7,0.7-2.6,2.6-1.9,4.4&#10;&#9;&#9;&#9;&#9;C670.1,327.2,672.1,328.1,673.8,327.4z" style="clip-path: url('#SVGID_4_'); fill: rgb(145, 109, 255);"/>
			<path d="M 935.300024 136.899994 A 13.4 13.4 0 0 1 921.900024 150.299994 A 13.4 13.4 0 0 1 908.500025 136.899994 A 13.4 13.4 0 0 1 921.900024 123.499994 A 13.4 13.4 0 0 1 935.300024 136.899994 Z" class="st11" style="clip-path: url('#SVGID_4_'); fill: rgb(226, 2, 63);"/>
			<path d="M 972.699976 240.399994 A 11.1 11.1 0 0 1 961.599976 251.499994 A 11.1 11.1 0 0 1 950.499975 240.399994 A 11.1 11.1 0 0 1 961.599976 229.299994 A 11.1 11.1 0 0 1 972.699976 240.399994 Z" class="st5" style="clip-path: url('#SVGID_4_'); fill: rgb(0, 159, 227);"/>
			<path d="M 619.800025 472 A 4.4 4.4 0 0 1 615.400024 476.4 A 4.4 4.4 0 0 1 611.000024 472 A 4.4 4.4 0 0 1 615.400024 467.6 A 4.4 4.4 0 0 1 619.800025 472 Z" class="st7" style="clip-path: url('#SVGID_4_'); fill: rgb(92, 189, 109);"/>
			<path d="M 500.3 403.299988 A 10.3 10.3 0 0 1 490 413.599988 A 10.3 10.3 0 0 1 479.7 403.299988 A 10.3 10.3 0 0 1 490 392.999988 A 10.3 10.3 0 0 1 500.3 403.299988 Z" class="st10" style="clip-path: url('#SVGID_4_'); fill: rgb(254, 180, 29);"/>
			<path d="M 605 427.5 A 5 5 0 0 1 600 432.5 A 5 5 0 0 1 595 427.5 A 5 5 0 0 1 600 422.5 A 5 5 0 0 1 605 427.5 Z" class="st8" style="clip-path: url('#SVGID_4_'); fill: rgb(115, 207, 215);"/>
			<path class="st10" d="M496.9,290.1c1-1.5,0.6-3.7-0.9-4.7c-1.5-1-3.7-0.6-4.7,0.9c-1,1.5-0.6,3.7,0.9,4.7&#10;&#9;&#9;&#9;&#9;C493.8,292,495.9,291.6,496.9,290.1z" style="clip-path: url('#SVGID_4_'); fill: rgb(254, 180, 29);"/>
			<path d="M 460.999994 380.700012 A 2.6 2.6 0 0 1 458.399994 383.300012 A 2.6 2.6 0 0 1 455.799994 380.700012 A 2.6 2.6 0 0 1 458.399994 378.100012 A 2.6 2.6 0 0 1 460.999994 380.700012 Z" class="st10" style="clip-path: url('#SVGID_4_'); fill: rgb(254, 180, 29);"/>
			<path d="M 848.200025 612.5 A 10.3 10.3 0 0 1 837.900024 622.8 A 10.3 10.3 0 0 1 827.600024 612.5 A 10.3 10.3 0 0 1 837.900024 602.2 A 10.3 10.3 0 0 1 848.200025 612.5 Z" class="st11" style="clip-path: url('#SVGID_4_'); fill: rgb(226, 2, 63);"/>
			<path d="M 566.400024 383 A 5 5 0 0 1 561.400024 388 A 5 5 0 0 1 556.400024 383 A 5 5 0 0 1 561.400024 378 A 5 5 0 0 1 566.400024 383 Z" class="st9" style="clip-path: url('#SVGID_4_'); fill: rgb(145, 109, 255);"/>
			<path d="M 522.6 446.200012 A 2.6 2.6 0 0 1 520 448.800012 A 2.6 2.6 0 0 1 517.4 446.200012 A 2.6 2.6 0 0 1 520 443.600012 A 2.6 2.6 0 0 1 522.6 446.200012 Z" class="st10" style="clip-path: url('#SVGID_4_'); fill: rgb(254, 180, 29);"/>
			<path class="st5" d="M-8.1,403c0.3-2.4-1.5-4.6-4-4.9c-2.4-0.3-4.6,1.5-4.9,4c-0.3,2.4,1.5,4.6,3.9,4.9&#10;&#9;&#9;&#9;&#9;C-10.6,407.2-8.4,405.5-8.1,403z" style="clip-path: url('#SVGID_4_'); fill: rgb(0, 159, 227);"/>
			<path class="st5" d="M381,310.4c1.7-0.8,2.4-2.8,1.7-4.5c-0.8-1.7-2.8-2.4-4.5-1.7c-1.7,0.8-2.4,2.8-1.7,4.5&#10;&#9;&#9;&#9;&#9;C377.3,310.4,379.3,311.2,381,310.4z" style="clip-path: url('#SVGID_4_'); fill: rgb(0, 159, 227);"/>
			<path class="st9" d="M543.7,226.3c-1.3,0.6-1.9,2.1-1.3,3.4c0.6,1.3,2.1,1.9,3.4,1.3c1.3-0.6,1.9-2.1,1.3-3.4&#10;&#9;&#9;&#9;&#9;C546.5,226.3,545,225.7,543.7,226.3z" style="clip-path: url('#SVGID_4_'); fill: rgb(145, 109, 255);"/>
			<path class="st11" d="M400.5,346.7c5.2,2.4,11.3,0.1,13.7-5.1c2.4-5.2,0.1-11.3-5.1-13.7c-5.2-2.4-11.3-0.1-13.7,5.1&#10;&#9;&#9;&#9;&#9;C393,338.1,395.3,344.3,400.5,346.7z" style="clip-path: url('#SVGID_4_'); fill: rgb(226, 2, 63);"/>
			<path d="M 658.000025 13.7 A 16.6 16.6 0 0 1 641.400024 30.3 A 16.6 16.6 0 0 1 624.800024 13.7 A 16.6 16.6 0 0 1 641.400024 -2.900001 A 16.6 16.6 0 0 1 658.000025 13.7 Z" class="st8" style="clip-path: url('#SVGID_4_'); fill: rgb(115, 207, 215);"/>
			<path class="st8" d="M38,802c2.8-6.6-0.3-14.2-6.8-17c-6.6-2.8-14.2,0.3-17,6.8c-2.8,6.6,0.3,14.2,6.8,16.9&#10;&#9;&#9;&#9;&#9;C27.6,811.6,35.2,808.5,38,802z" style="clip-path: url('#SVGID_4_'); fill: rgb(115, 207, 215);"/>
			<path class="st10" d="M568.7,68.1c-15-6.4-32.3,0.6-38.7,15.6c-6.4,15,0.6,32.3,15.6,38.7c15,6.4,32.3-0.6,38.7-15.6&#10;&#9;&#9;&#9;&#9;C590.6,91.8,583.6,74.4,568.7,68.1z" style="clip-path: url('#SVGID_4_'); fill: rgb(254, 180, 29);"/>
			<path class="st8" d="M16.8,672.1c2.4-5.7-0.2-12.2-5.9-14.6c-5.7-2.4-12.2,0.2-14.6,5.9c-2.4,5.7,0.2,12.2,5.9,14.6&#10;&#9;&#9;&#9;&#9;C7.8,680.4,14.4,677.8,16.8,672.1z" style="clip-path: url('#SVGID_4_'); fill: rgb(115, 207, 215);"/>
			<path d="M -9 704.700012 A 3.4 3.4 0 0 1 -12.4 708.100012 A 3.4 3.4 0 0 1 -15.8 704.700012 A 3.4 3.4 0 0 1 -12.4 701.300012 A 3.4 3.4 0 0 1 -9 704.700012 Z" class="st10" style="clip-path: url('#SVGID_4_'); fill: rgb(254, 180, 29);"/>
			<path class="st11" d="M793.7,33.7c7.1-2.2,11-9.8,8.8-16.8c-2.2-7.1-9.8-11-16.8-8.8c-7.1,2.2-11,9.8-8.8,16.8&#10;&#9;&#9;&#9;&#9;C779.1,32,786.6,35.9,793.7,33.7z" style="clip-path: url('#SVGID_4_'); fill: rgb(226, 2, 63);"/>
			<path d="M 388.999994 13.1 A 24.1 24.1 0 0 1 364.899994 37.200001 A 24.1 24.1 0 0 1 340.799994 13.1 A 24.1 24.1 0 0 1 364.899994 -11 A 24.1 24.1 0 0 1 388.999994 13.1 Z" class="st9" style="clip-path: url('#SVGID_4_'); fill: rgb(145, 109, 255);"/>
			<path class="st10" d="M60.3,758.8c7.5,3.2,16.2-0.3,19.4-7.8c3.2-7.5-0.3-16.2-7.8-19.4c-7.5-3.2-16.2,0.3-19.4,7.8&#10;&#9;&#9;&#9;&#9;C49.2,746.9,52.7,755.6,60.3,758.8z" style="clip-path: url('#SVGID_4_'); fill: rgb(254, 180, 29);"/>
			<path class="st9" d="M495,33.4c1.1,1.5,3.2,1.8,4.7,0.8c1.5-1.1,1.8-3.2,0.8-4.7c-0.1-0.2-0.2-0.3-0.4-0.4h-4.7&#10;&#9;&#9;&#9;&#9;C494.2,30.1,494,32,495,33.4z" style="clip-path: url('#SVGID_4_'); fill: rgb(145, 109, 255);"/>
			<path d="M 53.9 561.599976 A 24.1 24.1 0 0 1 29.799999 585.699976 A 24.1 24.1 0 0 1 5.699999 561.599976 A 24.1 24.1 0 0 1 29.799999 537.499975 A 24.1 24.1 0 0 1 53.9 561.599976 Z" class="st4" style="clip-path: url('#SVGID_4_'); fill: rgb(255, 127, 131);"/>
			<path d="M 84.099998 666.5 A 14.5 14.5 0 0 1 69.599998 681 A 14.5 14.5 0 0 1 55.099998 666.5 A 14.5 14.5 0 0 1 69.599998 652 A 14.5 14.5 0 0 1 84.099998 666.5 Z" class="st5" style="clip-path: url('#SVGID_4_'); fill: rgb(0, 159, 227);"/>
			<path d="M 204.099997 505.299988 A 13.4 13.4 0 0 1 190.699997 518.699987 A 13.4 13.4 0 0 1 177.299997 505.299988 A 13.4 13.4 0 0 1 190.699997 491.899988 A 13.4 13.4 0 0 1 204.099997 505.299988 Z" class="st6" style="clip-path: url('#SVGID_4_'); fill: rgb(235, 90, 106);"/>
			<path class="st7" d="M118.6,768.5c2.6,6.6-0.6,14.1-7.2,16.8c-6.6,2.6-14.1-0.6-16.8-7.2c-2.6-6.6,0.6-14.1,7.2-16.8&#10;&#9;&#9;&#9;&#9;C108.4,758.7,116,761.9,118.6,768.5z M110.3,784.2c1.7,0.7,3.7-0.1,4.4-1.8s-0.1-3.7-1.8-4.4c-1.7-0.7-3.7,0.1-4.4,1.8&#10;&#9;&#9;&#9;&#9;C107.8,781.5,108.6,783.4,110.3,784.2z" style="clip-path: url('#SVGID_4_'); fill: rgb(92, 189, 109);"/>
			<path d="M 115.099997 781.099976 A 3.4 3.4 0 0 1 111.699997 784.499976 A 3.4 3.4 0 0 1 108.299997 781.099976 A 3.4 3.4 0 0 1 111.699997 777.699975 A 3.4 3.4 0 0 1 115.099997 781.099976 Z" class="st7" style="clip-path: url('#SVGID_4_'); fill: rgb(92, 189, 109);"/>
			<path class="st8" d="M210.4,764.9c6.8,2.3,14.1-1.3,16.4-8.1c2.3-6.8-1.3-14.1-8.1-16.4c-6.8-2.3-14.1,1.3-16.4,8.1&#10;&#9;&#9;&#9;&#9;C200,755.3,203.6,762.6,210.4,764.9z" style="clip-path: url('#SVGID_4_'); fill: rgb(115, 207, 215);"/>
			<path class="st7" d="M174.3,27.3c9.2,3.1,19.1-1.8,22.2-11c3.1-9.2-1.8-19.1-11-22.2c-9.2-3.1-19.1,1.8-22.2,11&#10;&#9;&#9;&#9;&#9;C160.2,14.2,165.2,24.2,174.3,27.3z" style="clip-path: url('#SVGID_4_'); fill: rgb(92, 189, 109);"/>
			<path d="M 234.200006 558.700012 A 10.6 10.6 0 0 1 223.600006 569.300013 A 10.6 10.6 0 0 1 213.000006 558.700012 A 10.6 10.6 0 0 1 223.600006 548.100012 A 10.6 10.6 0 0 1 234.200006 558.700012 Z" class="st9" style="clip-path: url('#SVGID_4_'); fill: rgb(145, 109, 255);"/>
			<path d="M 186.199997 592.799988 A 17.5 17.5 0 0 1 168.699997 610.299988 A 17.5 17.5 0 0 1 151.199997 592.799988 A 17.5 17.5 0 0 1 168.699997 575.299988 A 17.5 17.5 0 0 1 186.199997 592.799988 Z" class="st7" style="clip-path: url('#SVGID_4_'); fill: rgb(92, 189, 109);"/>
			<path d="M 161.9 675.599976 A 13.4 13.4 0 0 1 148.5 688.999975 A 13.4 13.4 0 0 1 135.1 675.599976 A 13.4 13.4 0 0 1 148.5 662.199976 A 13.4 13.4 0 0 1 161.9 675.599976 Z" class="st10" style="clip-path: url('#SVGID_4_'); fill: rgb(254, 180, 29);"/>
			<path d="M 267.699997 654.099976 A 17.5 17.5 0 0 1 250.199997 671.599976 A 17.5 17.5 0 0 1 232.699997 654.099976 A 17.5 17.5 0 0 1 250.199997 636.599976 A 17.5 17.5 0 0 1 267.699997 654.099976 Z" class="st11" style="clip-path: url('#SVGID_4_'); fill: rgb(226, 2, 63);"/>
			<path d="M 102.599997 578.099976 A 6.4 6.4 0 0 1 96.199997 584.499976 A 6.4 6.4 0 0 1 89.799997 578.099976 A 6.4 6.4 0 0 1 96.199997 571.699975 A 6.4 6.4 0 0 1 102.599997 578.099976 Z" class="st8" style="clip-path: url('#SVGID_4_'); fill: rgb(115, 207, 215);"/>
			<path d="M 130.300003 501.299988 A 17.5 17.5 0 0 1 112.800003 518.799988 A 17.5 17.5 0 0 1 95.300003 501.299988 A 17.5 17.5 0 0 1 112.800003 483.799988 A 17.5 17.5 0 0 1 130.300003 501.299988 Z" class="st10" style="clip-path: url('#SVGID_4_'); fill: rgb(254, 180, 29);"/>
			<path class="st5" d="M28,629.3c-1.5,1.9-1.1,4.7,0.8,6.2c1.9,1.5,4.7,1.1,6.2-0.8c1.5-1.9,1.1-4.7-0.8-6.2&#10;&#9;&#9;&#9;&#9;C32.2,627,29.5,627.4,28,629.3z" style="clip-path: url('#SVGID_4_'); fill: rgb(0, 159, 227);"/>
			<path d="M 113.200003 631.099976 A 3.4 3.4 0 0 1 109.800003 634.499976 A 3.4 3.4 0 0 1 106.400003 631.099976 A 3.4 3.4 0 0 1 109.800003 627.699975 A 3.4 3.4 0 0 1 113.200003 631.099976 Z" class="st10" style="clip-path: url('#SVGID_4_'); fill: rgb(254, 180, 29);"/>
			<path d="M -4.200001 623 A 13.4 13.4 0 0 1 -17.6 636.4 A 13.4 13.4 0 0 1 -31 623 A 13.4 13.4 0 0 1 -17.6 609.6 A 13.4 13.4 0 0 1 -4.200001 623 Z" class="st11" style="clip-path: url('#SVGID_4_'); fill: rgb(226, 2, 63);"/>
			<path d="M 72.099997 57.700001 A 6.4 6.4 0 0 1 65.699997 64.100001 A 6.4 6.4 0 0 1 59.299997 57.700001 A 6.4 6.4 0 0 1 65.699997 51.300001 A 6.4 6.4 0 0 1 72.099997 57.700001 Z" class="st9" style="clip-path: url('#SVGID_4_'); fill: rgb(145, 109, 255);"/>
			<path class="st10" d="M52.8,209.9c1.5,1.1,3.6,0.8,4.7-0.6c1.1-1.5,0.8-3.6-0.6-4.7c-1.5-1.1-3.6-0.8-4.7,0.6&#10;&#9;&#9;&#9;&#9;c0,0.1-0.1,0.1-0.1,0.2v3.7C52.2,209.4,52.4,209.7,52.8,209.9z" style="clip-path: url('#SVGID_4_'); fill: rgb(254, 180, 29);"/>
			<path d="M 851.599988 26.200001 A 5.8 5.8 0 0 1 845.799988 32.000001 A 5.8 5.8 0 0 1 839.999988 26.200001 A 5.8 5.8 0 0 1 845.799988 20.400001 A 5.8 5.8 0 0 1 851.599988 26.200001 Z" class="st5" style="clip-path: url('#SVGID_4_'); fill: rgb(0, 159, 227);"/>
			<path d="M 2.599999 498.5 A 13.4 13.4 0 0 1 -10.8 511.9 A 13.4 13.4 0 0 1 -24.2 498.5 A 13.4 13.4 0 0 1 -10.8 485.1 A 13.4 13.4 0 0 1 2.599999 498.5 Z" class="st10" style="clip-path: url('#SVGID_4_'); fill: rgb(254, 180, 29);"/>
			<path d="M 437.199987 -0.2 A 13.4 13.4 0 0 1 423.799988 13.2 A 13.4 13.4 0 0 1 410.399988 -0.2 A 13.4 13.4 0 0 1 423.799988 -13.6 A 13.4 13.4 0 0 1 437.199987 -0.2 Z" class="st11" style="clip-path: url('#SVGID_4_'); fill: rgb(226, 2, 63);"/>
			<path d="M 111.9 716.799988 A 6.4 6.4 0 0 1 105.5 723.199988 A 6.4 6.4 0 0 1 99.1 716.799988 A 6.4 6.4 0 0 1 105.5 710.399988 A 6.4 6.4 0 0 1 111.9 716.799988 Z" class="st9" style="clip-path: url('#SVGID_4_'); fill: rgb(145, 109, 255);"/>
			<path class="st10" d="M175.5,636.1c-1.7,0.7-2.6,2.6-1.9,4.4c0.7,1.7,2.6,2.6,4.4,1.9c1.7-0.7,2.6-2.6,1.9-4.4&#10;&#9;&#9;&#9;&#9;C179.2,636.3,177.3,635.4,175.5,636.1z" style="clip-path: url('#SVGID_4_'); fill: rgb(254, 180, 29);"/>
			<path d="M 163.3 719.299988 A 5.8 5.8 0 0 1 157.5 725.099988 A 5.8 5.8 0 0 1 151.7 719.299988 A 5.8 5.8 0 0 1 157.5 713.499988 A 5.8 5.8 0 0 1 163.3 719.299988 Z" class="st5" style="clip-path: url('#SVGID_4_'); fill: rgb(0, 159, 227);"/>
			<path class="st9" d="M64.5,600.1c-1.7,0.7-2.6,2.6-1.9,4.4c0.7,1.7,2.6,2.6,4.4,1.9c1.7-0.7,2.6-2.6,1.9-4.4&#10;&#9;&#9;&#9;&#9;C68.2,600.3,66.2,599.4,64.5,600.1z" style="clip-path: url('#SVGID_4_'); fill: rgb(145, 109, 255);"/>
			<path d="M 5.2 750.900024 A 4.4 4.4 0 0 1 0.8 755.300025 A 4.4 4.4 0 0 1 -3.6 750.900024 A 4.4 4.4 0 0 1 0.8 746.500024 A 4.4 4.4 0 0 1 5.2 750.900024 Z" class="st7" style="clip-path: url('#SVGID_4_'); fill: rgb(92, 189, 109);"/>
			<path d="M 706.500012 161.300003 A 10.3 10.3 0 0 1 696.200012 171.600003 A 10.3 10.3 0 0 1 685.900012 161.300003 A 10.3 10.3 0 0 1 696.200012 151.000003 A 10.3 10.3 0 0 1 706.500012 161.300003 Z" class="st10" style="clip-path: url('#SVGID_4_'); fill: rgb(254, 180, 29);"/>
			<path d="M 63.200001 327.5 A 5 5 0 0 1 58.200001 332.5 A 5 5 0 0 1 53.200001 327.5 A 5 5 0 0 1 58.200001 322.5 A 5 5 0 0 1 63.200001 327.5 Z" class="st8" style="clip-path: url('#SVGID_4_'); fill: rgb(115, 207, 215);"/>
			<path class="st10" d="M1044.4,23.3c1.5,1,3.7,0.6,4.7-0.9c1-1.5,0.6-3.7-0.9-4.7c-1.5-1-3.7-0.6-4.7,0.9&#10;&#9;&#9;&#9;&#9;C1042.5,20.1,1042.9,22.2,1044.4,23.3z" style="clip-path: url('#SVGID_4_'); fill: rgb(254, 180, 29);"/>
			<path class="st9" d="M57,284.4c2.5-1.1,3.6-4.1,2.4-6.6c-1.1-2.5-4.1-3.6-6.6-2.4c-0.3,0.1-0.6,0.3-0.8,0.5v8&#10;&#9;&#9;&#9;&#9;C53.4,284.9,55.3,285.2,57,284.4z" style="clip-path: url('#SVGID_4_'); fill: rgb(145, 109, 255);"/>
			<path class="st10" d="M710.4,15.7c1.3-0.6,1.9-2.1,1.3-3.4c-0.6-1.3-2.1-1.9-3.4-1.3c-1.3,0.6-1.9,2.1-1.3,3.4&#10;&#9;&#9;&#9;&#9;C707.6,15.7,709.1,16.3,710.4,15.7z" style="clip-path: url('#SVGID_4_'); fill: rgb(254, 180, 29);"/>
			<path d="M 1037.6 71.300003 A 16.6 16.6 0 0 1 1021 87.900003 A 16.6 16.6 0 0 1 1004.4 71.300003 A 16.6 16.6 0 0 1 1021 54.700003 A 16.6 16.6 0 0 1 1037.6 71.300003 Z" class="st8" style="clip-path: url('#SVGID_4_'); fill: rgb(115, 207, 215);"/>
			<path d="M 42.099999 710.299988 A 6.3 6.3 0 0 1 35.799999 716.599988 A 6.3 6.3 0 0 1 29.499999 710.299988 A 6.3 6.3 0 0 1 35.799999 703.999988 A 6.3 6.3 0 0 1 42.099999 710.299988 Z" class="st5" style="clip-path: url('#SVGID_4_'); fill: rgb(0, 159, 227);"/>
			<path class="st10" d="M249.9,706.4c-3.8,8.9,0.3,19.2,9.2,22.9c8.9,3.8,19.2-0.4,22.9-9.2c3.8-8.9-0.4-19.2-9.2-22.9&#10;&#9;&#9;&#9;&#9;C264,693.4,253.7,697.5,249.9,706.4z" style="clip-path: url('#SVGID_4_'); fill: rgb(254, 180, 29);"/>
			<path class="st8" d="M1065.3,662.3c5.7,2.4,12.2-0.2,14.6-5.9c2.4-5.7-0.2-12.2-5.9-14.6c-5.7-2.4-12.2,0.2-14.6,5.9&#10;&#9;&#9;&#9;&#9;C1057,653.3,1059.6,659.9,1065.3,662.3z" style="clip-path: url('#SVGID_4_'); fill: rgb(115, 207, 215);"/>
			<path d="M 993.399988 632.299988 A 24.1 24.1 0 0 1 969.299988 656.399988 A 24.1 24.1 0 0 1 945.199987 632.299988 A 24.1 24.1 0 0 1 969.299988 608.199987 A 24.1 24.1 0 0 1 993.399988 632.299988 Z" class="st9" style="clip-path: url('#SVGID_4_'); fill: rgb(145, 109, 255);"/>
			<path d="M 776.999976 267.899994 A 3.4 3.4 0 0 1 773.599976 271.299994 A 3.4 3.4 0 0 1 770.199975 267.899994 A 3.4 3.4 0 0 1 773.599976 264.499994 A 3.4 3.4 0 0 1 776.999976 267.899994 Z" class="st9" style="clip-path: url('#SVGID_4_'); fill: rgb(145, 109, 255);"/>
			<path d="M 315.300013 590.900024 A 24.1 24.1 0 0 1 291.200012 615.000025 A 24.1 24.1 0 0 1 267.100012 590.900024 A 24.1 24.1 0 0 1 291.200012 566.800024 A 24.1 24.1 0 0 1 315.300013 590.900024 Z" class="st4" style="clip-path: url('#SVGID_4_'); fill: rgb(255, 127, 131);"/>
			<path d="M 933.600012 776.599976 A 13.4 13.4 0 0 1 920.200012 789.999975 A 13.4 13.4 0 0 1 906.800013 776.599976 A 13.4 13.4 0 0 1 920.200012 763.199976 A 13.4 13.4 0 0 1 933.600012 776.599976 Z" class="st6" style="clip-path: url('#SVGID_4_'); fill: rgb(235, 90, 106);"/>
			<path d="M 935.000025 206.899994 A 17.6 17.6 0 0 1 917.400024 224.499994 A 17.6 17.6 0 0 1 899.800024 206.899994 A 17.6 17.6 0 0 1 917.400024 189.299994 A 17.6 17.6 0 0 1 935.000025 206.899994 Z" class="st7" style="clip-path: url('#SVGID_4_'); fill: rgb(92, 189, 109);"/>
			<path d="M 973.1 498.799988 A 10.6 10.6 0 0 1 962.5 509.399988 A 10.6 10.6 0 0 1 951.9 498.799988 A 10.6 10.6 0 0 1 962.5 488.199987 A 10.6 10.6 0 0 1 973.1 498.799988 Z" class="st9" style="clip-path: url('#SVGID_4_'); fill: rgb(145, 109, 255);"/>
			<path d="M 379.700012 510.100006 A 17.5 17.5 0 0 1 362.200012 527.600006 A 17.5 17.5 0 0 1 344.700012 510.100006 A 17.5 17.5 0 0 1 362.200012 492.600006 A 17.5 17.5 0 0 1 379.700012 510.100006 Z" class="st7" style="clip-path: url('#SVGID_4_'); fill: rgb(92, 189, 109);"/>
			<path class="st11" d="M898.5,748.9c9.6-12.6,7.2-30.6-5.4-40.2c-12.6-9.6-30.6-7.2-40.2,5.4c-9.6,12.6-7.2,30.6,5.4,40.2&#10;&#9;&#9;&#9;&#9;C870.8,763.9,888.9,761.5,898.5,748.9z" style="clip-path: url('#SVGID_4_'); fill: rgb(226, 2, 63);"/>
			<path d="M 255.099997 74.400002 A 6.4 6.4 0 0 1 248.699997 80.800002 A 6.4 6.4 0 0 1 242.299997 74.400002 A 6.4 6.4 0 0 1 248.699997 68.000001 A 6.4 6.4 0 0 1 255.099997 74.400002 Z" class="st8" style="clip-path: url('#SVGID_4_'); fill: rgb(115, 207, 215);"/>
			<path d="M 834.799988 777.5 A 17.5 17.5 0 0 1 817.299988 795 A 17.5 17.5 0 0 1 799.799988 777.5 A 17.5 17.5 0 0 1 817.299988 760 A 17.5 17.5 0 0 1 834.799988 777.5 Z" class="st10" style="clip-path: url('#SVGID_4_'); fill: rgb(254, 180, 29);"/>
			<path class="st5" d="M871.5,663.9c1.5-1.9,1.1-4.7-0.8-6.2c-1.9-1.5-4.7-1.1-6.2,0.8c-1.5,1.9-1.1,4.7,0.8,6.2&#10;&#9;&#9;&#9;&#9;C867.2,666.2,870,665.9,871.5,663.9z" style="clip-path: url('#SVGID_4_'); fill: rgb(0, 159, 227);"/>
			<path d="M 958.9 31.200001 A 13.4 13.4 0 0 1 945.5 44.6 A 13.4 13.4 0 0 1 932.1 31.200001 A 13.4 13.4 0 0 1 945.5 17.800001 A 13.4 13.4 0 0 1 958.9 31.200001 Z" class="st11" style="clip-path: url('#SVGID_4_'); fill: rgb(226, 2, 63);"/>
			<path d="M 819.699988 661.5 A 6.4 6.4 0 0 1 813.299988 667.9 A 6.4 6.4 0 0 1 806.899988 661.5 A 6.4 6.4 0 0 1 813.299988 655.1 A 6.4 6.4 0 0 1 819.699988 661.5 Z" class="st9" style="clip-path: url('#SVGID_4_'); fill: rgb(145, 109, 255);"/>
			<path d="M 354.199994 693.799988 A 5.8 5.8 0 0 1 348.399994 699.599988 A 5.8 5.8 0 0 1 342.599994 693.799988 A 5.8 5.8 0 0 1 348.399994 687.999988 A 5.8 5.8 0 0 1 354.199994 693.799988 Z" class="st5" style="clip-path: url('#SVGID_4_'); fill: rgb(0, 159, 227);"/>
			<path d="M 739.699987 769.799988 A 13.4 13.4 0 0 1 726.299988 783.199987 A 13.4 13.4 0 0 1 712.899988 769.799988 A 13.4 13.4 0 0 1 726.299988 756.399988 A 13.4 13.4 0 0 1 739.699987 769.799988 Z" class="st10" style="clip-path: url('#SVGID_4_'); fill: rgb(254, 180, 29);"/>
			<path d="M 624.499975 782.799988 A 13.4 13.4 0 0 1 611.099976 796.199987 A 13.4 13.4 0 0 1 597.699976 782.799988 A 13.4 13.4 0 0 1 611.099976 769.399988 A 13.4 13.4 0 0 1 624.499975 782.799988 Z" class="st11" style="clip-path: url('#SVGID_4_'); fill: rgb(226, 2, 63);"/>
			<path d="M 820.4 403.100006 A 6.4 6.4 0 0 1 814 409.500006 A 6.4 6.4 0 0 1 807.6 403.100006 A 6.4 6.4 0 0 1 814 396.700006 A 6.4 6.4 0 0 1 820.4 403.100006 Z" class="st9" style="clip-path: url('#SVGID_4_'); fill: rgb(145, 109, 255);"/>
			<path d="M 819.700025 730.599976 A 5.8 5.8 0 0 1 813.900024 736.399976 A 5.8 5.8 0 0 1 808.100024 730.599976 A 5.8 5.8 0 0 1 813.900024 724.799975 A 5.8 5.8 0 0 1 819.700025 730.599976 Z" class="st5" style="clip-path: url('#SVGID_4_'); fill: rgb(0, 159, 227);"/>
			<path d="M 949.4 587.200012 A 4.4 4.4 0 0 1 945 591.600012 A 4.4 4.4 0 0 1 940.6 587.200012 A 4.4 4.4 0 0 1 945 582.800012 A 4.4 4.4 0 0 1 949.4 587.200012 Z" class="st7" style="clip-path: url('#SVGID_4_'); fill: rgb(92, 189, 109);"/>
			<path d="M 546.899976 20.5 A 10.3 10.3 0 0 1 536.599976 30.8 A 10.3 10.3 0 0 1 526.299975 20.5 A 10.3 10.3 0 0 1 536.599976 10.2 A 10.3 10.3 0 0 1 546.899976 20.5 Z" class="st10" style="clip-path: url('#SVGID_4_'); fill: rgb(254, 180, 29);"/>
			<path d="M 84.400002 531.799988 A 5 5 0 0 1 79.400002 536.799988 A 5 5 0 0 1 74.400002 531.799988 A 5 5 0 0 1 79.400002 526.799988 A 5 5 0 0 1 84.400002 531.799988 Z" class="st8" style="clip-path: url('#SVGID_4_'); fill: rgb(115, 207, 215);"/>
			<path class="st10" d="M619.5,707.3c1-1.5,0.6-3.7-0.9-4.7c-1.5-1.1-3.7-0.6-4.7,0.9c-1,1.5-0.6,3.7,0.9,4.7&#10;&#9;&#9;&#9;&#9;C616.4,709.2,618.5,708.8,619.5,707.3z" style="clip-path: url('#SVGID_4_'); fill: rgb(254, 180, 29);"/>
			<path d="M 777 753.200012 A 5 5 0 0 1 772 758.200012 A 5 5 0 0 1 767 753.200012 A 5 5 0 0 1 772 748.200012 A 5 5 0 0 1 777 753.200012 Z" class="st9" style="clip-path: url('#SVGID_4_'); fill: rgb(145, 109, 255);"/>
			<path d="M 1010.500025 788.5 A 16.6 16.6 0 0 1 993.900024 805.1 A 16.6 16.6 0 0 1 977.300024 788.5 A 16.6 16.6 0 0 1 993.900024 771.9 A 16.6 16.6 0 0 1 1010.500025 788.5 Z" class="st8" style="clip-path: url('#SVGID_4_'); fill: rgb(115, 207, 215);"/>
			<path class="st7" d="M757.1,705.9c2.1,6.8,9.4,10.6,16.2,8.5c6.8-2.1,10.6-9.4,8.5-16.2c-2.1-6.8-9.4-10.6-16.2-8.5&#10;&#9;&#9;&#9;&#9;C758.7,691.9,754.9,699.1,757.1,705.9z" style="clip-path: url('#SVGID_4_'); fill: rgb(92, 189, 109);"/>
			<path d="M 1067.600049 310.200012 A 6.3 6.3 0 0 1 1061.300049 316.500012 A 6.3 6.3 0 0 1 1055.000049 310.200012 A 6.3 6.3 0 0 1 1061.300049 303.900012 A 6.3 6.3 0 0 1 1067.600049 310.200012 Z" class="st5" style="clip-path: url('#SVGID_4_'); fill: rgb(0, 159, 227);"/>
			<path class="st8" d="M1073.2,771.9c-2.8,6.6,0.3,14.2,6.8,16.9c6.6,2.8,14.2-0.3,16.9-6.8c2.8-6.6-0.3-14.2-6.8-17&#10;&#9;&#9;&#9;&#9;C1083.5,762.3,1075.9,765.4,1073.2,771.9z" style="clip-path: url('#SVGID_4_'); fill: rgb(115, 207, 215);"/>
			<path class="st10" d="M727.1,13.5c3.8-8.9-0.4-19.2-9.2-22.9c-8.9-3.8-19.2,0.4-22.9,9.2c-3.8,8.9,0.3,19.2,9.2,22.9&#10;&#9;&#9;&#9;&#9;C713.1,26.5,723.3,22.4,727.1,13.5z" style="clip-path: url('#SVGID_4_'); fill: rgb(254, 180, 29);"/>
			<path d="M 1034.100012 733.200012 A 13.4 13.4 0 0 1 1020.700012 746.600012 A 13.4 13.4 0 0 1 1007.300013 733.200012 A 13.4 13.4 0 0 1 1020.700012 719.800013 A 13.4 13.4 0 0 1 1034.100012 733.200012 Z" class="st10" style="clip-path: url('#SVGID_4_'); fill: rgb(254, 180, 29);"/>
			<path class="st8" d="M1024.3,633.6c5.7,2.4,12.2-0.2,14.6-5.9c2.4-5.7-0.2-12.2-5.9-14.6c-5.7-2.4-12.2,0.2-14.6,5.9&#10;&#9;&#9;&#9;&#9;C1016,624.6,1018.7,631.2,1024.3,633.6z" style="clip-path: url('#SVGID_4_'); fill: rgb(115, 207, 215);"/>
			<path d="M 1057.599951 684.799988 A 3.4 3.4 0 0 1 1054.199951 688.199988 A 3.4 3.4 0 0 1 1050.799951 684.799988 A 3.4 3.4 0 0 1 1054.199951 681.399988 A 3.4 3.4 0 0 1 1057.599951 684.799988 Z" class="st10" style="clip-path: url('#SVGID_4_'); fill: rgb(254, 180, 29);"/>
			<path d="M 933.199987 687.599976 A 13.4 13.4 0 0 1 919.799988 700.999975 A 13.4 13.4 0 0 1 906.399988 687.599976 A 13.4 13.4 0 0 1 919.799988 674.199976 A 13.4 13.4 0 0 1 933.199987 687.599976 Z" class="st11" style="clip-path: url('#SVGID_4_'); fill: rgb(226, 2, 63);"/>
			<path class="st10" d="M1130.8,711.7c-7.5-3.2-16.2,0.3-19.4,7.8c-3.2,7.5,0.3,16.2,7.8,19.4c7.5,3.2,16.2-0.3,19.4-7.8&#10;&#9;&#9;&#9;&#9;C1141.8,723.6,1138.3,714.9,1130.8,711.7z" style="clip-path: url('#SVGID_4_'); fill: rgb(254, 180, 29);"/>
			<path d="M 1112.799952 541.700012 A 24.1 24.1 0 0 1 1088.699951 565.800013 A 24.1 24.1 0 0 1 1064.599951 541.700012 A 24.1 24.1 0 0 1 1088.699951 517.600012 A 24.1 24.1 0 0 1 1112.799952 541.700012 Z" class="st4" style="clip-path: url('#SVGID_4_'); fill: rgb(255, 127, 131);"/>
			<path d="M 1143.099976 646.599976 A 14.5 14.5 0 0 1 1128.599976 661.099976 A 14.5 14.5 0 0 1 1114.099976 646.599976 A 14.5 14.5 0 0 1 1128.599976 632.099976 A 14.5 14.5 0 0 1 1143.099976 646.599976 Z" class="st5" style="clip-path: url('#SVGID_4_'); fill: rgb(0, 159, 227);"/>
			<path d="M 1060.800024 114.5 A 13.4 13.4 0 0 1 1047.400024 127.9 A 13.4 13.4 0 0 1 1034.000025 114.5 A 13.4 13.4 0 0 1 1047.400024 101.1 A 13.4 13.4 0 0 1 1060.800024 114.5 Z" class="st6" style="clip-path: url('#SVGID_4_'); fill: rgb(235, 90, 106);"/>
			<path class="st8" d="M1067,374.1c6.8,2.3,14.1-1.3,16.4-8.1c2.3-6.8-1.3-14.1-8.1-16.4c-6.8-2.3-14.1,1.3-16.4,8.1&#10;&#9;&#9;&#9;&#9;C1056.6,364.5,1060.3,371.8,1067,374.1z" style="clip-path: url('#SVGID_4_'); fill: rgb(115, 207, 215);"/>
			<path d="M 1072.199976 418.899994 A 17.6 17.6 0 0 1 1054.599976 436.499994 A 17.6 17.6 0 0 1 1036.999975 418.899994 A 17.6 17.6 0 0 1 1054.599976 401.299994 A 17.6 17.6 0 0 1 1072.199976 418.899994 Z" class="st7" style="clip-path: url('#SVGID_4_'); fill: rgb(92, 189, 109);"/>
			<path d="M 1090.900049 167.899994 A 10.6 10.6 0 0 1 1080.300049 178.499994 A 10.6 10.6 0 0 1 1069.700048 167.899994 A 10.6 10.6 0 0 1 1080.300049 157.299994 A 10.6 10.6 0 0 1 1090.900049 167.899994 Z" class="st9" style="clip-path: url('#SVGID_4_'); fill: rgb(145, 109, 255);"/>
			<path d="M 1042.900024 202 A 17.5 17.5 0 0 1 1025.400024 219.5 A 17.5 17.5 0 0 1 1007.900024 202 A 17.5 17.5 0 0 1 1025.400024 184.5 A 17.5 17.5 0 0 1 1042.900024 202 Z" class="st7" style="clip-path: url('#SVGID_4_'); fill: rgb(92, 189, 109);"/>
			<path d="M 1018.499975 284.799988 A 13.4 13.4 0 0 1 1005.099976 298.199987 A 13.4 13.4 0 0 1 991.699976 284.799988 A 13.4 13.4 0 0 1 1005.099976 271.399988 A 13.4 13.4 0 0 1 1018.499975 284.799988 Z" class="st10" style="clip-path: url('#SVGID_4_'); fill: rgb(254, 180, 29);"/>
			<path d="M 1097.400024 255.300003 A 17.5 17.5 0 0 1 1079.900024 272.800003 A 17.5 17.5 0 0 1 1062.400024 255.300003 A 17.5 17.5 0 0 1 1079.900024 237.800003 A 17.5 17.5 0 0 1 1097.400024 255.300003 Z" class="st11" style="clip-path: url('#SVGID_4_'); fill: rgb(226, 2, 63);"/>
			<path class="st5" d="M1093.9,614.8c1.5-1.9,1.1-4.7-0.8-6.2c-1.9-1.5-4.7-1.1-6.2,0.8c-1.5,1.9-1.1,4.7,0.8,6.2&#10;&#9;&#9;&#9;&#9;C1089.7,617,1092.5,616.7,1093.9,614.8z" style="clip-path: url('#SVGID_4_'); fill: rgb(0, 159, 227);"/>
			<path d="M 987.300024 380.799988 A 13.4 13.4 0 0 1 973.900024 394.199987 A 13.4 13.4 0 0 1 960.500025 380.799988 A 13.4 13.4 0 0 1 973.900024 367.399988 A 13.4 13.4 0 0 1 987.300024 380.799988 Z" class="st11" style="clip-path: url('#SVGID_4_'); fill: rgb(226, 2, 63);"/>
			<path d="M 1006.199988 516.299988 A 6.4 6.4 0 0 1 999.799988 522.699988 A 6.4 6.4 0 0 1 993.399988 516.299988 A 6.4 6.4 0 0 1 999.799988 509.899988 A 6.4 6.4 0 0 1 1006.199988 516.299988 Z" class="st9" style="clip-path: url('#SVGID_4_'); fill: rgb(145, 109, 255);"/>
			<path class="st10" d="M1010.7,567.3c-1.1,1.5-0.8,3.6,0.6,4.7c1.5,1.1,3.6,0.8,4.7-0.6c1.1-1.5,0.8-3.6-0.6-4.7&#10;&#9;&#9;&#9;&#9;C1014,565.5,1011.9,565.8,1010.7,567.3z" style="clip-path: url('#SVGID_4_'); fill: rgb(254, 180, 29);"/>
			<path d="M 990.700025 568.599976 A 5.8 5.8 0 0 1 984.900024 574.399976 A 5.8 5.8 0 0 1 979.100024 568.599976 A 5.8 5.8 0 0 1 984.900024 562.799975 A 5.8 5.8 0 0 1 990.700025 568.599976 Z" class="st5" style="clip-path: url('#SVGID_4_'); fill: rgb(0, 159, 227);"/>
			<path d="M 1069.200048 478.600006 A 13.4 13.4 0 0 1 1055.800049 492.000006 A 13.4 13.4 0 0 1 1042.400049 478.600006 A 13.4 13.4 0 0 1 1055.800049 465.200006 A 13.4 13.4 0 0 1 1069.200048 478.600006 Z" class="st10" style="clip-path: url('#SVGID_4_'); fill: rgb(254, 180, 29);"/>
			<path d="M 911.100012 490.100006 A 13.4 13.4 0 0 1 897.700012 503.500006 A 13.4 13.4 0 0 1 884.300013 490.100006 A 13.4 13.4 0 0 1 897.700012 476.700006 A 13.4 13.4 0 0 1 911.100012 490.100006 Z" class="st11" style="clip-path: url('#SVGID_4_'); fill: rgb(226, 2, 63);"/>
			<path class="st10" d="M1032.2,245.3c-1.7,0.7-2.6,2.6-1.9,4.4c0.7,1.7,2.6,2.6,4.4,1.9c1.7-0.7,2.6-2.6,1.9-4.4&#10;&#9;&#9;&#9;&#9;C1035.9,245.5,1033.9,244.6,1032.2,245.3z" style="clip-path: url('#SVGID_4_'); fill: rgb(254, 180, 29);"/>
			<path d="M 1019.899976 328.600006 A 5.8 5.8 0 0 1 1014.099976 334.400006 A 5.8 5.8 0 0 1 1008.299975 328.600006 A 5.8 5.8 0 0 1 1014.099976 322.800006 A 5.8 5.8 0 0 1 1019.899976 328.600006 Z" class="st5" style="clip-path: url('#SVGID_4_'); fill: rgb(0, 159, 227);"/>
			<path class="st9" d="M1123.4,580.2c-1.7,0.7-2.6,2.6-1.9,4.4c0.7,1.7,2.6,2.6,4.4,1.9c1.7-0.7,2.6-2.6,1.9-4.4&#10;&#9;&#9;&#9;&#9;C1127.1,580.3,1125.2,579.5,1123.4,580.2z" style="clip-path: url('#SVGID_4_'); fill: rgb(145, 109, 255);"/>
			<path class="st9" d="M937.4,720.2c-1.7,0.7-2.6,2.6-1.9,4.4c0.7,1.7,2.6,2.6,4.4,1.9c1.7-0.7,2.6-2.6,1.9-4.4&#10;&#9;&#9;&#9;&#9;C941.1,720.3,939.2,719.5,937.4,720.2z" style="clip-path: url('#SVGID_4_'); fill: rgb(145, 109, 255);"/>
			<path d="M 1071.800025 731 A 4.4 4.4 0 0 1 1067.400024 735.4 A 4.4 4.4 0 0 1 1063.000024 731 A 4.4 4.4 0 0 1 1067.400024 726.6 A 4.4 4.4 0 0 1 1071.800025 731 Z" class="st7" style="clip-path: url('#SVGID_4_'); fill: rgb(92, 189, 109);"/>
			<path d="M 849.700025 683.700012 A 10.3 10.3 0 0 1 839.400024 694.000012 A 10.3 10.3 0 0 1 829.100024 683.700012 A 10.3 10.3 0 0 1 839.400024 673.400012 A 10.3 10.3 0 0 1 849.700025 683.700012 Z" class="st10" style="clip-path: url('#SVGID_4_'); fill: rgb(254, 180, 29);"/>
			<path d="M 925.5 637.799988 A 5 5 0 0 1 920.5 642.799988 A 5 5 0 0 1 915.5 637.799988 A 5 5 0 0 1 920.5 632.799988 A 5 5 0 0 1 925.5 637.799988 Z" class="st8" style="clip-path: url('#SVGID_4_'); fill: rgb(115, 207, 215);"/>
			<path class="st10" d="M932.7,526.9c-1,1.5-0.6,3.7,0.9,4.7c1.5,1,3.7,0.6,4.7-0.9c1-1.5,0.6-3.7-0.9-4.7&#10;&#9;&#9;&#9;&#9;C935.8,524.9,933.7,525.3,932.7,526.9z" style="clip-path: url('#SVGID_4_'); fill: rgb(254, 180, 29);"/>
			<path d="M 971 632.799988 A 5 5 0 0 1 966 637.799988 A 5 5 0 0 1 961 632.799988 A 5 5 0 0 1 966 627.799988 A 5 5 0 0 1 971 632.799988 Z" class="st9" style="clip-path: url('#SVGID_4_'); fill: rgb(145, 109, 255);"/>
			<path d="M 974.699975 705.200012 A 2.6 2.6 0 0 1 972.099976 707.800012 A 2.6 2.6 0 0 1 969.499976 705.200012 A 2.6 2.6 0 0 1 972.099976 702.600012 A 2.6 2.6 0 0 1 974.699975 705.200012 Z" class="st10" style="clip-path: url('#SVGID_4_'); fill: rgb(254, 180, 29);"/>
			<path d="M 971.200025 747.700012 A 6.3 6.3 0 0 1 964.900024 754.000012 A 6.3 6.3 0 0 1 958.600024 747.700012 A 6.3 6.3 0 0 1 964.900024 741.400012 A 6.3 6.3 0 0 1 971.200025 747.700012 Z" class="st5" style="clip-path: url('#SVGID_4_'); fill: rgb(0, 159, 227);"/>
			<path class="st5" d="M1010.2,8.7c-3.9,2.3-5.2,7.4-2.9,11.3c2.3,3.9,7.4,5.2,11.3,2.9c3.9-2.3,5.2-7.4,2.9-11.3&#10;&#9;&#9;&#9;&#9;C1019.2,7.6,1014.1,6.4,1010.2,8.7z" style="clip-path: url('#SVGID_4_'); fill: rgb(0, 159, 227);"/>
			<path d="M 1117.899975 46.599998 A 31.299999 31.299999 0 0 1 1086.599976 77.899998 A 31.299999 31.299999 0 0 1 1055.299976 46.599998 A 31.299999 31.299999 0 0 1 1086.599976 15.299999 A 31.299999 31.299999 0 0 1 1117.899975 46.599998 Z" class="st9" style="clip-path: url('#SVGID_4_'); fill: rgb(145, 109, 255);"/>
			<path d="M 956.699988 300.299988 A 6.4 6.4 0 0 1 950.299988 306.699988 A 6.4 6.4 0 0 1 943.899988 300.299988 A 6.4 6.4 0 0 1 950.299988 293.899988 A 6.4 6.4 0 0 1 956.699988 300.299988 Z" class="st9" style="clip-path: url('#SVGID_4_'); fill: rgb(145, 109, 255);"/>
			<path class="st5" d="M1019.5,679.6c2.1-1.2,2.8-3.9,1.5-6c-1.2-2.1-3.9-2.8-6-1.5c-2.1,1.2-2.8,3.9-1.5,6&#10;&#9;&#9;&#9;&#9;C1014.7,680.2,1017.4,680.8,1019.5,679.6z" style="clip-path: url('#SVGID_4_'); fill: rgb(0, 159, 227);"/>
			<path d="M 471.5 34.299999 A 14.5 14.5 0 0 1 457 48.799999 A 14.5 14.5 0 0 1 442.5 34.299999 A 14.5 14.5 0 0 1 457 19.799999 A 14.5 14.5 0 0 1 471.5 34.299999 Z" class="st5" style="clip-path: url('#SVGID_4_'); fill: rgb(0, 159, 227);"/>
			<path d="M 568.600012 422.600006 A 12.9 12.9 0 0 1 555.700012 435.500006 A 12.9 12.9 0 0 1 542.800013 422.600006 A 12.9 12.9 0 0 1 555.700012 409.700006 A 12.9 12.9 0 0 1 568.600012 422.600006 Z" class="st7" style="clip-path: url('#SVGID_4_'); fill: rgb(92, 189, 109);"/>
			<path d="M 177.499994 758.200012 A 17.6 17.6 0 0 1 159.899994 775.800013 A 17.6 17.6 0 0 1 142.299994 758.200012 A 17.6 17.6 0 0 1 159.899994 740.600012 A 17.6 17.6 0 0 1 177.499994 758.200012 Z" class="st7" style="clip-path: url('#SVGID_4_'); fill: rgb(92, 189, 109);"/>
			<path d="M 320.599994 17.9 A 5.7 5.7 0 0 1 314.899994 23.599999 A 5.7 5.7 0 0 1 309.199994 17.9 A 5.7 5.7 0 0 1 314.899994 12.2 A 5.7 5.7 0 0 1 320.599994 17.9 Z" class="st8" style="clip-path: url('#SVGID_4_'); fill: rgb(115, 207, 215);"/>
			<path d="M 620.600012 64.300003 A 6.4 6.4 0 0 1 614.200012 70.700003 A 6.4 6.4 0 0 1 607.800012 64.300003 A 6.4 6.4 0 0 1 614.200012 57.900003 A 6.4 6.4 0 0 1 620.600012 64.300003 Z" class="st8" style="clip-path: url('#SVGID_4_'); fill: rgb(115, 207, 215);"/>
			<path class="st5" d="M515.8,714.8c-2.2-1-4.8,0.1-5.8,2.3c-0.9,2.2,0.1,4.8,2.3,5.8c2.2,1,4.8-0.1,5.8-2.3&#10;&#9;&#9;&#9;&#9;C519,718.4,518,715.8,515.8,714.8z" style="clip-path: url('#SVGID_4_'); fill: rgb(0, 159, 227);"/>
			<path d="M 267.400006 760.900024 A 5.8 5.8 0 0 1 261.600006 766.700025 A 5.8 5.8 0 0 1 255.800006 760.900024 A 5.8 5.8 0 0 1 261.600006 755.100024 A 5.8 5.8 0 0 1 267.400006 760.900024 Z" class="st5" style="clip-path: url('#SVGID_4_'); fill: rgb(0, 159, 227);"/>
			<path d="M 424.600012 739.599976 A 6.4 6.4 0 0 1 418.200012 745.999976 A 6.4 6.4 0 0 1 411.800012 739.599976 A 6.4 6.4 0 0 1 418.200012 733.199975 A 6.4 6.4 0 0 1 424.600012 739.599976 Z" class="st9" style="clip-path: url('#SVGID_4_'); fill: rgb(145, 109, 255);"/>
			<path d="M 490.4 508.399994 A 3.4 3.4 0 0 1 487 511.799994 A 3.4 3.4 0 0 1 483.6 508.399994 A 3.4 3.4 0 0 1 487 504.999994 A 3.4 3.4 0 0 1 490.4 508.399994 Z" class="st10" style="clip-path: url('#SVGID_4_'); fill: rgb(254, 180, 29);"/>
			<path d="M 253.400006 514.5 A 5.8 5.8 0 0 1 247.600006 520.3 A 5.8 5.8 0 0 1 241.800006 514.5 A 5.8 5.8 0 0 1 247.600006 508.7 A 5.8 5.8 0 0 1 253.400006 514.5 Z" class="st5" style="clip-path: url('#SVGID_4_'); fill: rgb(0, 159, 227);"/>
			<path class="st5" d="M561.6,631.7c-1.4-2-4.2-2.4-6.1-1c-2,1.4-2.4,4.2-1,6.1c1.4,2,4.2,2.4,6.1,1&#10;&#9;&#9;&#9;&#9;C562.6,636.4,563,633.7,561.6,631.7z" style="clip-path: url('#SVGID_4_'); fill: rgb(0, 159, 227);"/>
			<path d="M 597.600012 14.8 A 3.4 3.4 0 0 1 594.200012 18.2 A 3.4 3.4 0 0 1 590.800012 14.8 A 3.4 3.4 0 0 1 594.200012 11.4 A 3.4 3.4 0 0 1 597.600012 14.8 Z" class="st9" style="clip-path: url('#SVGID_4_'); fill: rgb(145, 109, 255);"/>
			<path d="M 319.9 504.600006 A 13.4 13.4 0 0 1 306.5 518.000006 A 13.4 13.4 0 0 1 293.1 504.600006 A 13.4 13.4 0 0 1 306.5 491.200006 A 13.4 13.4 0 0 1 319.9 504.600006 Z" class="st11" style="clip-path: url('#SVGID_4_'); fill: rgb(226, 2, 63);"/>
			<path d="M 553.499976 553 A 4.4 4.4 0 0 1 549.099976 557.4 A 4.4 4.4 0 0 1 544.699975 553 A 4.4 4.4 0 0 1 549.099976 548.6 A 4.4 4.4 0 0 1 553.499976 553 Z" class="st7" style="clip-path: url('#SVGID_4_'); fill: rgb(92, 189, 109);"/>
			<path d="M 267.8 28.1 A 6.3 6.3 0 0 1 261.5 34.400001 A 6.3 6.3 0 0 1 255.2 28.1 A 6.3 6.3 0 0 1 261.5 21.8 A 6.3 6.3 0 0 1 267.8 28.1 Z" class="st5" style="clip-path: url('#SVGID_4_'); fill: rgb(0, 159, 227);"/>
			<path class="st8" d="M15,290.1c5.7,2.4,12.2-0.2,14.6-5.9c2.4-5.7-0.2-12.2-5.9-14.6c-5.7-2.4-12.2,0.2-14.6,5.9&#10;&#9;&#9;&#9;&#9;C6.7,281.1,9.3,287.7,15,290.1z" style="clip-path: url('#SVGID_4_'); fill: rgb(115, 207, 215);"/>
			<path d="M 923.000025 67.300003 A 24.1 24.1 0 0 1 898.900024 91.400003 A 24.1 24.1 0 0 1 874.800024 67.300003 A 24.1 24.1 0 0 1 898.900024 43.200003 A 24.1 24.1 0 0 1 923.000025 67.300003 Z" class="st4" style="clip-path: url('#SVGID_4_'); fill: rgb(255, 127, 131);"/>
			<path d="M 908.600012 594.700012 A 12.9 12.9 0 0 1 895.700012 607.600012 A 12.9 12.9 0 0 1 882.800013 594.700012 A 12.9 12.9 0 0 1 895.700012 581.800013 A 12.9 12.9 0 0 1 908.600012 594.700012 Z" class="st8" style="clip-path: url('#SVGID_4_'); fill: rgb(115, 207, 215);"/>
			<path d="M 172.400003 120.699997 A 10.6 10.6 0 0 1 161.800003 131.299997 A 10.6 10.6 0 0 1 151.200003 120.699997 A 10.6 10.6 0 0 1 161.800003 110.099997 A 10.6 10.6 0 0 1 172.400003 120.699997 Z" class="st9" style="clip-path: url('#SVGID_4_'); fill: rgb(145, 109, 255);"/>
			<path d="M 718.200012 715.200012 A 17.5 17.5 0 0 1 700.700012 732.700012 A 17.5 17.5 0 0 1 683.200012 715.200012 A 17.5 17.5 0 0 1 700.700012 697.700012 A 17.5 17.5 0 0 1 718.200012 715.200012 Z" class="st7" style="clip-path: url('#SVGID_4_'); fill: rgb(92, 189, 109);"/>
			<path d="M 276.000006 330.700012 A 13.4 13.4 0 0 1 262.600006 344.100012 A 13.4 13.4 0 0 1 249.200006 330.700012 A 13.4 13.4 0 0 1 262.600006 317.300013 A 13.4 13.4 0 0 1 276.000006 330.700012 Z" class="st10" style="clip-path: url('#SVGID_4_'); fill: rgb(254, 180, 29);"/>
			<path d="M 511.899994 120.199997 A 17.5 17.5 0 0 1 494.399994 137.699997 A 17.5 17.5 0 0 1 476.899994 120.199997 A 17.5 17.5 0 0 1 494.399994 102.699997 A 17.5 17.5 0 0 1 511.899994 120.199997 Z" class="st11" style="clip-path: url('#SVGID_4_'); fill: rgb(226, 2, 63);"/>
			<path d="M 343.100012 88 A 6.4 6.4 0 0 1 336.700012 94.4 A 6.4 6.4 0 0 1 330.300012 88 A 6.4 6.4 0 0 1 336.700012 81.6 A 6.4 6.4 0 0 1 343.100012 88 Z" class="st8" style="clip-path: url('#SVGID_4_'); fill: rgb(115, 207, 215);"/>
			<path d="M 852.4 81.199997 A 3.4 3.4 0 0 1 849 84.599997 A 3.4 3.4 0 0 1 845.6 81.199997 A 3.4 3.4 0 0 1 849 77.799997 A 3.4 3.4 0 0 1 852.4 81.199997 Z" class="st10" style="clip-path: url('#SVGID_4_'); fill: rgb(254, 180, 29);"/>
			<path d="M 30.6 456 A 13.4 13.4 0 0 1 17.200001 469.4 A 13.4 13.4 0 0 1 3.800001 456 A 13.4 13.4 0 0 1 17.200001 442.6 A 13.4 13.4 0 0 1 30.6 456 Z" class="st11" style="clip-path: url('#SVGID_4_'); fill: rgb(226, 2, 63);"/>
			<path d="M 358.100012 336.899994 A 6.4 6.4 0 0 1 351.700012 343.299994 A 6.4 6.4 0 0 1 345.300012 336.899994 A 6.4 6.4 0 0 1 351.700012 330.499994 A 6.4 6.4 0 0 1 358.100012 336.899994 Z" class="st9" style="clip-path: url('#SVGID_4_'); fill: rgb(145, 109, 255);"/>
			<path class="st10" d="M790.7,139.2c-1.7,0.7-2.6,2.6-1.9,4.4c0.7,1.7,2.6,2.6,4.4,1.9c1.7-0.7,2.6-2.6,1.9-4.4&#10;&#9;&#9;&#9;&#9;C794.4,139.3,792.4,138.5,790.7,139.2z" style="clip-path: url('#SVGID_4_'); fill: rgb(254, 180, 29);"/>
			<path d="M 405.400006 219.399994 A 5.8 5.8 0 0 1 399.600006 225.199994 A 5.8 5.8 0 0 1 393.800006 219.399994 A 5.8 5.8 0 0 1 399.600006 213.599994 A 5.8 5.8 0 0 1 405.400006 219.399994 Z" class="st5" style="clip-path: url('#SVGID_4_'); fill: rgb(0, 159, 227);"/>
			<path class="st9" d="M205.1,691.4c1.7-0.7,2.6-2.6,1.9-4.4c-0.7-1.7-2.6-2.6-4.4-1.9c-1.7,0.7-2.6,2.6-1.9,4.4&#10;&#9;&#9;&#9;&#9;C201.4,691.2,203.4,692.1,205.1,691.4z" style="clip-path: url('#SVGID_4_'); fill: rgb(145, 109, 255);"/>
			<path d="M 263.100012 438 A 4.4 4.4 0 0 1 258.700012 442.4 A 4.4 4.4 0 0 1 254.300012 438 A 4.4 4.4 0 0 1 258.700012 433.6 A 4.4 4.4 0 0 1 263.100012 438 Z" class="st7" style="clip-path: url('#SVGID_4_'); fill: rgb(92, 189, 109);"/>
			<path d="M 32.1 70.599998 A 5 5 0 0 1 27.1 75.599998 A 5 5 0 0 1 22.1 70.599998 A 5 5 0 0 1 27.1 65.599998 A 5 5 0 0 1 32.1 70.599998 Z" class="st8" style="clip-path: url('#SVGID_4_'); fill: rgb(115, 207, 215);"/>
			<path d="M 133.100006 183 A 5 5 0 0 1 128.100006 188 A 5 5 0 0 1 123.100006 183 A 5 5 0 0 1 128.100006 178 A 5 5 0 0 1 133.100006 183 Z" class="st9" style="clip-path: url('#SVGID_4_'); fill: rgb(145, 109, 255);"/>
			<path d="M 743.899976 264.899994 A 6.3 6.3 0 0 1 737.599976 271.199994 A 6.3 6.3 0 0 1 731.299975 264.899994 A 6.3 6.3 0 0 1 737.599976 258.599994 A 6.3 6.3 0 0 1 743.899976 264.899994 Z" class="st5" style="clip-path: url('#SVGID_4_'); fill: rgb(0, 159, 227);"/>
			<path class="st10" d="M993.2,155.1c8.9,3.8,19.2-0.4,22.9-9.2c3.8-8.9-0.4-19.2-9.2-22.9c-8.9-3.8-19.2,0.4-22.9,9.2&#10;&#9;&#9;&#9;&#9;C980.1,141.1,984.3,151.3,993.2,155.1z" style="clip-path: url('#SVGID_4_'); fill: rgb(254, 180, 29);"/>
			<path d="M 57.9 148.100006 A 13.4 13.4 0 0 1 44.5 161.500006 A 13.4 13.4 0 0 1 31.1 148.100006 A 13.4 13.4 0 0 1 44.5 134.700006 A 13.4 13.4 0 0 1 57.9 148.100006 Z" class="st11" style="clip-path: url('#SVGID_4_'); fill: rgb(226, 2, 63);"/>
			<path class="st10" d="M1075.8,288.5c-1.5-1.1-3.6-0.8-4.7,0.6c-1.1,1.5-0.8,3.6,0.6,4.7c1.5,1.1,3.6,0.8,4.7-0.6&#10;&#9;&#9;&#9;&#9;C1077.5,291.7,1077.3,289.6,1075.8,288.5z" style="clip-path: url('#SVGID_4_'); fill: rgb(254, 180, 29);"/>
			<path d="M 1026.699987 452.600006 A 13.4 13.4 0 0 1 1013.299988 466.000006 A 13.4 13.4 0 0 1 999.899988 452.600006 A 13.4 13.4 0 0 1 1013.299988 439.200006 A 13.4 13.4 0 0 1 1026.699987 452.600006 Z" class="st10" style="clip-path: url('#SVGID_4_'); fill: rgb(254, 180, 29);"/>
			<path d="M 1049.199951 565.5 A 5 5 0 0 1 1044.199951 570.5 A 5 5 0 0 1 1039.199951 565.5 A 5 5 0 0 1 1044.199951 560.5 A 5 5 0 0 1 1049.199951 565.5 Z" class="st8" style="clip-path: url('#SVGID_4_'); fill: rgb(115, 207, 215);"/>
			<path d="M 1045.900024 517.900024 A 5 5 0 0 1 1040.900024 522.900024 A 5 5 0 0 1 1035.900024 517.900024 A 5 5 0 0 1 1040.900024 512.900024 A 5 5 0 0 1 1045.900024 517.900024 Z" class="st9" style="clip-path: url('#SVGID_4_'); fill: rgb(145, 109, 255);"/>
			<path d="M 1137.9 134.899994 A 13.4 13.4 0 0 1 1124.5 148.299994 A 13.4 13.4 0 0 1 1111.1 134.899994 A 13.4 13.4 0 0 1 1124.5 121.499994 A 13.4 13.4 0 0 1 1137.9 134.899994 Z" class="st6" style="clip-path: url('#SVGID_4_'); fill: rgb(235, 90, 106);"/>
			<path d="M 736.899988 489.700012 A 10.6 10.6 0 0 1 726.299988 500.300013 A 10.6 10.6 0 0 1 715.699987 489.700012 A 10.6 10.6 0 0 1 726.299988 479.100012 A 10.6 10.6 0 0 1 736.899988 489.700012 Z" class="st9" style="clip-path: url('#SVGID_4_'); fill: rgb(145, 109, 255);"/>
			<path d="M 977.9 98.5 A 6.4 6.4 0 0 1 971.5 104.9 A 6.4 6.4 0 0 1 965.1 98.5 A 6.4 6.4 0 0 1 971.5 92.1 A 6.4 6.4 0 0 1 977.9 98.5 Z" class="st9" style="clip-path: url('#SVGID_4_'); fill: rgb(145, 109, 255);"/>
			<path d="M 981.600012 178.899994 A 3.4 3.4 0 0 1 978.200012 182.299994 A 3.4 3.4 0 0 1 974.800012 178.899994 A 3.4 3.4 0 0 1 978.200012 175.499994 A 3.4 3.4 0 0 1 981.600012 178.899994 Z" class="st10" style="clip-path: url('#SVGID_4_'); fill: rgb(254, 180, 29);"/>
			<path d="M 130.699999 603.200012 A 10.6 10.6 0 0 1 120.099998 613.800013 A 10.6 10.6 0 0 1 109.499998 603.200012 A 10.6 10.6 0 0 1 120.099998 592.600012 A 10.6 10.6 0 0 1 130.699999 603.200012 Z" class="st5" style="clip-path: url('#SVGID_4_'); fill: rgb(0, 159, 227);"/>
			<path class="st5" d="M300.5,135c6.1-0.4,10.8-5.6,10.5-11.8c-0.4-6.1-5.6-10.8-11.8-10.5c-6.1,0.4-10.8,5.6-10.5,11.8&#10;&#9;&#9;&#9;&#9;C289,130.7,294.3,135.4,300.5,135z" style="clip-path: url('#SVGID_4_'); fill: rgb(0, 159, 227);"/>
			<path d="M 155.699997 557.799988 A 5 5 0 0 1 150.699997 562.799988 A 5 5 0 0 1 145.699997 557.799988 A 5 5 0 0 1 150.699997 552.799988 A 5 5 0 0 1 155.699997 557.799988 Z" class="st8" style="clip-path: url('#SVGID_4_'); fill: rgb(115, 207, 215);"/>
			<path d="M 882.5 147.399994 A 5 5 0 0 1 877.5 152.399994 A 5 5 0 0 1 872.5 147.399994 A 5 5 0 0 1 877.5 142.399994 A 5 5 0 0 1 882.5 147.399994 Z" class="st9" style="clip-path: url('#SVGID_4_'); fill: rgb(145, 109, 255);"/>
			<path class="st10" d="M915.1,562.4c5.3-2,8-8,6-13.3c-2-5.3-8-8-13.3-6c-5.3,2-8,8-6,13.3C903.7,561.7,909.7,564.4,915.1,562.4z" style="clip-path: url('#SVGID_4_'); fill: rgb(254, 180, 29);"/>
		</g>
	</g>

</svg>