<?xml version="1.0" encoding="utf-8"?>
<svg id="master-artboard" viewBox="0 0 1650 980" version="1.1" xmlns="http://www.w3.org/2000/svg" x="0px" y="0px" style="enable-background:new 0 0 1400 980;" width="1650px" height="980px" xmlns:xlink="http://www.w3.org/1999/xlink"><rect id="ee-background" x="0" y="0" width="1650" height="980" style="fill: white; fill-opacity: 0; pointer-events: none;"/>

<g transform="matrix(1.2513135671615598, 0, 0, 1.2513135671615598, -102.51342356359214, -247.99957071963644)">
	<defs>
		<path d="M 0 0 H 1400 V 980 H 0 V 0 Z" id="SVGID_1_"/>
	</defs>
	<clipPath id="SVGID_2_">
		<use style="overflow:visible;" xlink:href="#SVGID_1_"/>
	</clipPath>
	<g class="st0" style="clip-path: url('#SVGID_2_');">
		<path class="st1" d="M700,700c0,0-700,453.2-700,460.2c0,7,0,147,0,147L700,700L700,700z" style="fill: rgb(255, 207, 1);"/>
		<path d="M 700 700 L 0 1400 L 0 1307.199951171875 L 700 700 Z" class="st2" style="fill: rgb(178, 210, 53);"/>
		<path d="M 700 700 L 0 1400 L 204.8000030517578 1400 L 700 700 Z" class="st3" style="fill: rgb(161, 122, 148);"/>
		<path d="M 700 700 L 400.20001220703125 1400 L 204.8000030517578 1400 L 700 700 Z" class="st4" style="fill: rgb(225, 228, 60);"/>
		<path d="M 400.20001220703125 1400 L 509.5 1400 L 700 700 Z" class="st5" style="fill: rgb(0, 170, 173);"/>
		<path d="M 509.5 1400 L 643.2000122070312 1400 L 700 700 Z" class="st6" style="fill: rgb(91, 201, 225);"/>
		<path d="M 643.2000122070312 1400 L 740.7000122070312 1400 L 700 700 Z" class="st2" style="fill: rgb(178, 210, 53);"/>
		<path d="M 866.0999755859375 1400 L 740.7000122070312 1400 L 700 700 Z" class="st7" style="fill: rgb(244, 187, 58);"/>
		<path d="M 866.0999755859375 1400 L 1014.7000122070312 1400 L 700 700 Z" class="st8" style="fill: rgb(137, 88, 129);"/>
		<path d="M 1166.699951171875 1400 L 1014.7000122070312 1400 L 700 700 Z" class="st9" style="fill: rgb(232, 30, 38);"/>
		<path d="M 1166.699951171875 1400 L 1312.5 1400 L 700 700 Z" class="st6" style="fill: rgb(91, 201, 225);"/>
		<path d="M 1400 1400 L 1312.5 1400 L 700 700 Z" class="st3" style="fill: rgb(161, 122, 148);"/>
		<path d="M 1400 1400 L 1400 1251.199951171875 L 700 700 Z" class="st5" style="fill: rgb(0, 170, 173);"/>
		<path d="M 1400 1069.199951171875 L 1400 1251.199951171875 L 700 700 Z" class="st3" style="fill: rgb(161, 122, 148);"/>
		<path d="M 1400 1069.199951171875 L 1400 886.5999755859375 L 700 700 Z" class="st6" style="fill: rgb(91, 201, 225);"/>
		<path d="M 1400 783.5999755859375 L 1400 886.5999755859375 L 700 700 Z" class="st9" style="fill: rgb(232, 30, 38);"/>
		<path d="M 1400 783.5999755859375 L 1400 660.2999877929688 L 700 700 Z" class="st6" style="fill: rgb(91, 201, 225);"/>
		<path d="M 1400 537.5999755859375 L 1400 660.2999877929688 L 700 700 Z" class="st9" style="fill: rgb(232, 30, 38);"/>
		<path d="M 1400 537.5999755859375 L 1400 311.70001220703125 L 700 700 Z" class="st8" style="fill: rgb(137, 88, 129);"/>
		<path d="M 1400 143.89999389648438 L 1400 311.70001220703125 L 700 700 Z" class="st6" style="fill: rgb(91, 201, 225);"/>
		<path d="M 1400 143.89999389648438 L 1400 0 L 700 700 Z" class="st7" style="fill: rgb(244, 187, 58);"/>
		<path d="M 1273 0 L 1400 0 L 700 700 Z" class="st2" style="fill: rgb(178, 210, 53);"/>
		<path d="M 1273 0 L 1194.699951171875 0 L 700 700 Z" class="st9" style="fill: rgb(232, 30, 38);"/>
		<path d="M 1064.699951171875 0 L 1194.699951171875 0 L 700 700 Z" class="st5" style="fill: rgb(0, 170, 173);"/>
		<path d="M 1064.699951171875 0 L 971.2000122070312 0 L 700 700 Z" class="st7" style="fill: rgb(244, 187, 58);"/>
		<path d="M 915.7999877929688 0 L 971.2000122070312 0 L 700 700 Z" class="st2" style="fill: rgb(178, 210, 53);"/>
		<path d="M 915.7999877929688 0 L 780 0 L 700 700 Z" class="st9" style="fill: rgb(232, 30, 38);"/>
		<path d="M 712.5999755859375 0 L 780 0 L 700 700 Z" class="st6" style="fill: rgb(91, 201, 225);"/>
		<path d="M 712.5999755859375 0 L 629.7000122070312 0 L 700 700 Z" class="st7" style="fill: rgb(244, 187, 58);"/>
		<path d="M 529.0999755859375 0 L 629.7000122070312 0 L 700 700 Z" class="st5" style="fill: rgb(0, 170, 173);"/>
		<path d="M 529.0999755859375 0 L 466.70001220703125 0 L 700 700 Z" class="st1" style="fill: rgb(255, 207, 1);"/>
		<path d="M 368.5 0 L 466.70001220703125 0 L 700 700 Z" class="st9" style="fill: rgb(232, 30, 38);"/>
		<path d="M 368.5 0 L 284.3999938964844 0 L 700 700 Z" class="st6" style="fill: rgb(91, 201, 225);"/>
		<path d="M 170.8000030517578 0 L 284.3999938964844 0 L 700 700 Z" class="st8" style="fill: rgb(137, 88, 129);"/>
		<path d="M 170.8000030517578 0 L 62.20000076293945 0 L 700 700 Z" class="st2" style="fill: rgb(178, 210, 53);"/>
		<path d="M 0 0 L 62.20000076293945 0 L 700 700 Z" class="st7" style="fill: rgb(244, 187, 58);"/>
		<path d="M 0 0 L 0 130.10000610351562 L 700 700 Z" class="st10" style="fill: rgb(249, 160, 27);"/>
		<path d="M 0 246.6999969482422 L 0 130.10000610351562 L 700 700 Z" class="st4" style="fill: rgb(225, 228, 60);"/>
		<path d="M 0 246.6999969482422 L 0 344.6000061035156 L 700 700 Z" class="st2" style="fill: rgb(178, 210, 53);"/>
		<path d="M 0 444.8999938964844 L 0 344.6000061035156 L 700 700 Z" class="st9" style="fill: rgb(232, 30, 38);"/>
		<path d="M 0 444.8999938964844 L 0 584 L 700 700 Z" class="st5" style="fill: rgb(0, 170, 173);"/>
		<path d="M 0 678.5999755859375 L 0 584 L 700 700 Z" class="st9" style="fill: rgb(232, 30, 38);"/>
		<path d="M 0 678.5999755859375 L 0 777.0999755859375 L 700 700 Z" class="st11" style="fill: rgb(78, 195, 199);"/>
		<path d="M 0 838.9000244140625 L 0 777.0999755859375 L 700 700 Z" class="st2" style="fill: rgb(178, 210, 53);"/>
		<path d="M 0 838.9000244140625 L 0 963.5999755859375 L 700 700 Z" class="st4" style="fill: rgb(225, 228, 60);"/>
		<path d="M 0 1069.199951171875 L 0 963.5999755859375 L 700 700 Z" class="st8" style="fill: rgb(137, 88, 129);"/>
		<path d="M 0 1069.199951171875 L 0 1159.5999755859375 L 700 700 Z" class="st3" style="fill: rgb(161, 122, 148);"/>
	</g>
</g>
<g transform="matrix(1, 0, 0, 1, 25.4293212890625, 29.6676025390625)">
	<g>
		<g>
			<path class="st12" d="M720.6,920.5c0.5,0,1,0.5,1,0.5l-8.9,19c-1,0-3.3,0.1-3.9,0.1c-0.5,0-1-0.5-1-0.5l-3-19&#10;&#9;&#9;&#9;&#9;c1.8,0,4.2-0.1,4.8-0.1c0.5,0,1,0.5,1,0.5l0.9,9.3c0.1,0.8,0.1,1.9,0.1,3.1c0.3-1.3,0.6-2.5,1-3.3l3.7-9.4&#10;&#9;&#9;&#9;&#9;C717.9,920.6,720,920.5,720.6,920.5L720.6,920.5z" style="fill: rgb(255, 255, 255);"/>
		</g>
		<g>
			<path class="st12" d="M729.8,929.8c0,2.1-1.2,3.4-4,4l-3,0.6c0.2,1.3,1.1,1.9,2.4,1.9c1.7,0,2.8-1.3,2.8-1.3s0.8,0.5,0.8,1.4&#10;&#9;&#9;&#9;&#9;c0,1.7-2.6,3.6-5.7,3.6c-3.1,0-5.2-2-5.2-5.3c0-3.8,2.7-9.1,7.6-9.1C728.1,925.9,729.8,927.4,729.8,929.8L729.8,929.8z&#10;&#9;&#9;&#9;&#9; M724.7,931.8c0.6-0.2,0.8-0.7,0.8-1.3c0-0.6-0.2-1.4-0.9-1.4c-1.2,0-1.7,1.9-1.9,3.4L724.7,931.8z" style="fill: rgb(255, 255, 255);"/>
		</g>
		<g>
			<path class="st12" d="M737.9,925.9c2.4,0,4.3,1.3,4.3,3c0,2.1-2.6,2.9-2.6,2.9s-0.7-2.3-2.5-2.3c-1.2,0-1.8,1.2-1.8,3.7&#10;&#9;&#9;&#9;&#9;c0,2.3,0.6,3.3,2.1,3.3c1.5,0,2.5-1,2.5-1s0.9,0.5,0.9,1.4c0,1.7-2.5,3.4-5.5,3.4c-3.2,0-5.1-2-5.1-5.3&#10;&#9;&#9;&#9;&#9;C730.2,931.1,733,925.9,737.9,925.9L737.9,925.9z" style="fill: rgb(255, 255, 255);"/>
		</g>
		<g>
			<path class="st12" d="M749.7,922.8c0.6,0,1,0.5,1,0.5l-0.5,2.9h3.1l-0.7,2.2c-0.2,0.7-0.6,1.1-1.3,1.1h-1.6l-0.9,5.7&#10;&#9;&#9;&#9;&#9;c-0.1,0.9,0.1,1.3,0.7,1.3c0.6,0,1.1-0.3,1.1-0.3s0.9,0.5,0.9,1.4c0,1.4-2,2.8-4.5,2.8c-2.6,0-3.7-1.6-3.3-4.5l1-6.3H743l0.7-2.3&#10;&#9;&#9;&#9;&#9;c0.2-0.6,0.7-1,1.3-1h0.8l1-2.7C748,923.2,749.2,922.8,749.7,922.8L749.7,922.8z" style="fill: rgb(255, 255, 255);"/>
		</g>
		<g>
			<path class="st12" d="M764.6,929.8c0,2.1-1.2,3.4-4,4l-3,0.6c0.2,1.3,1.1,1.9,2.4,1.9c1.7,0,2.8-1.3,2.8-1.3s0.9,0.5,0.9,1.4&#10;&#9;&#9;&#9;&#9;c0,1.7-2.6,3.6-5.7,3.6c-3.1,0-5.2-2-5.2-5.3c0-3.8,2.7-9.1,7.6-9.1C763,925.9,764.6,927.4,764.6,929.8L764.6,929.8z&#10;&#9;&#9;&#9;&#9; M759.5,931.8c0.6-0.2,0.8-0.7,0.8-1.3c0-0.6-0.2-1.4-0.9-1.4c-1.2,0-1.7,1.9-1.9,3.4L759.5,931.8z" style="fill: rgb(255, 255, 255);"/>
		</g>
		<g>
			<path class="st12" d="M776.9,929.8c0,2.1-1.2,3.4-4,4l-3,0.6c0.2,1.3,1.1,1.9,2.4,1.9c1.7,0,2.8-1.3,2.8-1.3s0.9,0.5,0.9,1.4&#10;&#9;&#9;&#9;&#9;c0,1.7-2.6,3.6-5.7,3.6c-3.1,0-5.2-2-5.2-5.3c0-3.8,2.7-9.1,7.6-9.1C775.3,925.9,776.9,927.4,776.9,929.8L776.9,929.8z&#10;&#9;&#9;&#9;&#9; M771.8,931.8c0.6-0.2,0.8-0.7,0.8-1.3c0-0.6-0.2-1.4-0.9-1.4c-1.2,0-1.7,1.9-1.9,3.4L771.8,931.8z" style="fill: rgb(255, 255, 255);"/>
		</g>
		<g>
			<path class="st12" d="M787,935c0,0,1,1,1,2.5c0,2.1-1.8,2.7-3.3,2.7c-2,0-3.4-0.9-4.9-1.4c-0.4,0.5-0.8,1-1.2,1.4&#10;&#9;&#9;&#9;&#9;c0,0-2.2-0.1-2.2-1.6c0-1.8,3.1-5,6.4-8.5c-0.4-0.1-0.7-0.1-1.1-0.1c-1.9,0-2.6,0.9-2.6,0.9s-1-1.1-0.9-2.5c0.1-2,2-2.5,3.5-2.5&#10;&#9;&#9;&#9;&#9;c1.6,0,2.7,0.6,3.9,1.1l0.9-1.1c0,0,2.2,0.1,2.2,1.6c0,1.8-3,4.9-6.2,8.3c0.7,0.2,1.3,0.3,1.9,0.3C786.3,936.1,787,935,787,935&#10;&#9;&#9;&#9;&#9;L787,935z" style="fill: rgb(255, 255, 255);"/>
		</g>
		<g>
			<path class="st12" d="M801.4,939c-0.8,4.8-4.1,7.3-8.3,7.3c-2.7,0-4.7-1.4-4.7-3c0-1.1,0.9-1.6,0.9-1.6s0.9,0.8,2.7,0.8&#10;&#9;&#9;&#9;&#9;c1.7,0,4-0.7,4.4-3.3l0.3-2c-1.1,1.6-2.6,3-4.5,3c-2.1,0-3.1-1.7-2.5-5.3l0.6-3.8c0.4-2.3,0.5-4.3,0.5-4.3c1.5-0.3,3.5-1,4.2-1&#10;&#9;&#9;&#9;&#9;c0.5,0,1,0.5,1,0.5l-0.8,4.8l-0.7,4.4c-0.1,0.4,0,0.6,0.4,0.6c1.8,0,2.8-5.1,2.8-5.1c0.4-2.3,0.5-4.3,0.5-4.3&#10;&#9;&#9;&#9;&#9;c1.5-0.3,3.5-1,4.2-1c0.5,0,1,0.5,1,0.5l-0.8,4.8L801.4,939z" style="fill: rgb(255, 255, 255);"/>
		</g>
	</g>
	<g>
		<path class="st12" d="M596.6,926.6h4.8c1.1,0,1.9,0.1,2.5,0.2c0.8,0.2,1.4,0.6,1.9,1.2c0.5,0.6,0.9,1.3,1.2,2.1&#10;&#9;&#9;&#9;c0.3,0.8,0.4,1.8,0.4,3c0,1.1-0.1,2-0.4,2.7c-0.3,0.9-0.8,1.7-1.4,2.3c-0.5,0.4-1.1,0.8-1.8,1c-0.6,0.2-1.3,0.3-2.3,0.3h-4.9&#10;&#9;&#9;&#9;V926.6z M599.2,928.8v8.5h1.9c0.7,0,1.3,0,1.6-0.1c0.4-0.1,0.8-0.3,1.1-0.5c0.3-0.3,0.5-0.7,0.7-1.2c0.2-0.6,0.3-1.4,0.3-2.4&#10;&#9;&#9;&#9;s-0.1-1.8-0.3-2.3c-0.2-0.5-0.4-0.9-0.7-1.2c-0.3-0.3-0.7-0.5-1.2-0.6c-0.4-0.1-1.1-0.1-2.1-0.1H599.2z" style="fill: rgb(255, 255, 255);"/>
		<path class="st12" d="M614.7,936.5l2.5,0.4c-0.3,0.9-0.8,1.6-1.5,2.1c-0.7,0.5-1.5,0.7-2.6,0.7c-1.6,0-2.8-0.5-3.6-1.6&#10;&#9;&#9;&#9;c-0.6-0.8-0.9-1.9-0.9-3.2c0-1.5,0.4-2.8,1.2-3.6c0.8-0.9,1.8-1.3,3.1-1.3c1.4,0,2.5,0.5,3.3,1.4c0.8,0.9,1.2,2.3,1.2,4.2h-6.2&#10;&#9;&#9;&#9;c0,0.7,0.2,1.3,0.6,1.7c0.4,0.4,0.9,0.6,1.4,0.6c0.4,0,0.7-0.1,1-0.3C614.3,937.4,614.5,937,614.7,936.5z M614.8,934.1&#10;&#9;&#9;&#9;c0-0.7-0.2-1.3-0.6-1.6c-0.4-0.4-0.8-0.6-1.3-0.6c-0.5,0-1,0.2-1.3,0.6c-0.4,0.4-0.5,0.9-0.5,1.6H614.8z" style="fill: rgb(255, 255, 255);"/>
		<path class="st12" d="M618,936.9l2.5-0.4c0.1,0.5,0.3,0.8,0.6,1.1c0.3,0.2,0.8,0.4,1.4,0.4c0.6,0,1.1-0.1,1.4-0.4&#10;&#9;&#9;&#9;c0.2-0.2,0.3-0.4,0.3-0.7c0-0.2-0.1-0.3-0.2-0.5c-0.1-0.1-0.4-0.2-0.8-0.3c-2-0.4-3.3-0.8-3.8-1.2c-0.7-0.5-1.1-1.2-1.1-2.1&#10;&#9;&#9;&#9;c0-0.8,0.3-1.5,1-2c0.6-0.6,1.6-0.8,3-0.8c1.3,0,2.2,0.2,2.8,0.6c0.6,0.4,1,1,1.3,1.8l-2.3,0.4c-0.1-0.4-0.3-0.6-0.6-0.8&#10;&#9;&#9;&#9;c-0.3-0.2-0.7-0.3-1.2-0.3c-0.7,0-1.1,0.1-1.4,0.3c-0.2,0.1-0.3,0.3-0.3,0.5c0,0.2,0.1,0.3,0.2,0.4c0.2,0.2,1,0.4,2.3,0.7&#10;&#9;&#9;&#9;c1.3,0.3,2.2,0.7,2.8,1.1c0.5,0.4,0.8,1.1,0.8,1.8c0,0.9-0.4,1.6-1.1,2.2c-0.7,0.6-1.8,0.9-3.2,0.9c-1.3,0-2.3-0.3-3-0.8&#10;&#9;&#9;&#9;C618.7,938.4,618.3,937.7,618,936.9z" style="fill: rgb(255, 255, 255);"/>
		<path class="st12" d="M628.6,928.9v-2.3h2.5v2.3H628.6z M628.6,939.5v-9.3h2.5v9.3H628.6z" style="fill: rgb(255, 255, 255);"/>
		<path class="st12" d="M633,940.1l2.8,0.3c0,0.3,0.2,0.6,0.3,0.7c0.2,0.2,0.6,0.3,1.1,0.3c0.6,0,1.1-0.1,1.5-0.3&#10;&#9;&#9;&#9;c0.2-0.1,0.4-0.3,0.5-0.6c0.1-0.2,0.1-0.6,0.1-1.1V938c-0.7,1-1.7,1.5-2.8,1.5c-1.3,0-2.2-0.5-3-1.6c-0.6-0.8-0.9-1.9-0.9-3.1&#10;&#9;&#9;&#9;c0-1.6,0.4-2.8,1.1-3.6c0.8-0.8,1.7-1.2,2.8-1.2c1.2,0,2.1,0.5,2.9,1.5v-1.3h2.3v8.4c0,1.1-0.1,1.9-0.3,2.5&#10;&#9;&#9;&#9;c-0.2,0.5-0.4,1-0.8,1.3c-0.3,0.3-0.8,0.6-1.3,0.7c-0.5,0.2-1.2,0.3-2.1,0.3c-1.6,0-2.7-0.3-3.4-0.8c-0.7-0.5-1-1.2-1-2.1&#10;&#9;&#9;&#9;C633,940.3,633,940.2,633,940.1z M635.2,934.7c0,1,0.2,1.7,0.6,2.2c0.4,0.5,0.9,0.7,1.4,0.7c0.6,0,1.1-0.2,1.5-0.7&#10;&#9;&#9;&#9;c0.4-0.5,0.6-1.2,0.6-2.1c0-1-0.2-1.7-0.6-2.2c-0.4-0.5-0.9-0.7-1.5-0.7c-0.6,0-1.1,0.2-1.5,0.7&#10;&#9;&#9;&#9;C635.4,933,635.2,933.7,635.2,934.7z" style="fill: rgb(255, 255, 255);"/>
		<path class="st12" d="M652.3,939.5h-2.5v-4.8c0-1-0.1-1.7-0.2-2c-0.1-0.3-0.3-0.5-0.5-0.7c-0.2-0.2-0.5-0.2-0.9-0.2&#10;&#9;&#9;&#9;c-0.4,0-0.8,0.1-1.2,0.4c-0.3,0.2-0.6,0.5-0.7,0.9c-0.1,0.4-0.2,1.1-0.2,2.1v4.2h-2.5v-9.3h2.3v1.4c0.8-1.1,1.8-1.6,3.1-1.6&#10;&#9;&#9;&#9;c0.5,0,1,0.1,1.5,0.3c0.5,0.2,0.8,0.4,1,0.8s0.4,0.7,0.5,1s0.1,0.9,0.1,1.7V939.5z" style="fill: rgb(255, 255, 255);"/>
		<path class="st12" d="M659.9,936.5l2.5,0.4c-0.3,0.9-0.8,1.6-1.5,2.1c-0.7,0.5-1.5,0.7-2.6,0.7c-1.6,0-2.8-0.5-3.6-1.6&#10;&#9;&#9;&#9;c-0.6-0.8-0.9-1.9-0.9-3.2c0-1.5,0.4-2.8,1.2-3.6c0.8-0.9,1.8-1.3,3.1-1.3c1.4,0,2.5,0.5,3.3,1.4c0.8,0.9,1.2,2.3,1.2,4.2h-6.2&#10;&#9;&#9;&#9;c0,0.7,0.2,1.3,0.6,1.7c0.4,0.4,0.9,0.6,1.4,0.6c0.4,0,0.7-0.1,1-0.3C659.5,937.4,659.7,937,659.9,936.5z M660,934.1&#10;&#9;&#9;&#9;c0-0.7-0.2-1.3-0.6-1.6c-0.4-0.4-0.8-0.6-1.3-0.6c-0.5,0-1,0.2-1.3,0.6c-0.4,0.4-0.5,0.9-0.5,1.6H660z" style="fill: rgb(255, 255, 255);"/>
		<path class="st12" d="M672.7,939.5h-2.3v-1.4c-0.4,0.5-0.8,0.9-1.3,1.2c-0.5,0.3-1,0.4-1.6,0.4c-1.1,0-2-0.4-2.8-1.3&#10;&#9;&#9;&#9;c-0.8-0.9-1.1-2.1-1.1-3.6c0-1.6,0.4-2.8,1.1-3.6c0.7-0.8,1.7-1.2,2.8-1.2c1,0,1.9,0.4,2.7,1.3v-4.6h2.5V939.5z M666.1,934.6&#10;&#9;&#9;&#9;c0,1,0.1,1.7,0.4,2.2c0.4,0.6,1,1,1.7,1c0.6,0,1.1-0.2,1.5-0.7c0.4-0.5,0.6-1.2,0.6-2.2c0-1.1-0.2-1.8-0.6-2.3&#10;&#9;&#9;&#9;c-0.4-0.5-0.9-0.7-1.5-0.7c-0.6,0-1.1,0.2-1.5,0.7C666.3,933,666.1,933.7,666.1,934.6z" style="fill: rgb(255, 255, 255);"/>
		<path class="st12" d="M679.3,939.5v-12.9h2.5v4.6c0.8-0.9,1.7-1.3,2.7-1.3c1.1,0,2.1,0.4,2.8,1.2c0.7,0.8,1.1,2,1.1,3.5&#10;&#9;&#9;&#9;c0,1.6-0.4,2.8-1.1,3.7c-0.8,0.9-1.7,1.3-2.8,1.3c-0.5,0-1.1-0.1-1.6-0.4c-0.5-0.3-1-0.7-1.3-1.2v1.4H679.3z M681.7,934.6&#10;&#9;&#9;&#9;c0,1,0.2,1.7,0.5,2.1c0.4,0.7,1,1,1.7,1c0.5,0,1-0.2,1.4-0.7c0.4-0.5,0.6-1.2,0.6-2.2c0-1.1-0.2-1.8-0.6-2.3&#10;&#9;&#9;&#9;c-0.4-0.5-0.9-0.7-1.5-0.7c-0.6,0-1.1,0.2-1.5,0.7C681.9,933,681.7,933.7,681.7,934.6z" style="fill: rgb(255, 255, 255);"/>
		<path class="st12" d="M688.9,930.2h2.6l2.2,6.6l2.2-6.6h2.6l-3.3,9l-0.6,1.6c-0.2,0.5-0.4,1-0.6,1.2c-0.2,0.3-0.4,0.5-0.7,0.7&#10;&#9;&#9;&#9;c-0.3,0.2-0.6,0.3-0.9,0.4c-0.4,0.1-0.8,0.1-1.3,0.1c-0.5,0-0.9,0-1.4-0.1l-0.2-1.9c0.4,0.1,0.7,0.1,1,0.1c0.6,0,1-0.2,1.3-0.5&#10;&#9;&#9;&#9;c0.3-0.3,0.5-0.8,0.6-1.3L688.9,930.2z" style="fill: rgb(255, 255, 255);"/>
	</g>
</g>
<path d="M 834.2999877929688 464 L 832.4000244140625 489.5 L 856 499.1000061035156 L 831.2000122070312 505.20001220703125 L 829.2999877929688 530.5999755859375 L 815.9000244140625 508.8999938964844 L 791.0999755859375 515 L 807.5999755859375 495.5 L 794.2000122070312 473.79998779296875 L 817.7999877929688 483.5 Z" class="st13" style="opacity: 0.5; fill: rgb(255, 255, 255);" transform="matrix(1, 0, 0, 1, 25.4293212890625, 29.6676025390625)"/>
<path d="M 353.5 356.6000061035156 L 351.70001220703125 382.1000061035156 L 375.29998779296875 391.70001220703125 L 350.5 397.79998779296875 L 348.6000061035156 423.20001220703125 L 335.20001220703125 401.5 L 310.3999938964844 407.6000061035156 L 326.8999938964844 388.1000061035156 L 313.5 366.3999938964844 L 337.1000061035156 376.1000061035156 Z" class="st12" style="fill: rgb(255, 255, 255);" transform="matrix(1, 0, 0, 1, 25.4293212890625, 29.6676025390625)"/>
<path d="M 638.7999877929688 341.79998779296875 L 650 364.70001220703125 L 675.2000122070312 361.20001220703125 L 656.9000244140625 378.8999938964844 L 668 401.79998779296875 L 645.5 389.79998779296875 L 627.2000122070312 407.5 L 631.5999755859375 382.3999938964844 L 609.0999755859375 370.3999938964844 L 634.4000244140625 366.8999938964844 Z" class="st12" style="fill: rgb(255, 255, 255);" transform="matrix(1, 0, 0, 1, 25.4293212890625, 29.6676025390625)"/>
<path d="M 764.2000122070312 369.70001220703125 L 766.5 382.1000061035156 L 778.9000244140625 383.79998779296875 L 767.7999877929688 389.79998779296875 L 770.0999755859375 402.20001220703125 L 761 393.5 L 749.9000244140625 399.3999938964844 L 755.4000244140625 388.1000061035156 L 746.2999877929688 379.3999938964844 L 758.7000122070312 381.1000061035156 Z" class="st13" style="opacity: 0.5; fill: rgb(255, 255, 255);" transform="matrix(1, 0, 0, 1, 25.4293212890625, 29.6676025390625)"/>

<path d="M 595.2000122070312 532.9000244140625 L 592.7000122070312 550.7000122070312 L 608.7999877929688 558.5999755859375 L 591.0999755859375 561.7000122070312 L 588.5999755859375 579.5 L 580.2000122070312 563.5999755859375 L 562.5 566.7000122070312 L 575 553.7999877929688 L 566.5999755859375 537.9000244140625 L 582.7000122070312 545.7999877929688 Z" class="st13" style="opacity: 0.5; fill: rgb(255, 255, 255);" transform="matrix(1, 0, 0, 1, 25.4293212890625, 29.6676025390625)"/>
<path d="M 1109.5 559.2000122070312 L 1104.5999755859375 576.5 L 1119.5999755859375 586.5 L 1101.5999755859375 587.2000122070312 L 1096.699951171875 604.5 L 1090.5 587.5999755859375 L 1072.5999755859375 588.2999877929688 L 1086.699951171875 577.2000122070312 L 1080.5 560.2999877929688 L 1095.4000244140625 570.2999877929688 Z" class="st13" style="opacity: 0.5; fill: rgb(255, 255, 255);" transform="matrix(1, 0, 0, 1, 25.4293212890625, 29.6676025390625)"/>
<path d="M 1143.4000244140625 654.0999755859375 L 1137.0999755859375 670.9000244140625 L 1151.199951171875 682.0999755859375 L 1133.199951171875 681.2999877929688 L 1126.9000244140625 698.0999755859375 L 1122.0999755859375 680.7999877929688 L 1104.199951171875 680 L 1119.199951171875 670.0999755859375 L 1114.4000244140625 652.7999877929688 L 1128.4000244140625 664 Z" class="st13" style="opacity: 0.5; fill: rgb(255, 255, 255);" transform="matrix(1, 0, 0, 1, 25.4293212890625, 29.6676025390625)"/>
<path d="M 1054.800048828125 756.2999877929688 L 1048.5 773.2000122070312 L 1062.5 784.4000244140625 L 1044.5999755859375 783.5999755859375 L 1038.300048828125 800.4000244140625 L 1033.5 783.0999755859375 L 1015.5 782.2999877929688 L 1030.5 772.4000244140625 L 1025.699951171875 755.0999755859375 L 1039.800048828125 766.2000122070312 Z" class="st13" style="opacity: 0.5; fill: rgb(255, 255, 255);" transform="matrix(1, 0, 0, 1, 25.4293212890625, 29.6676025390625)"/>
<path d="M 1216.4000244140625 729.2999877929688 L 1222 746.4000244140625 L 1239.9000244140625 746.4000244140625 L 1225.4000244140625 757 L 1231 774 L 1216.4000244140625 763.5 L 1201.9000244140625 774 L 1207.4000244140625 757 L 1192.9000244140625 746.4000244140625 L 1210.9000244140625 746.4000244140625 Z" class="st13" style="opacity: 0.5; fill: rgb(255, 255, 255);" transform="matrix(1, 0, 0, 1, 25.4293212890625, 29.6676025390625)"/>
<path d="M 985.7999877929688 683.7999877929688 L 991.4000244140625 700.9000244140625 L 1009.4000244140625 700.9000244140625 L 994.7999877929688 711.5 L 1000.4000244140625 728.5 L 985.7999877929688 718 L 971.2999877929688 728.5 L 976.9000244140625 711.5 L 962.2999877929688 700.9000244140625 L 980.2999877929688 700.9000244140625 Z" class="st13" style="opacity: 0.5; fill: rgb(255, 255, 255);" transform="matrix(1, 0, 0, 1, 25.4293212890625, 29.6676025390625)"/>
<path d="M 788.7000122070312 728.2000122070312 L 794.2999877929688 745.2999877929688 L 812.2999877929688 745.2999877929688 L 797.7000122070312 755.9000244140625 L 803.2999877929688 773 L 788.7000122070312 762.4000244140625 L 774.2000122070312 773 L 779.7999877929688 755.9000244140625 L 765.2000122070312 745.2999877929688 L 783.2000122070312 745.2999877929688 Z" class="st13" style="opacity: 0.5; fill: rgb(255, 255, 255);" transform="matrix(1, 0, 0, 1, 25.4293212890625, 29.6676025390625)"/>
<path d="M 597.9000244140625 787 L 603.4000244140625 804.0999755859375 L 621.4000244140625 804.0999755859375 L 606.7999877929688 814.7000122070312 L 612.4000244140625 831.7999877929688 L 597.9000244140625 821.2000122070312 L 583.2999877929688 831.7999877929688 L 588.9000244140625 814.7000122070312 L 574.2999877929688 804.0999755859375 L 592.2999877929688 804.0999755859375 Z" class="st13" style="opacity: 0.5; fill: rgb(255, 255, 255);" transform="matrix(1, 0, 0, 1, 25.4293212890625, 29.6676025390625)"/>
<path d="M 423 766.2000122070312 L 428.5 783.2999877929688 L 446.5 783.2999877929688 L 432 793.9000244140625 L 437.5 811 L 423 800.4000244140625 L 408.3999938964844 811 L 414 793.9000244140625 L 399.3999938964844 783.2999877929688 L 417.3999938964844 783.2999877929688 Z" class="st13" style="opacity: 0.5; fill: rgb(255, 255, 255);" transform="matrix(1, 0, 0, 1, 25.4293212890625, 29.6676025390625)"/>
<path d="M 363.29998779296875 855.0999755859375 L 368.79998779296875 872.2000122070312 L 386.79998779296875 872.2000122070312 L 372.29998779296875 882.7000122070312 L 377.79998779296875 899.7999877929688 L 363.29998779296875 889.2000122070312 L 348.70001220703125 899.7999877929688 L 354.29998779296875 882.7000122070312 L 339.79998779296875 872.2000122070312 L 357.70001220703125 872.2000122070312 Z" class="st13" style="opacity: 0.5; fill: rgb(255, 255, 255);" transform="matrix(1, 0, 0, 1, 25.4293212890625, 29.6676025390625)"/>
<path d="M 1324.5 644.4000244140625 L 1312.5999755859375 665 L 1328.5999755859375 682.7000122070312 L 1305.300048828125 677.7999877929688 L 1293.5 698.5 L 1290.9000244140625 674.7999877929688 L 1267.5999755859375 669.9000244140625 L 1289.300048828125 660.0999755859375 L 1286.800048828125 636.4000244140625 L 1302.800048828125 654.0999755859375 Z" class="st13" style="opacity: 0.5; fill: rgb(255, 255, 255);" transform="matrix(1, 0, 0, 1, 25.4293212890625, 29.6676025390625)"/>
<path d="M 1348.9000244140625 727.9000244140625 L 1354.5 745 L 1372.4000244140625 745 L 1357.9000244140625 755.5 L 1363.4000244140625 772.5999755859375 L 1348.9000244140625 762 L 1334.4000244140625 772.5999755859375 L 1339.9000244140625 755.5 L 1325.4000244140625 745 L 1343.300048828125 745 Z" class="st13" style="opacity: 0.5; fill: rgb(255, 255, 255);" transform="matrix(1, 0, 0, 1, 25.4293212890625, 29.6676025390625)"/>
<path d="M 1181.199951171875 848.4000244140625 L 1188.9000244140625 872.0999755859375 L 1213.699951171875 872.0999755859375 L 1193.5999755859375 886.5999755859375 L 1201.300048828125 910.2000122070312 L 1181.199951171875 895.7000122070312 L 1161.0999755859375 910.2000122070312 L 1168.800048828125 886.5999755859375 L 1148.699951171875 872.0999755859375 L 1173.5 872.0999755859375 Z" class="st13" style="opacity: 0.5; fill: rgb(255, 255, 255);" transform="matrix(1, 0, 0, 1, 25.4293212890625, 29.6676025390625)"/>
<path d="M 1318.199951171875 897.0999755859375 L 1323.300048828125 914.2999877929688 L 1341.300048828125 914.7999877929688 L 1326.4000244140625 925 L 1331.5 942.2000122070312 L 1317.300048828125 931.2000122070312 L 1302.5 941.4000244140625 L 1308.5 924.5 L 1294.300048828125 913.5 L 1312.199951171875 914 Z" class="st13" style="opacity: 0.5; fill: rgb(255, 255, 255);" transform="matrix(1, 0, 0, 1, 25.4293212890625, 29.6676025390625)"/>
<path d="M 590.5 622.5999755859375 L 609.0999755859375 640 L 631.4000244140625 627.7000122070312 L 620.5999755859375 650.7999877929688 L 639.2000122070312 668.2999877929688 L 613.9000244140625 665.0999755859375 L 603 688.2000122070312 L 598.2000122070312 663.0999755859375 L 572.9000244140625 659.9000244140625 L 595.2999877929688 647.5999755859375 Z" class="st13" style="opacity: 0.5; fill: rgb(255, 255, 255);" transform="matrix(1, 0, 0, 1, 25.4293212890625, 29.6676025390625)"/>
<path d="M 798.2999877929688 622 L 797.2999877929688 647.5 L 821.2000122070312 656.2999877929688 L 796.5999755859375 663.2000122070312 L 795.5999755859375 688.7000122070312 L 781.5 667.5 L 756.9000244140625 674.4000244140625 L 772.7000122070312 654.4000244140625 L 758.5999755859375 633.2000122070312 L 782.5 642 Z" class="st13" style="opacity: 0.5; fill: rgb(255, 255, 255);" transform="matrix(1, 0, 0, 1, 25.4293212890625, 29.6676025390625)"/>
<path d="M 701 531.4000244140625 L 712.2999877929688 566.2000122070312 L 748.9000244140625 566.2000122070312 L 719.2999877929688 587.7000122070312 L 730.5999755859375 622.4000244140625 L 701 600.9000244140625 L 671.4000244140625 622.4000244140625 L 682.7000122070312 587.7000122070312 L 653.0999755859375 566.2000122070312 L 689.7000122070312 566.2000122070312 Z" class="st13" style="opacity: 0.5; fill: rgb(255, 255, 255);" transform="matrix(1, 0, 0, 1, 25.4293212890625, 29.6676025390625)"/>
<path d="M 1313.9000244140625 489.8999938964844 L 1303.9000244140625 525 L 1334.199951171875 545.4000244140625 L 1297.699951171875 546.7999877929688 L 1287.699951171875 581.9000244140625 L 1275.0999755859375 547.5999755859375 L 1238.5999755859375 549 L 1267.300048828125 526.4000244140625 L 1254.699951171875 492 L 1285.0999755859375 512.4000244140625 Z" class="st12" style="fill: rgb(255, 255, 255);" transform="matrix(1, 0, 0, 1, 25.4293212890625, 29.6676025390625)"/>
<path d="M 11.600000381469727 894.2000122070312 L 38.599998474121094 900.0999755859375 L 52.599998474121094 876.2000122070312 L 55.29999923706055 903.7000122070312 L 82.4000015258789 909.7000122070312 L 57 920.7999877929688 L 59.79999923706055 948.2999877929688 L 41.400001525878906 927.5999755859375 L 16 938.7000122070312 L 30 914.9000244140625 Z" class="st13" style="opacity: 0.5; fill: rgb(255, 255, 255);" transform="matrix(1, 0, 0, 1, 25.4293212890625, 29.6676025390625)"/>
<path d="M 166.10000610351562 505.70001220703125 L 189.60000610351562 520.2999877929688 L 210.8000030517578 502.5 L 204.10000610351562 529.4000244140625 L 227.60000610351562 544 L 200 546 L 193.39999389648438 572.7999877929688 L 183 547.2000122070312 L 155.39999389648438 549.2000122070312 L 176.5 531.2999877929688 Z" class="st13" style="opacity: 0.5; fill: rgb(255, 255, 255);" transform="matrix(1, 0, 0, 1, 25.4293212890625, 29.6676025390625)"/>
<path d="M 252.89999389648438 821.2999877929688 L 275.20001220703125 837.7999877929688 L 297.70001220703125 821.7000122070312 L 288.8999938964844 848 L 311.20001220703125 864.4000244140625 L 283.5 864.2000122070312 L 274.70001220703125 890.4000244140625 L 266.3999938964844 864 L 238.6999969482422 863.7999877929688 L 261.20001220703125 847.7000122070312 Z" class="st13" style="opacity: 0.5; fill: rgb(255, 255, 255);" transform="matrix(1, 0, 0, 1, 25.4293212890625, 29.6676025390625)"/>
<path d="M 106.5 744.4000244140625 L 130 759 L 151.10000610351562 741.2000122070312 L 144.5 768 L 168 782.7000122070312 L 140.39999389648438 784.5999755859375 L 133.6999969482422 811.5 L 123.30000305175781 785.7999877929688 L 95.69999694824219 787.7999877929688 L 116.9000015258789 770 Z" class="st12" style="fill: rgb(255, 255, 255);" transform="matrix(1, 0, 0, 1, 25.4293212890625, 29.6676025390625)"/>
<path d="M 255.5 594.5999755859375 L 259.6000061035156 607.2000122070312 L 272.70001220703125 607.2000122070312 L 262.1000061035156 614.9000244140625 L 266.1000061035156 627.4000244140625 L 255.5 619.7000122070312 L 244.8000030517578 627.4000244140625 L 248.89999389648438 614.9000244140625 L 238.1999969482422 607.2000122070312 L 251.39999389648438 607.2000122070312 Z" class="st13" style="opacity: 0.5; fill: rgb(255, 255, 255);" transform="matrix(1, 0, 0, 1, 25.4293212890625, 29.6676025390625)"/>
<path d="M 506.70001220703125 647.4000244140625 L 510.79998779296875 659.9000244140625 L 524 659.9000244140625 L 513.2999877929688 667.5999755859375 L 517.4000244140625 680.2000122070312 L 506.70001220703125 672.4000244140625 L 496.1000061035156 680.2000122070312 L 500.1000061035156 667.5999755859375 L 489.5 659.9000244140625 L 502.6000061035156 659.9000244140625 Z" class="st13" style="opacity: 0.5; fill: rgb(255, 255, 255);" transform="matrix(1, 0, 0, 1, 25.4293212890625, 29.6676025390625)"/>
<path d="M 1117.5999755859375 481.5 L 1121.699951171875 494.1000061035156 L 1134.800048828125 494.1000061035156 L 1124.199951171875 501.79998779296875 L 1128.300048828125 514.4000244140625 L 1117.5999755859375 506.6000061035156 L 1106.9000244140625 514.4000244140625 L 1111 501.79998779296875 L 1100.4000244140625 494.1000061035156 L 1113.5 494.1000061035156 Z" class="st13" style="opacity: 0.5; fill: rgb(255, 255, 255);" transform="matrix(1, 0, 0, 1, 25.4293212890625, 29.6676025390625)"/>
<path d="M 1011.5 268.6000061035156 L 1015.5999755859375 281.1000061035156 L 1028.699951171875 281.1000061035156 L 1018.0999755859375 288.8999938964844 L 1022.0999755859375 301.3999938964844 L 1011.5 293.70001220703125 L 1000.7999877929688 301.3999938964844 L 1004.9000244140625 288.8999938964844 L 994.2000122070312 281.1000061035156 L 1007.4000244140625 281.1000061035156 Z" class="st13" style="opacity: 0.5; fill: rgb(255, 255, 255);" transform="matrix(1, 0, 0, 1, 25.4293212890625, 29.6676025390625)"/>
<path d="M 946.7999877929688 226.10000610351562 L 950.2000122070312 236.5 L 961.2000122070312 236.5 L 952.2999877929688 243 L 955.7000122070312 253.39999389648438 L 946.7999877929688 246.89999389648438 L 938 253.39999389648438 L 941.4000244140625 243 L 932.5 236.5 L 943.4000244140625 236.5 Z" class="st13" style="opacity: 0.5; fill: rgb(255, 255, 255);" transform="matrix(1, 0, 0, 1, 25.4293212890625, 29.6676025390625)"/>
<path d="M 29.600000381469727 270.3999938964844 L 33 280.79998779296875 L 43.900001525878906 280.79998779296875 L 35.099998474121094 287.29998779296875 L 38.400001525878906 297.70001220703125 L 29.600000381469727 291.20001220703125 L 20.700000762939453 297.70001220703125 L 24.100000381469727 287.29998779296875 L 15.199999809265137 280.79998779296875 L 26.200000762939453 280.79998779296875 Z" class="st12" style="fill: rgb(255, 255, 255);" transform="matrix(1, 0, 0, 1, 25.4293212890625, 29.6676025390625)"/>
<path d="M 1201.0999755859375 256.70001220703125 L 1205.0999755859375 269.20001220703125 L 1218.300048828125 269.20001220703125 L 1207.699951171875 277 L 1211.699951171875 289.5 L 1201.0999755859375 281.79998779296875 L 1190.4000244140625 289.5 L 1194.5 277 L 1183.800048828125 269.20001220703125 L 1197 269.20001220703125 Z" class="st13" style="opacity: 0.5; fill: rgb(255, 255, 255);" transform="matrix(1, 0, 0, 1, 25.4293212890625, 29.6676025390625)"/>
<path d="M 922 353.79998779296875 L 926.0999755859375 366.29998779296875 L 939.2000122070312 366.29998779296875 L 928.5999755859375 374.1000061035156 L 932.5999755859375 386.6000061035156 L 922 378.8999938964844 L 911.2999877929688 386.6000061035156 L 915.4000244140625 374.1000061035156 L 904.7000122070312 366.29998779296875 L 917.9000244140625 366.29998779296875 Z" class="st13" style="opacity: 0.5; fill: rgb(255, 255, 255);" transform="matrix(1, 0, 0, 1, 25.4293212890625, 29.6676025390625)"/>
<path d="M 476.5 230.3000030517578 L 480.6000061035156 242.89999389648438 L 493.79998779296875 242.89999389648438 L 483.1000061035156 250.60000610351562 L 487.20001220703125 263.1000061035156 L 476.5 255.39999389648438 L 465.8999938964844 263.1000061035156 L 469.8999938964844 250.60000610351562 L 459.29998779296875 242.89999389648438 L 472.5 242.89999389648438 Z" class="st13" style="opacity: 0.5; fill: rgb(255, 255, 255);" transform="matrix(1, 0, 0, 1, 25.4293212890625, 29.6676025390625)"/>
<path d="M 554.5999755859375 307.79998779296875 L 558.7000122070312 320.29998779296875 L 571.9000244140625 320.29998779296875 L 561.2000122070312 328.1000061035156 L 565.2999877929688 340.6000061035156 L 554.5999755859375 332.8999938964844 L 543.9000244140625 340.6000061035156 L 548 328.1000061035156 L 537.4000244140625 320.29998779296875 L 550.5 320.29998779296875 Z" class="st13" style="opacity: 0.5; fill: rgb(255, 255, 255);" transform="matrix(1, 0, 0, 1, 25.4293212890625, 29.6676025390625)"/>
<path d="M 660.0999755859375 438.29998779296875 L 664.2000122070312 450.79998779296875 L 677.4000244140625 450.79998779296875 L 666.7000122070312 458.6000061035156 L 670.7999877929688 471.1000061035156 L 660.0999755859375 463.29998779296875 L 649.4000244140625 471.1000061035156 L 653.5 458.6000061035156 L 642.7999877929688 450.79998779296875 L 656 450.79998779296875 Z" class="st13" style="opacity: 0.5; fill: rgb(255, 255, 255);" transform="matrix(1, 0, 0, 1, 25.4293212890625, 29.6676025390625)"/>
<path d="M 916 546.5 L 920.0999755859375 559 L 933.2999877929688 559 L 922.5999755859375 566.7000122070312 L 926.7000122070312 579.2999877929688 L 916 571.5 L 905.4000244140625 579.2999877929688 L 909.4000244140625 566.7000122070312 L 898.7999877929688 559 L 911.9000244140625 559 Z" class="st13" style="opacity: 0.5; fill: rgb(255, 255, 255);" transform="matrix(1, 0, 0, 1, 25.4293212890625, 29.6676025390625)"/>
<path d="M 374.70001220703125 270.29998779296875 L 378.79998779296875 282.79998779296875 L 391.8999938964844 282.79998779296875 L 381.29998779296875 290.5 L 385.3999938964844 303.1000061035156 L 374.70001220703125 295.29998779296875 L 364 303.1000061035156 L 368.1000061035156 290.5 L 357.3999938964844 282.79998779296875 L 370.6000061035156 282.79998779296875 Z" class="st13" style="opacity: 0.5; fill: rgb(255, 255, 255);" transform="matrix(1, 0, 0, 1, 25.4293212890625, 29.6676025390625)"/>
<path d="M 430.20001220703125 556.2000122070312 L 434.29998779296875 568.7000122070312 L 447.5 568.7000122070312 L 436.79998779296875 576.5 L 440.8999938964844 589 L 430.20001220703125 581.2999877929688 L 419.6000061035156 589 L 423.6000061035156 576.5 L 413 568.7000122070312 L 426.1000061035156 568.7000122070312 Z" class="st13" style="opacity: 0.5; fill: rgb(255, 255, 255);" transform="matrix(1, 0, 0, 1, 25.4293212890625, 29.6676025390625)"/>
<path d="M 267.79998779296875 503.3999938964844 L 271.8999938964844 516 L 285.1000061035156 516 L 274.3999938964844 523.7000122070312 L 278.5 536.2999877929688 L 267.79998779296875 528.5 L 257.20001220703125 536.2999877929688 L 261.20001220703125 523.7000122070312 L 250.60000610351562 516 L 263.70001220703125 516 Z" class="st13" style="opacity: 0.5; fill: rgb(255, 255, 255);" transform="matrix(1, 0, 0, 1, 25.4293212890625, 29.6676025390625)"/>
<path d="M 163.6999969482422 661.7000122070312 L 167.8000030517578 674.2000122070312 L 181 674.2000122070312 L 170.3000030517578 682 L 174.39999389648438 694.5 L 163.6999969482422 686.7000122070312 L 153.10000610351562 694.5 L 157.10000610351562 682 L 146.5 674.2000122070312 L 159.60000610351562 674.2000122070312 Z" class="st13" style="opacity: 0.5; fill: rgb(255, 255, 255);" transform="matrix(1, 0, 0, 1, 25.4293212890625, 29.6676025390625)"/>
<path d="M 86.30000305175781 820.2000122070312 L 90.4000015258789 832.7999877929688 L 103.5999984741211 832.7999877929688 L 92.9000015258789 840.5 L 97 853 L 86.30000305175781 845.2999877929688 L 75.69999694824219 853 L 79.69999694824219 840.5 L 69.0999984741211 832.7999877929688 L 82.19999694824219 832.7999877929688 Z" class="st13" style="opacity: 0.5; fill: rgb(255, 255, 255);" transform="matrix(1, 0, 0, 1, 25.4293212890625, 29.6676025390625)"/>
<path d="M 276.20001220703125 718.0999755859375 L 280.29998779296875 730.5999755859375 L 293.5 730.5999755859375 L 282.79998779296875 738.4000244140625 L 286.8999938964844 750.9000244140625 L 276.20001220703125 743.2000122070312 L 265.6000061035156 750.9000244140625 L 269.6000061035156 738.4000244140625 L 259 730.5999755859375 L 272.1000061035156 730.5999755859375 Z" class="st13" style="opacity: 0.5; fill: rgb(255, 255, 255);" transform="matrix(1, 0, 0, 1, 25.4293212890625, 29.6676025390625)"/>
<path d="M 998 466.8999938964844 L 1002 479.3999938964844 L 1015.2000122070312 479.3999938964844 L 1004.5999755859375 487.1000061035156 L 1008.5999755859375 499.70001220703125 L 998 491.8999938964844 L 987.2999877929688 499.70001220703125 L 991.4000244140625 487.1000061035156 L 980.7000122070312 479.3999938964844 L 993.9000244140625 479.3999938964844 Z" class="st12" style="fill: rgb(255, 255, 255);" transform="matrix(1, 0, 0, 1, 25.4293212890625, 29.6676025390625)"/>
<path d="M 1218.699951171875 523 L 1222.699951171875 535.5999755859375 L 1235.9000244140625 535.5999755859375 L 1225.300048828125 543.2999877929688 L 1229.300048828125 555.7999877929688 L 1218.699951171875 548.0999755859375 L 1208 555.7999877929688 L 1212.0999755859375 543.2999877929688 L 1201.4000244140625 535.5999755859375 L 1214.5999755859375 535.5999755859375 Z" class="st13" style="opacity: 0.5; fill: rgb(255, 255, 255);" transform="matrix(1, 0, 0, 1, 25.4293212890625, 29.6676025390625)"/>
<path d="M 1181.699951171875 397.79998779296875 L 1185.800048828125 410.3999938964844 L 1199 410.3999938964844 L 1188.300048828125 418.1000061035156 L 1192.4000244140625 430.6000061035156 L 1181.699951171875 422.8999938964844 L 1171.0999755859375 430.6000061035156 L 1175.0999755859375 418.1000061035156 L 1164.5 410.3999938964844 L 1177.699951171875 410.3999938964844 Z" class="st13" style="opacity: 0.5; fill: rgb(255, 255, 255);" transform="matrix(1, 0, 0, 1, 25.4293212890625, 29.6676025390625)"/>
<path d="M 1164 345.5 L 1166.300048828125 352.6000061035156 L 1173.800048828125 352.6000061035156 L 1167.800048828125 357 L 1170.0999755859375 364.20001220703125 L 1164 359.79998779296875 L 1158 364.20001220703125 L 1160.300048828125 357 L 1154.199951171875 352.6000061035156 L 1161.699951171875 352.6000061035156 Z" class="st13" style="opacity: 0.5; fill: rgb(255, 255, 255);" transform="matrix(1, 0, 0, 1, 25.4293212890625, 29.6676025390625)"/>
<path d="M 956.9000244140625 441.3999938964844 L 959.2000122070312 448.5 L 966.7000122070312 448.5 L 960.7000122070312 452.8999938964844 L 963 460 L 956.9000244140625 455.6000061035156 L 950.9000244140625 460 L 953.2000122070312 452.8999938964844 L 947.0999755859375 448.5 L 954.5999755859375 448.5 Z" class="st13" style="opacity: 0.5; fill: rgb(255, 255, 255);" transform="matrix(1, 0, 0, 1, 25.4293212890625, 29.6676025390625)"/>
<path d="M 349.3999938964844 469 L 351.70001220703125 476.1000061035156 L 359.20001220703125 476.1000061035156 L 353.20001220703125 480.5 L 355.5 487.6000061035156 L 349.3999938964844 483.20001220703125 L 343.3999938964844 487.6000061035156 L 345.70001220703125 480.5 L 339.6000061035156 476.1000061035156 L 347.1000061035156 476.1000061035156 Z" class="st13" style="opacity: 0.5; fill: rgb(255, 255, 255);" transform="matrix(1, 0, 0, 1, 25.4293212890625, 29.6676025390625)"/>
<path d="M 902.5999755859375 735.2000122070312 L 904.9000244140625 742.4000244140625 L 912.2999877929688 742.4000244140625 L 906.2999877929688 746.7999877929688 L 908.5999755859375 753.9000244140625 L 902.5999755859375 749.5 L 896.5 753.9000244140625 L 898.7999877929688 746.7999877929688 L 892.7999877929688 742.4000244140625 L 900.2999877929688 742.4000244140625 Z" class="st13" style="opacity: 0.5; fill: rgb(255, 255, 255);" transform="matrix(1, 0, 0, 1, 25.4293212890625, 29.6676025390625)"/>
<path d="M 1362.4000244140625 877 L 1364.800048828125 884.0999755859375 L 1372.199951171875 884.0999755859375 L 1366.199951171875 888.5 L 1368.5 895.5999755859375 L 1362.4000244140625 891.2000122070312 L 1356.4000244140625 895.5999755859375 L 1358.699951171875 888.5 L 1352.5999755859375 884.0999755859375 L 1360.0999755859375 884.0999755859375 Z" class="st13" style="opacity: 0.5; fill: rgb(255, 255, 255);" transform="matrix(1, 0, 0, 1, 25.4293212890625, 29.6676025390625)"/>
<path d="M 1252.800048828125 700.7000122070312 L 1255.0999755859375 707.7999877929688 L 1262.5999755859375 707.7999877929688 L 1256.5 712.2000122070312 L 1258.9000244140625 719.2999877929688 L 1252.800048828125 714.9000244140625 L 1246.699951171875 719.2999877929688 L 1249.0999755859375 712.2000122070312 L 1243 707.7999877929688 L 1250.5 707.7999877929688 Z" class="st13" style="opacity: 0.5; fill: rgb(255, 255, 255);" transform="matrix(1, 0, 0, 1, 25.4293212890625, 29.6676025390625)"/>
<path d="M 48.900001525878906 556.2000122070312 L 51.20000076293945 563.2999877929688 L 58.70000076293945 563.2999877929688 L 52.70000076293945 567.7000122070312 L 55 574.7999877929688 L 48.900001525878906 570.4000244140625 L 42.900001525878906 574.7999877929688 L 45.20000076293945 567.7000122070312 L 39.099998474121094 563.2999877929688 L 46.599998474121094 563.2999877929688 Z" class="st13" style="opacity: 0.5; fill: rgb(255, 255, 255);" transform="matrix(1, 0, 0, 1, 25.4293212890625, 29.6676025390625)"/>
<path d="M 588.5999755859375 761 L 590.9000244140625 768.0999755859375 L 598.4000244140625 768.0999755859375 L 592.2999877929688 772.5 L 594.5999755859375 779.5999755859375 L 588.5999755859375 775.2000122070312 L 582.5 779.5999755859375 L 584.9000244140625 772.5 L 578.7999877929688 768.0999755859375 L 586.2999877929688 768.0999755859375 Z" class="st13" style="opacity: 0.5; fill: rgb(255, 255, 255);" transform="matrix(1, 0, 0, 1, 25.4293212890625, 29.6676025390625)"/>
<path d="M 730.0999755859375 737.9000244140625 L 732.4000244140625 745.0999755859375 L 739.9000244140625 745.0999755859375 L 733.7999877929688 749.5 L 736.0999755859375 756.5999755859375 L 730.0999755859375 752.2000122070312 L 724 756.5999755859375 L 726.2999877929688 749.5 L 720.2999877929688 745.0999755859375 L 727.7999877929688 745.0999755859375 Z" class="st13" style="opacity: 0.5; fill: rgb(255, 255, 255);" transform="matrix(1, 0, 0, 1, 25.4293212890625, 29.6676025390625)"/>
<path d="M 560.2999877929688 671.0999755859375 L 562.5999755859375 678.2000122070312 L 570.0999755859375 678.2000122070312 L 564 682.5999755859375 L 566.4000244140625 689.7999877929688 L 560.2999877929688 685.4000244140625 L 554.2000122070312 689.7999877929688 L 556.5 682.5999755859375 L 550.5 678.2000122070312 L 558 678.2000122070312 Z" class="st13" style="opacity: 0.5; fill: rgb(255, 255, 255);" transform="matrix(1, 0, 0, 1, 25.4293212890625, 29.6676025390625)"/>
<path d="M 342 796 L 344.29998779296875 803.0999755859375 L 351.79998779296875 803.0999755859375 L 345.70001220703125 807.5 L 348 814.7000122070312 L 342 810.2999877929688 L 335.8999938964844 814.7000122070312 L 338.20001220703125 807.5 L 332.20001220703125 803.0999755859375 L 339.70001220703125 803.0999755859375 Z" class="st13" style="opacity: 0.5; fill: rgb(255, 255, 255);" transform="matrix(1, 0, 0, 1, 25.4293212890625, 29.6676025390625)"/>
<path d="M 344.20001220703125 702.9000244140625 L 346.5 710 L 354 710 L 347.8999938964844 714.4000244140625 L 350.20001220703125 721.5999755859375 L 344.20001220703125 717.2000122070312 L 338.1000061035156 721.5999755859375 L 340.3999938964844 714.4000244140625 L 334.3999938964844 710 L 341.8999938964844 710 Z" class="st13" style="opacity: 0.5; fill: rgb(255, 255, 255);" transform="matrix(1, 0, 0, 1, 25.4293212890625, 29.6676025390625)"/>
<path d="M 194.10000610351562 738 L 196.39999389648438 745.0999755859375 L 203.89999389648438 745.0999755859375 L 197.8000030517578 749.5 L 200.1999969482422 756.5999755859375 L 194.10000610351562 752.2000122070312 L 188 756.5999755859375 L 190.39999389648438 749.5 L 184.3000030517578 745.0999755859375 L 191.8000030517578 745.0999755859375 Z" class="st13" style="opacity: 0.5; fill: rgb(255, 255, 255);" transform="matrix(1, 0, 0, 1, 25.4293212890625, 29.6676025390625)"/>
<path d="M 205.39999389648438 824.5 L 207.6999969482422 831.5999755859375 L 215.1999969482422 831.5999755859375 L 209.10000610351562 836 L 211.39999389648438 843.0999755859375 L 205.39999389648438 838.7000122070312 L 199.3000030517578 843.0999755859375 L 201.60000610351562 836 L 195.60000610351562 831.5999755859375 L 203.10000610351562 831.5999755859375 Z" class="st13" style="opacity: 0.5; fill: rgb(255, 255, 255);" transform="matrix(1, 0, 0, 1, 25.4293212890625, 29.6676025390625)"/>
<path d="M 66.30000305175781 742.2999877929688 L 68.5999984741211 749.4000244140625 L 76.0999984741211 749.4000244140625 L 70 753.7999877929688 L 72.30000305175781 761 L 66.30000305175781 756.5999755859375 L 60.20000076293945 761 L 62.5 753.7999877929688 L 56.5 749.4000244140625 L 64 749.4000244140625 Z" class="st13" style="opacity: 0.5; fill: rgb(255, 255, 255);" transform="matrix(1, 0, 0, 1, 25.4293212890625, 29.6676025390625)"/>
<path d="M 470.1000061035156 855.2000122070312 L 472.5 862.2999877929688 L 479.8999938964844 862.2999877929688 L 473.8999938964844 866.7000122070312 L 476.20001220703125 873.7999877929688 L 470.1000061035156 869.4000244140625 L 464.1000061035156 873.7999877929688 L 466.3999938964844 866.7000122070312 L 460.29998779296875 862.2999877929688 L 467.79998779296875 862.2999877929688 Z" class="st13" style="opacity: 0.5; fill: rgb(255, 255, 255);" transform="matrix(1, 0, 0, 1, 25.4293212890625, 29.6676025390625)"/>
<path d="M 619.0999755859375 884.7000122070312 L 621.4000244140625 891.9000244140625 L 628.9000244140625 891.9000244140625 L 622.9000244140625 896.2999877929688 L 625.2000122070312 903.4000244140625 L 619.0999755859375 899 L 613 903.4000244140625 L 615.4000244140625 896.2999877929688 L 609.2999877929688 891.9000244140625 L 616.7999877929688 891.9000244140625 Z" class="st13" style="opacity: 0.5; fill: rgb(255, 255, 255);" transform="matrix(1, 0, 0, 1, 25.4293212890625, 29.6676025390625)"/>
<path d="M 780.0999755859375 871.5999755859375 L 782.4000244140625 878.7000122070312 L 789.9000244140625 878.7000122070312 L 783.9000244140625 883.0999755859375 L 786.2000122070312 890.2000122070312 L 780.0999755859375 885.7999877929688 L 774.0999755859375 890.2000122070312 L 776.4000244140625 883.0999755859375 L 770.2999877929688 878.7000122070312 L 777.7999877929688 878.7000122070312 Z" class="st13" style="opacity: 0.5; fill: rgb(255, 255, 255);" transform="matrix(1, 0, 0, 1, 25.4293212890625, 29.6676025390625)"/>
<path d="M 924 873.7999877929688 L 926.2999877929688 880.9000244140625 L 933.7999877929688 880.9000244140625 L 927.7000122070312 885.2999877929688 L 930 892.4000244140625 L 924 888 L 917.9000244140625 892.4000244140625 L 920.2000122070312 885.2999877929688 L 914.2000122070312 880.9000244140625 L 921.5999755859375 880.9000244140625 Z" class="st13" style="opacity: 0.5; fill: rgb(255, 255, 255);" transform="matrix(1, 0, 0, 1, 25.4293212890625, 29.6676025390625)"/>
<path d="M 1017.0999755859375 838.7000122070312 L 1019.4000244140625 845.7999877929688 L 1026.9000244140625 845.7999877929688 L 1020.7999877929688 850.2000122070312 L 1023.0999755859375 857.4000244140625 L 1017.0999755859375 853 L 1011 857.4000244140625 L 1013.2999877929688 850.2000122070312 L 1007.2999877929688 845.7999877929688 L 1014.7000122070312 845.7999877929688 Z" class="st13" style="opacity: 0.5; fill: rgb(255, 255, 255);" transform="matrix(1, 0, 0, 1, 25.4293212890625, 29.6676025390625)"/>
<path d="M 1107.5 884.2000122070312 L 1109.800048828125 891.2999877929688 L 1117.300048828125 891.2999877929688 L 1111.300048828125 895.7000122070312 L 1113.5999755859375 902.7999877929688 L 1107.5 898.4000244140625 L 1101.5 902.7999877929688 L 1103.800048828125 895.7000122070312 L 1097.699951171875 891.2999877929688 L 1105.199951171875 891.2999877929688 Z" class="st13" style="opacity: 0.5; fill: rgb(255, 255, 255);" transform="matrix(1, 0, 0, 1, 25.4293212890625, 29.6676025390625)"/>
<path d="M 1207.800048828125 823.4000244140625 L 1210.199951171875 830.5 L 1217.5999755859375 830.5 L 1211.5999755859375 834.9000244140625 L 1213.9000244140625 842 L 1207.800048828125 837.5999755859375 L 1201.800048828125 842 L 1204.0999755859375 834.9000244140625 L 1198 830.5 L 1205.5 830.5 Z" class="st13" style="opacity: 0.5; fill: rgb(255, 255, 255);" transform="matrix(1, 0, 0, 1, 25.4293212890625, 29.6676025390625)"/>
<path d="M 295.3999938964844 199.1999969482422 L 297.29998779296875 205 L 303.3999938964844 205 L 298.3999938964844 208.60000610351562 L 300.29998779296875 214.39999389648438 L 295.3999938964844 210.8000030517578 L 290.5 214.39999389648438 L 292.3999938964844 208.60000610351562 L 287.3999938964844 205 L 293.5 205 Z" class="st13" style="opacity: 0.5; fill: rgb(255, 255, 255);" transform="matrix(1, 0, 0, 1, 25.4293212890625, 29.6676025390625)"/>
<path d="M 104.19999694824219 626.2999877929688 L 106.0999984741211 632.0999755859375 L 112.19999694824219 632.0999755859375 L 107.19999694824219 635.7000122070312 L 109.0999984741211 641.4000244140625 L 104.19999694824219 637.9000244140625 L 99.30000305175781 641.4000244140625 L 101.19999694824219 635.7000122070312 L 96.19999694824219 632.0999755859375 L 102.30000305175781 632.0999755859375 Z" class="st13" style="opacity: 0.5; fill: rgb(255, 255, 255);" transform="matrix(1, 0, 0, 1, 25.4293212890625, 29.6676025390625)"/>
<path d="M 383.8999938964844 339.79998779296875 L 385.79998779296875 345.6000061035156 L 391.8999938964844 345.6000061035156 L 387 349.1000061035156 L 388.79998779296875 354.8999938964844 L 383.8999938964844 351.29998779296875 L 379 354.8999938964844 L 380.8999938964844 349.1000061035156 L 376 345.6000061035156 L 382.1000061035156 345.6000061035156 Z" class="st13" style="opacity: 0.5; fill: rgb(255, 255, 255);" transform="matrix(1, 0, 0, 1, 25.4293212890625, 29.6676025390625)"/>
<path d="M 183.3000030517578 362.6000061035156 L 185.1999969482422 368.3999938964844 L 191.3000030517578 368.3999938964844 L 186.3000030517578 371.8999938964844 L 188.1999969482422 377.70001220703125 L 183.3000030517578 374.1000061035156 L 178.39999389648438 377.70001220703125 L 180.3000030517578 371.8999938964844 L 175.39999389648438 368.3999938964844 L 181.39999389648438 368.3999938964844 Z" class="st13" style="opacity: 0.5; fill: rgb(255, 255, 255);" transform="matrix(1, 0, 0, 1, 25.4293212890625, 29.6676025390625)"/>
<path d="M 399.79998779296875 440.29998779296875 L 401.70001220703125 446.1000061035156 L 407.79998779296875 446.1000061035156 L 402.8999938964844 449.70001220703125 L 404.70001220703125 455.3999938964844 L 399.79998779296875 451.8999938964844 L 394.8999938964844 455.3999938964844 L 396.79998779296875 449.70001220703125 L 391.8999938964844 446.1000061035156 L 398 446.1000061035156 Z" class="st13" style="opacity: 0.5; fill: rgb(255, 255, 255);" transform="matrix(1, 0, 0, 1, 25.4293212890625, 29.6676025390625)"/>
<path d="M 331.79998779296875 219.60000610351562 L 333.70001220703125 225.39999389648438 L 339.79998779296875 225.39999389648438 L 334.8999938964844 229 L 336.70001220703125 234.8000030517578 L 331.79998779296875 231.1999969482422 L 326.8999938964844 234.8000030517578 L 328.79998779296875 229 L 323.8999938964844 225.39999389648438 L 329.8999938964844 225.39999389648438 Z" class="st13" style="opacity: 0.5; fill: rgb(255, 255, 255);" transform="matrix(1, 0, 0, 1, 25.4293212890625, 29.6676025390625)"/>
<path d="M 301.70001220703125 312.1000061035156 L 304 319.20001220703125 L 311.5 319.20001220703125 L 305.3999938964844 323.6000061035156 L 307.79998779296875 330.79998779296875 L 301.70001220703125 326.3999938964844 L 295.70001220703125 330.79998779296875 L 298 323.6000061035156 L 291.8999938964844 319.20001220703125 L 299.3999938964844 319.20001220703125 Z" class="st13" style="opacity: 0.5; fill: rgb(255, 255, 255);" transform="matrix(1, 0, 0, 1, 25.4293212890625, 29.6676025390625)"/>
<path d="M 219.89999389648438 393.8999938964844 L 222.1999969482422 401.1000061035156 L 229.6999969482422 401.1000061035156 L 223.60000610351562 405.5 L 225.89999389648438 412.6000061035156 L 219.89999389648438 408.20001220703125 L 213.8000030517578 412.6000061035156 L 216.10000610351562 405.5 L 210.10000610351562 401.1000061035156 L 217.60000610351562 401.1000061035156 Z" class="st13" style="opacity: 0.5; fill: rgb(255, 255, 255);" transform="matrix(1, 0, 0, 1, 25.4293212890625, 29.6676025390625)"/>
<path d="M 110.80000305175781 332.6000061035156 L 113.0999984741211 339.70001220703125 L 120.5999984741211 339.70001220703125 L 114.5 344.1000061035156 L 116.80000305175781 351.20001220703125 L 110.80000305175781 346.79998779296875 L 104.69999694824219 351.20001220703125 L 107 344.1000061035156 L 101 339.70001220703125 L 108.5 339.70001220703125 Z" class="st13" style="opacity: 0.5; fill: rgb(255, 255, 255);" transform="matrix(1, 0, 0, 1, 25.4293212890625, 29.6676025390625)"/>
<path d="M 134.60000610351562 247.3000030517578 L 136.89999389648438 254.5 L 144.39999389648438 254.5 L 138.39999389648438 258.8999938964844 L 140.6999969482422 266 L 134.60000610351562 261.6000061035156 L 128.60000610351562 266 L 130.89999389648438 258.8999938964844 L 124.80000305175781 254.5 L 132.3000030517578 254.5 Z" class="st13" style="opacity: 0.5; fill: rgb(255, 255, 255);" transform="matrix(1, 0, 0, 1, 25.4293212890625, 29.6676025390625)"/>
<path d="M 614.2999877929688 99.69999694824219 L 616.5999755859375 106.80000305175781 L 624.0999755859375 106.80000305175781 L 618.0999755859375 111.19999694824219 L 620.4000244140625 118.30000305175781 L 614.2999877929688 114 L 608.2999877929688 118.30000305175781 L 610.5999755859375 111.19999694824219 L 604.5 106.80000305175781 L 612 106.80000305175781 Z" class="st13" style="opacity: 0.5; fill: rgb(255, 255, 255);" transform="matrix(1, 0, 0, 1, 25.4293212890625, 29.6676025390625)"/>
<path d="M 798.9000244140625 78.9000015258789 L 801.2000122070312 86 L 808.7000122070312 86 L 802.7000122070312 90.4000015258789 L 805 97.5 L 798.9000244140625 93.0999984741211 L 792.9000244140625 97.5 L 795.2000122070312 90.4000015258789 L 789.0999755859375 86 L 796.5999755859375 86 Z" class="st12" style="fill: rgb(255, 255, 255);" transform="matrix(1, 0, 0, 1, 25.4293212890625, 29.6676025390625)"/>
<path d="M 94.80000305175781 574.5999755859375 L 97.0999984741211 581.7999877929688 L 104.5999984741211 581.7999877929688 L 98.5 586.2000122070312 L 100.80000305175781 593.2999877929688 L 94.80000305175781 588.9000244140625 L 88.69999694824219 593.2999877929688 L 91 586.2000122070312 L 85 581.7999877929688 L 92.4000015258789 581.7999877929688 Z" class="st13" style="opacity: 0.5; fill: rgb(255, 255, 255);" transform="matrix(1, 0, 0, 1, 25.4293212890625, 29.6676025390625)"/>
<path d="M 336.1000061035156 572 L 338.3999938964844 579.0999755859375 L 345.8999938964844 579.0999755859375 L 339.79998779296875 583.5 L 342.1000061035156 590.5999755859375 L 336.1000061035156 586.2000122070312 L 330 590.5999755859375 L 332.29998779296875 583.5 L 326.29998779296875 579.0999755859375 L 333.79998779296875 579.0999755859375 Z" class="st12" style="fill: rgb(255, 255, 255);" transform="matrix(1, 0, 0, 1, 25.4293212890625, 29.6676025390625)"/>
<path d="M 80.0999984741211 455.29998779296875 L 82.4000015258789 462.3999938964844 L 89.9000015258789 462.3999938964844 L 83.80000305175781 466.79998779296875 L 86.0999984741211 474 L 80.0999984741211 469.6000061035156 L 74 474 L 76.30000305175781 466.79998779296875 L 70.30000305175781 462.3999938964844 L 77.80000305175781 462.3999938964844 Z" class="st13" style="opacity: 0.5; fill: rgb(255, 255, 255);" transform="matrix(1, 0, 0, 1, 25.4293212890625, 29.6676025390625)"/>
<path d="M 395.5 697.4000244140625 L 397.79998779296875 704.5 L 405.29998779296875 704.5 L 399.20001220703125 708.9000244140625 L 401.5 716 L 395.5 711.5999755859375 L 389.3999938964844 716 L 391.70001220703125 708.9000244140625 L 385.70001220703125 704.5 L 393.20001220703125 704.5 Z" class="st13" style="opacity: 0.5; fill: rgb(255, 255, 255);" transform="matrix(1, 0, 0, 1, 25.4293212890625, 29.6676025390625)"/>
<path d="M 510.8999938964844 741.7000122070312 L 513.2000122070312 748.7999877929688 L 520.7000122070312 748.7999877929688 L 514.5999755859375 753.2000122070312 L 516.9000244140625 760.4000244140625 L 510.8999938964844 756 L 504.79998779296875 760.4000244140625 L 507.1000061035156 753.2000122070312 L 501.1000061035156 748.7999877929688 L 508.6000061035156 748.7999877929688 Z" class="st13" style="opacity: 0.5; fill: rgb(255, 255, 255);" transform="matrix(1, 0, 0, 1, 25.4293212890625, 29.6676025390625)"/>
<path d="M 45.20000076293945 677.5999755859375 L 47.5 684.7999877929688 L 55 684.7999877929688 L 49 689.2000122070312 L 51.29999923706055 696.2999877929688 L 45.20000076293945 691.9000244140625 L 39.20000076293945 696.2999877929688 L 41.5 689.2000122070312 L 35.400001525878906 684.7999877929688 L 42.900001525878906 684.7999877929688 Z" class="st13" style="opacity: 0.5; fill: rgb(255, 255, 255);" transform="matrix(1, 0, 0, 1, 25.4293212890625, 29.6676025390625)"/>
<path d="M 994.4000244140625 340.79998779296875 L 996.7000122070312 347.8999938964844 L 1004.2000122070312 347.8999938964844 L 998.2000122070312 352.29998779296875 L 1000.5 359.3999938964844 L 994.4000244140625 355 L 988.4000244140625 359.3999938964844 L 990.7000122070312 352.29998779296875 L 984.5999755859375 347.8999938964844 L 992.0999755859375 347.8999938964844 Z" class="st13" style="opacity: 0.5; fill: rgb(255, 255, 255);" transform="matrix(1, 0, 0, 1, 25.4293212890625, 29.6676025390625)"/>
<path d="M 1075.9000244140625 278.70001220703125 L 1078.199951171875 285.8999938964844 L 1085.699951171875 285.8999938964844 L 1079.699951171875 290.29998779296875 L 1082 297.3999938964844 L 1075.9000244140625 293 L 1069.9000244140625 297.3999938964844 L 1072.199951171875 290.29998779296875 L 1066.0999755859375 285.8999938964844 L 1073.5999755859375 285.8999938964844 Z" class="st13" style="opacity: 0.5; fill: rgb(255, 255, 255);" transform="matrix(1, 0, 0, 1, 25.4293212890625, 29.6676025390625)"/>
<path d="M 1055.699951171875 177.39999389648438 L 1058 184.60000610351562 L 1065.5 184.60000610351562 L 1059.4000244140625 189 L 1061.800048828125 196.10000610351562 L 1055.699951171875 191.6999969482422 L 1049.699951171875 196.10000610351562 L 1052 189 L 1045.9000244140625 184.60000610351562 L 1053.4000244140625 184.60000610351562 Z" class="st12" style="fill: rgb(255, 255, 255);" transform="matrix(1, 0, 0, 1, 25.4293212890625, 29.6676025390625)"/>
<path d="M 1064 611.9000244140625 L 1066.300048828125 619 L 1073.800048828125 619 L 1067.800048828125 623.4000244140625 L 1070.0999755859375 630.5 L 1064 626.0999755859375 L 1058 630.5 L 1060.300048828125 623.4000244140625 L 1054.199951171875 619 L 1061.699951171875 619 Z" class="st13" style="opacity: 0.5; fill: rgb(255, 255, 255);" transform="matrix(1, 0, 0, 1, 25.4293212890625, 29.6676025390625)"/>
<path d="M 292.29998779296875 555 L 294.6000061035156 562.0999755859375 L 302.1000061035156 562.0999755859375 L 296 566.5 L 298.3999938964844 573.5999755859375 L 292.29998779296875 569.2000122070312 L 286.29998779296875 573.5999755859375 L 288.6000061035156 566.5 L 282.5 562.0999755859375 L 290 562.0999755859375 Z" class="st13" style="opacity: 0.5; fill: rgb(255, 255, 255);" transform="matrix(1, 0, 0, 1, 25.4293212890625, 29.6676025390625)"/>
<path d="M 251.10000610351562 448.1000061035156 L 253.39999389648438 455.20001220703125 L 260.8999938964844 455.20001220703125 L 254.89999389648438 459.6000061035156 L 257.20001220703125 466.70001220703125 L 251.10000610351562 462.29998779296875 L 245.10000610351562 466.70001220703125 L 247.39999389648438 459.6000061035156 L 241.3000030517578 455.20001220703125 L 248.8000030517578 455.20001220703125 Z" class="st13" style="opacity: 0.5; fill: rgb(255, 255, 255);" transform="matrix(1, 0, 0, 1, 25.4293212890625, 29.6676025390625)"/>
<path d="M 136.8000030517578 464.79998779296875 L 139.1999969482422 471.8999938964844 L 146.60000610351562 471.8999938964844 L 140.60000610351562 476.29998779296875 L 142.89999389648438 483.3999938964844 L 136.8000030517578 479 L 130.8000030517578 483.3999938964844 L 133.10000610351562 476.29998779296875 L 127 471.8999938964844 L 134.5 471.8999938964844 Z" class="st13" style="opacity: 0.5; fill: rgb(255, 255, 255);" transform="matrix(1, 0, 0, 1, 25.4293212890625, 29.6676025390625)"/>
<path d="M 63.20000076293945 397.8999938964844 L 65.5 405 L 73 405 L 67 409.3999938964844 L 69.30000305175781 416.5 L 63.20000076293945 412.1000061035156 L 57.20000076293945 416.5 L 59.5 409.3999938964844 L 53.400001525878906 405 L 60.900001525878906 405 Z" class="st13" style="opacity: 0.5; fill: rgb(255, 255, 255);" transform="matrix(1, 0, 0, 1, 25.4293212890625, 29.6676025390625)"/>
<path d="M 1132.5 124.69999694824219 L 1134.800048828125 131.8000030517578 L 1142.300048828125 131.8000030517578 L 1136.199951171875 136.1999969482422 L 1138.5999755859375 143.3000030517578 L 1132.5 138.89999389648438 L 1126.5 143.3000030517578 L 1128.800048828125 136.1999969482422 L 1122.699951171875 131.8000030517578 L 1130.199951171875 131.8000030517578 Z" class="st13" style="opacity: 0.5; fill: rgb(255, 255, 255);" transform="matrix(1, 0, 0, 1, 25.4293212890625, 29.6676025390625)"/>
<path d="M 1110.300048828125 31.700000762939453 L 1112.5999755859375 38.79999923706055 L 1120.0999755859375 38.79999923706055 L 1114 43.20000076293945 L 1116.4000244140625 50.29999923706055 L 1110.300048828125 45.900001525878906 L 1104.199951171875 50.29999923706055 L 1106.5 43.20000076293945 L 1100.5 38.79999923706055 L 1108 38.79999923706055 Z" class="st13" style="opacity: 0.5; fill: rgb(255, 255, 255);" transform="matrix(1, 0, 0, 1, 25.4293212890625, 29.6676025390625)"/>
<path d="M 287.20001220703125 132.8000030517578 L 289.6000061035156 139.89999389648438 L 297 139.89999389648438 L 291 144.3000030517578 L 293.29998779296875 151.39999389648438 L 287.20001220703125 147 L 281.20001220703125 151.39999389648438 L 283.5 144.3000030517578 L 277.5 139.89999389648438 L 284.8999938964844 139.89999389648438 Z" class="st12" style="fill: rgb(255, 255, 255);" transform="matrix(1, 0, 0, 1, 25.4293212890625, 29.6676025390625)"/>
<path d="M 174.8000030517578 73.0999984741211 L 177.10000610351562 80.19999694824219 L 184.60000610351562 80.19999694824219 L 178.60000610351562 84.5999984741211 L 180.89999389648438 91.69999694824219 L 174.8000030517578 87.30000305175781 L 168.8000030517578 91.69999694824219 L 171.10000610351562 84.5999984741211 L 165 80.19999694824219 L 172.5 80.19999694824219 Z" class="st13" style="opacity: 0.5; fill: rgb(255, 255, 255);" transform="matrix(1, 0, 0, 1, 25.4293212890625, 29.6676025390625)"/>
<path d="M 835.9000244140625 221.5 L 838.2000122070312 228.60000610351562 L 845.7000122070312 228.60000610351562 L 839.5999755859375 233 L 841.9000244140625 240.10000610351562 L 835.9000244140625 235.6999969482422 L 829.7999877929688 240.10000610351562 L 832.0999755859375 233 L 826.0999755859375 228.60000610351562 L 833.5999755859375 228.60000610351562 Z" class="st13" style="opacity: 0.5; fill: rgb(255, 255, 255);" transform="matrix(1, 0, 0, 1, 25.4293212890625, 29.6676025390625)"/>
<path d="M 771.2000122070312 305.1000061035156 L 773.5 312.20001220703125 L 781 312.20001220703125 L 774.9000244140625 316.70001220703125 L 777.2000122070312 323.79998779296875 L 771.2000122070312 319.3999938964844 L 765.0999755859375 323.79998779296875 L 767.4000244140625 316.70001220703125 L 761.4000244140625 312.20001220703125 L 768.7999877929688 312.20001220703125 Z" class="st13" style="opacity: 0.5; fill: rgb(255, 255, 255);" transform="matrix(1, 0, 0, 1, 25.4293212890625, 29.6676025390625)"/>
<path d="M 744.2999877929688 241.10000610351562 L 746.5999755859375 248.1999969482422 L 754.0999755859375 248.1999969482422 L 748.0999755859375 252.60000610351562 L 750.4000244140625 259.70001220703125 L 744.2999877929688 255.3000030517578 L 738.2999877929688 259.70001220703125 L 740.5999755859375 252.60000610351562 L 734.5 248.1999969482422 L 742 248.1999969482422 Z" class="st13" style="opacity: 0.5; fill: rgb(255, 255, 255);" transform="matrix(1, 0, 0, 1, 25.4293212890625, 29.6676025390625)"/>
<path d="M 814.0999755859375 379.29998779296875 L 816.4000244140625 386.3999938964844 L 823.9000244140625 386.3999938964844 L 817.7999877929688 390.79998779296875 L 820.0999755859375 398 L 814.0999755859375 393.6000061035156 L 808 398 L 810.2999877929688 390.79998779296875 L 804.2999877929688 386.3999938964844 L 811.7000122070312 386.3999938964844 Z" class="st13" style="opacity: 0.5; fill: rgb(255, 255, 255);" transform="matrix(1, 0, 0, 1, 25.4293212890625, 29.6676025390625)"/>
<path d="M 1068.5999755859375 692.4000244140625 L 1071 699.5 L 1078.4000244140625 699.5 L 1072.4000244140625 703.9000244140625 L 1074.699951171875 711 L 1068.5999755859375 706.5999755859375 L 1062.5999755859375 711 L 1064.9000244140625 703.9000244140625 L 1058.800048828125 699.5 L 1066.300048828125 699.5 Z" class="st13" style="opacity: 0.5; fill: rgb(255, 255, 255);" transform="matrix(1, 0, 0, 1, 25.4293212890625, 29.6676025390625)"/>
<path d="M 1272.699951171875 778.4000244140625 L 1275 785.5999755859375 L 1282.5 785.5999755859375 L 1276.4000244140625 789.9000244140625 L 1278.699951171875 797.0999755859375 L 1272.699951171875 792.7000122070312 L 1266.5999755859375 797.0999755859375 L 1268.9000244140625 789.9000244140625 L 1262.9000244140625 785.5999755859375 L 1270.4000244140625 785.5999755859375 Z" class="st13" style="opacity: 0.5; fill: rgb(255, 255, 255);" transform="matrix(1, 0, 0, 1, 25.4293212890625, 29.6676025390625)"/>
<path d="M 1219.9000244140625 634.0999755859375 L 1222.300048828125 641.2000122070312 L 1229.699951171875 641.2000122070312 L 1223.699951171875 645.5999755859375 L 1226 652.7000122070312 L 1219.9000244140625 648.2999877929688 L 1213.9000244140625 652.7000122070312 L 1216.199951171875 645.5999755859375 L 1210.0999755859375 641.2000122070312 L 1217.5999755859375 641.2000122070312 Z" class="st13" style="opacity: 0.5; fill: rgb(255, 255, 255);" transform="matrix(1, 0, 0, 1, 25.4293212890625, 29.6676025390625)"/>
<path d="M 877.0999755859375 304.29998779296875 L 879.5 311.3999938964844 L 886.9000244140625 311.3999938964844 L 880.9000244140625 315.79998779296875 L 883.2000122070312 322.8999938964844 L 877.0999755859375 318.5 L 871.0999755859375 322.8999938964844 L 873.4000244140625 315.79998779296875 L 867.2999877929688 311.3999938964844 L 874.7999877929688 311.3999938964844 Z" class="st13" style="opacity: 0.5; fill: rgb(255, 255, 255);" transform="matrix(1, 0, 0, 1, 25.4293212890625, 29.6676025390625)"/>
<path d="M 700.0999755859375 422.8999938964844 L 702.4000244140625 430 L 709.9000244140625 430 L 703.9000244140625 434.3999938964844 L 706.2000122070312 441.6000061035156 L 700.0999755859375 437.20001220703125 L 694.0999755859375 441.6000061035156 L 696.4000244140625 434.3999938964844 L 690.2999877929688 430 L 697.7999877929688 430 Z" class="st13" style="opacity: 0.5; fill: rgb(255, 255, 255);" transform="matrix(1, 0, 0, 1, 25.4293212890625, 29.6676025390625)"/>
<path d="M 516.7999877929688 529.2999877929688 L 519.0999755859375 536.5 L 526.5999755859375 536.5 L 520.5 540.9000244140625 L 522.7999877929688 548 L 516.7999877929688 543.5999755859375 L 510.70001220703125 548 L 513 540.9000244140625 L 507 536.5 L 514.5 536.5 Z" class="st13" style="opacity: 0.5; fill: rgb(255, 255, 255);" transform="matrix(1, 0, 0, 1, 25.4293212890625, 29.6676025390625)"/>
<path d="M 640.5999755859375 513.0999755859375 L 643 520.2000122070312 L 650.4000244140625 520.2000122070312 L 644.4000244140625 524.5999755859375 L 646.7000122070312 531.7000122070312 L 640.5999755859375 527.2999877929688 L 634.5999755859375 531.7000122070312 L 636.9000244140625 524.5999755859375 L 630.7999877929688 520.2000122070312 L 638.2999877929688 520.2000122070312 Z" class="st13" style="opacity: 0.5; fill: rgb(255, 255, 255);" transform="matrix(1, 0, 0, 1, 25.4293212890625, 29.6676025390625)"/>
<path d="M 600 475.70001220703125 L 602.2999877929688 482.79998779296875 L 609.7999877929688 482.79998779296875 L 603.7000122070312 487.20001220703125 L 606 494.29998779296875 L 600 489.8999938964844 L 593.9000244140625 494.29998779296875 L 596.2000122070312 487.20001220703125 L 590.2000122070312 482.79998779296875 L 597.7000122070312 482.79998779296875 Z" class="st13" style="opacity: 0.5; fill: rgb(255, 255, 255);" transform="matrix(1, 0, 0, 1, 25.4293212890625, 29.6676025390625)"/>
<path d="M 559.7000122070312 411.79998779296875 L 562 418.8999938964844 L 569.5 418.8999938964844 L 563.5 423.3999938964844 L 565.7999877929688 430.5 L 559.7000122070312 426.1000061035156 L 553.7000122070312 430.5 L 556 423.3999938964844 L 549.9000244140625 418.8999938964844 L 557.4000244140625 418.8999938964844 Z" class="st13" style="opacity: 0.5; fill: rgb(255, 255, 255);" transform="matrix(1, 0, 0, 1, 25.4293212890625, 29.6676025390625)"/>
<path d="M 865.5 696.5 L 867.9000244140625 703.7000122070312 L 875.2999877929688 703.7000122070312 L 869.2999877929688 708.0999755859375 L 871.5999755859375 715.2000122070312 L 865.5 710.7999877929688 L 859.5 715.2000122070312 L 861.7999877929688 708.0999755859375 L 855.7000122070312 703.7000122070312 L 863.2000122070312 703.7000122070312 Z" class="st13" style="opacity: 0.5; fill: rgb(255, 255, 255);" transform="matrix(1, 0, 0, 1, 25.4293212890625, 29.6676025390625)"/>
<path d="M 1177.4000244140625 704.7000122070312 L 1179.699951171875 711.7999877929688 L 1187.199951171875 711.7999877929688 L 1181.0999755859375 716.2000122070312 L 1183.4000244140625 723.2999877929688 L 1177.4000244140625 718.9000244140625 L 1171.300048828125 723.2999877929688 L 1173.5999755859375 716.2000122070312 L 1167.5999755859375 711.7999877929688 L 1175.0999755859375 711.7999877929688 Z" class="st13" style="opacity: 0.5; fill: rgb(255, 255, 255);" transform="matrix(1, 0, 0, 1, 25.4293212890625, 29.6676025390625)"/>
<path d="M 527.7000122070312 461.20001220703125 L 530 468.29998779296875 L 537.5 468.29998779296875 L 531.4000244140625 472.70001220703125 L 533.7000122070312 479.79998779296875 L 527.7000122070312 475.3999938964844 L 521.5999755859375 479.79998779296875 L 523.9000244140625 472.70001220703125 L 517.9000244140625 468.29998779296875 L 525.4000244140625 468.29998779296875 Z" class="st13" style="opacity: 0.5; fill: rgb(255, 255, 255);" transform="matrix(1, 0, 0, 1, 25.4293212890625, 29.6676025390625)"/>
<path d="M 442.3999938964844 393 L 444.70001220703125 400.1000061035156 L 452.20001220703125 400.1000061035156 L 446.20001220703125 404.5 L 448.5 411.6000061035156 L 442.3999938964844 407.20001220703125 L 436.3999938964844 411.6000061035156 L 438.70001220703125 404.5 L 432.6000061035156 400.1000061035156 L 440.1000061035156 400.1000061035156 Z" class="st13" style="opacity: 0.5; fill: rgb(255, 255, 255);" transform="matrix(1, 0, 0, 1, 25.4293212890625, 29.6676025390625)"/>
<path d="M 429.79998779296875 510.6000061035156 L 432.1000061035156 517.7000122070312 L 439.6000061035156 517.7000122070312 L 433.6000061035156 522.0999755859375 L 435.8999938964844 529.2000122070312 L 429.79998779296875 524.7999877929688 L 423.79998779296875 529.2000122070312 L 426.1000061035156 522.0999755859375 L 420 517.7000122070312 L 427.5 517.7000122070312 Z" class="st13" style="opacity: 0.5; fill: rgb(255, 255, 255);" transform="matrix(1, 0, 0, 1, 25.4293212890625, 29.6676025390625)"/>
<path d="M 499.6000061035156 596.5999755859375 L 501.8999938964844 603.7000122070312 L 509.3999938964844 603.7000122070312 L 503.29998779296875 608.0999755859375 L 505.6000061035156 615.2999877929688 L 499.6000061035156 610.9000244140625 L 493.5 615.2999877929688 L 495.79998779296875 608.0999755859375 L 489.79998779296875 603.7000122070312 L 497.29998779296875 603.7000122070312 Z" class="st13" style="opacity: 0.5; fill: rgb(255, 255, 255);" transform="matrix(1, 0, 0, 1, 25.4293212890625, 29.6676025390625)"/>
<path d="M 663.2999877929688 685.5 L 665.7000122070312 692.5999755859375 L 673.0999755859375 692.5999755859375 L 667.0999755859375 697 L 669.4000244140625 704.0999755859375 L 663.2999877929688 699.7000122070312 L 657.2999877929688 704.0999755859375 L 659.5999755859375 697 L 653.5999755859375 692.5999755859375 L 661 692.5999755859375 Z" class="st13" style="opacity: 0.5; fill: rgb(255, 255, 255);" transform="matrix(1, 0, 0, 1, 25.4293212890625, 29.6676025390625)"/>
<path d="M 736.9000244140625 532.7999877929688 L 739.2000122070312 539.9000244140625 L 746.7000122070312 539.9000244140625 L 740.7000122070312 544.2999877929688 L 743 551.4000244140625 L 736.9000244140625 547 L 730.9000244140625 551.4000244140625 L 733.2000122070312 544.2999877929688 L 727.0999755859375 539.9000244140625 L 734.5999755859375 539.9000244140625 Z" class="st13" style="opacity: 0.5; fill: rgb(255, 255, 255);" transform="matrix(1, 0, 0, 1, 25.4293212890625, 29.6676025390625)"/>
<path d="M 235.89999389648438 774.2999877929688 L 238.1999969482422 781.4000244140625 L 245.60000610351562 781.4000244140625 L 239.60000610351562 785.7999877929688 L 241.89999389648438 792.9000244140625 L 235.89999389648438 788.5 L 229.8000030517578 792.9000244140625 L 232.10000610351562 785.7999877929688 L 226.10000610351562 781.4000244140625 L 233.5 781.4000244140625 Z" class="st13" style="opacity: 0.5; fill: rgb(255, 255, 255);" transform="matrix(1, 0, 0, 1, 25.4293212890625, 29.6676025390625)"/>
<path d="M 227.5 688.2000122070312 L 229.8000030517578 695.2999877929688 L 237.3000030517578 695.2999877929688 L 231.3000030517578 699.7000122070312 L 233.60000610351562 706.9000244140625 L 227.5 702.5 L 221.5 706.9000244140625 L 223.8000030517578 699.7000122070312 L 217.6999969482422 695.2999877929688 L 225.1999969482422 695.2999877929688 Z" class="st13" style="opacity: 0.5; fill: rgb(255, 255, 255);" transform="matrix(1, 0, 0, 1, 25.4293212890625, 29.6676025390625)"/>
<path d="M 456.1000061035156 292.3999938964844 L 458.3999938964844 299.5 L 465.8999938964844 299.5 L 459.79998779296875 303.8999938964844 L 462.1000061035156 311 L 456.1000061035156 306.6000061035156 L 450 311 L 452.29998779296875 303.8999938964844 L 446.29998779296875 299.5 L 453.79998779296875 299.5 Z" class="st13" style="opacity: 0.5; fill: rgb(255, 255, 255);" transform="matrix(1, 0, 0, 1, 25.4293212890625, 29.6676025390625)"/>
<path d="M 601.7999877929688 264.6000061035156 L 604.0999755859375 271.79998779296875 L 611.5999755859375 271.79998779296875 L 605.5 276.20001220703125 L 607.7999877929688 283.29998779296875 L 601.7999877929688 278.8999938964844 L 595.7000122070312 283.29998779296875 L 598 276.20001220703125 L 592 271.79998779296875 L 599.5 271.79998779296875 Z" class="st13" style="opacity: 0.5; fill: rgb(255, 255, 255);" transform="matrix(1, 0, 0, 1, 25.4293212890625, 29.6676025390625)"/>
<path d="M 650.4000244140625 229.89999389648438 L 652.7000122070312 237.10000610351562 L 660.2000122070312 237.10000610351562 L 654.0999755859375 241.5 L 656.4000244140625 248.60000610351562 L 650.4000244140625 244.1999969482422 L 644.2999877929688 248.60000610351562 L 646.5999755859375 241.5 L 640.5999755859375 237.10000610351562 L 648 237.10000610351562 Z" class="st13" style="opacity: 0.5; fill: rgb(255, 255, 255);" transform="matrix(1, 0, 0, 1, 25.4293212890625, 29.6676025390625)"/>
<path d="M 617.5 198.3000030517578 L 619.9000244140625 205.39999389648438 L 627.4000244140625 205.39999389648438 L 621.2999877929688 209.8000030517578 L 623.5999755859375 216.89999389648438 L 617.5 212.5 L 611.5 216.89999389648438 L 613.7999877929688 209.8000030517578 L 607.7999877929688 205.39999389648438 L 615.2000122070312 205.39999389648438 Z" class="st12" style="fill: rgb(255, 255, 255);" transform="matrix(1, 0, 0, 1, 25.4293212890625, 29.6676025390625)"/>
<path d="M 656.4000244140625 128.8000030517578 L 657.7000122070312 132.89999389648438 L 662.0999755859375 132.89999389648438 L 658.5999755859375 135.5 L 659.9000244140625 139.6999969482422 L 656.4000244140625 137.10000610351562 L 652.7999877929688 139.6999969482422 L 654.2000122070312 135.5 L 650.5999755859375 132.89999389648438 L 655 132.89999389648438 Z" class="st13" style="opacity: 0.5; fill: rgb(255, 255, 255);" transform="matrix(1, 0, 0, 1, 25.4293212890625, 29.6676025390625)"/>
<path d="M 651.9000244140625 89 L 653.2999877929688 93.0999984741211 L 657.5999755859375 93.0999984741211 L 654.0999755859375 95.69999694824219 L 655.5 99.9000015258789 L 651.9000244140625 97.30000305175781 L 648.4000244140625 99.9000015258789 L 649.7000122070312 95.69999694824219 L 646.2000122070312 93.0999984741211 L 650.5999755859375 93.0999984741211 Z" class="st13" style="opacity: 0.5; fill: rgb(255, 255, 255);" transform="matrix(1, 0, 0, 1, 25.4293212890625, 29.6676025390625)"/>
<path d="M 618 144.3000030517578 L 619.4000244140625 148.5 L 623.7999877929688 148.5 L 620.2000122070312 151 L 621.5999755859375 155.1999969482422 L 618 152.60000610351562 L 614.5 155.1999969482422 L 615.9000244140625 151 L 612.2999877929688 148.5 L 616.7000122070312 148.5 Z" class="st13" style="opacity: 0.5; fill: rgb(255, 255, 255);" transform="matrix(1, 0, 0, 1, 25.4293212890625, 29.6676025390625)"/>
<path d="M 622.0999755859375 69.30000305175781 L 623.5 73.5 L 627.9000244140625 73.5 L 624.2999877929688 76.0999984741211 L 625.7000122070312 80.30000305175781 L 622.0999755859375 77.69999694824219 L 618.5999755859375 80.30000305175781 L 620 76.0999984741211 L 616.4000244140625 73.5 L 620.7999877929688 73.5 Z" class="st13" style="opacity: 0.5; fill: rgb(255, 255, 255);" transform="matrix(1, 0, 0, 1, 25.4293212890625, 29.6676025390625)"/>
<path d="M 1307.300048828125 293 L 1308.5999755859375 297.20001220703125 L 1313 297.20001220703125 L 1309.5 299.79998779296875 L 1310.800048828125 303.8999938964844 L 1307.300048828125 301.29998779296875 L 1303.699951171875 303.8999938964844 L 1305.0999755859375 299.79998779296875 L 1301.5 297.20001220703125 L 1305.9000244140625 297.20001220703125 Z" class="st13" style="opacity: 0.5; fill: rgb(255, 255, 255);" transform="matrix(1, 0, 0, 1, 25.4293212890625, 29.6676025390625)"/>
<path d="M 1290.5999755859375 244.39999389648438 L 1292 248.60000610351562 L 1296.300048828125 248.60000610351562 L 1292.800048828125 251.1999969482422 L 1294.0999755859375 255.3000030517578 L 1290.5999755859375 252.8000030517578 L 1287.0999755859375 255.3000030517578 L 1288.4000244140625 251.1999969482422 L 1284.9000244140625 248.60000610351562 L 1289.300048828125 248.60000610351562 Z" class="st13" style="opacity: 0.5; fill: rgb(255, 255, 255);" transform="matrix(1, 0, 0, 1, 25.4293212890625, 29.6676025390625)"/>
<path d="M 1328.5999755859375 223.39999389648438 L 1330 227.60000610351562 L 1334.4000244140625 227.60000610351562 L 1330.800048828125 230.1999969482422 L 1332.199951171875 234.3000030517578 L 1328.5999755859375 231.6999969482422 L 1325.0999755859375 234.3000030517578 L 1326.4000244140625 230.1999969482422 L 1322.9000244140625 227.60000610351562 L 1327.300048828125 227.60000610351562 Z" class="st13" style="opacity: 0.5; fill: rgb(255, 255, 255);" transform="matrix(1, 0, 0, 1, 25.4293212890625, 29.6676025390625)"/>
<path d="M 593.0999755859375 51.29999923706055 L 594.4000244140625 55.5 L 598.7999877929688 55.5 L 595.2999877929688 58 L 596.5999755859375 62.20000076293945 L 593.0999755859375 59.599998474121094 L 589.5 62.20000076293945 L 590.9000244140625 58 L 587.2999877929688 55.5 L 591.7000122070312 55.5 Z" class="st13" style="opacity: 0.5; fill: rgb(255, 255, 255);" transform="matrix(1, 0, 0, 1, 25.4293212890625, 29.6676025390625)"/>
<path d="M 248.8000030517578 197 L 250.1999969482422 201.1999969482422 L 254.5 201.1999969482422 L 251 203.8000030517578 L 252.39999389648438 207.89999389648438 L 248.8000030517578 205.39999389648438 L 245.3000030517578 207.89999389648438 L 246.60000610351562 203.8000030517578 L 243.10000610351562 201.1999969482422 L 247.5 201.1999969482422 Z" class="st13" style="opacity: 0.5; fill: rgb(255, 255, 255);" transform="matrix(1, 0, 0, 1, 25.4293212890625, 29.6676025390625)"/>
<path d="M 221.10000610351562 163.6999969482422 L 222.39999389648438 167.89999389648438 L 226.8000030517578 167.89999389648438 L 223.3000030517578 170.5 L 224.60000610351562 174.60000610351562 L 221.10000610351562 172.10000610351562 L 217.5 174.60000610351562 L 218.89999389648438 170.5 L 215.39999389648438 167.89999389648438 L 219.6999969482422 167.89999389648438 Z" class="st13" style="opacity: 0.5; fill: rgb(255, 255, 255);" transform="matrix(1, 0, 0, 1, 25.4293212890625, 29.6676025390625)"/>
<path d="M 211.1999969482422 122.0999984741211 L 212.5 126.30000305175781 L 216.89999389648438 126.30000305175781 L 213.3000030517578 128.8000030517578 L 214.6999969482422 133 L 211.1999969482422 130.39999389648438 L 207.60000610351562 133 L 209 128.8000030517578 L 205.39999389648438 126.30000305175781 L 209.8000030517578 126.30000305175781 Z" class="st13" style="opacity: 0.5; fill: rgb(255, 255, 255);" transform="matrix(1, 0, 0, 1, 25.4293212890625, 29.6676025390625)"/>
<path d="M 232.6999969482422 82 L 234.10000610351562 86.19999694824219 L 238.5 86.19999694824219 L 234.89999389648438 88.80000305175781 L 236.3000030517578 92.9000015258789 L 232.6999969482422 90.4000015258789 L 229.1999969482422 92.9000015258789 L 230.60000610351562 88.80000305175781 L 227 86.19999694824219 L 231.39999389648438 86.19999694824219 Z" class="st13" style="opacity: 0.5; fill: rgb(255, 255, 255);" transform="matrix(1, 0, 0, 1, 25.4293212890625, 29.6676025390625)"/>
<path d="M 90.5999984741211 226.1999969482422 L 91.9000015258789 230.39999389648438 L 96.30000305175781 230.39999389648438 L 92.80000305175781 232.89999389648438 L 94.0999984741211 237.10000610351562 L 90.5999984741211 234.5 L 87 237.10000610351562 L 88.4000015258789 232.89999389648438 L 84.80000305175781 230.39999389648438 L 89.19999694824219 230.39999389648438 Z" class="st13" style="opacity: 0.5; fill: rgb(255, 255, 255);" transform="matrix(1, 0, 0, 1, 25.4293212890625, 29.6676025390625)"/>
<path d="M 151.60000610351562 333.1000061035156 L 153 337.20001220703125 L 157.3000030517578 337.20001220703125 L 153.8000030517578 339.79998779296875 L 155.1999969482422 344 L 151.60000610351562 341.3999938964844 L 148.10000610351562 344 L 149.39999389648438 339.79998779296875 L 145.89999389648438 337.20001220703125 L 150.3000030517578 337.20001220703125 Z" class="st13" style="opacity: 0.5; fill: rgb(255, 255, 255);" transform="matrix(1, 0, 0, 1, 25.4293212890625, 29.6676025390625)"/>
<path d="M 103.69999694824219 670.5999755859375 L 105 674.7000122070312 L 109.4000015258789 674.7000122070312 L 105.9000015258789 677.2999877929688 L 107.19999694824219 681.5 L 103.69999694824219 678.9000244140625 L 100.0999984741211 681.5 L 101.5 677.2999877929688 L 98 674.7000122070312 L 102.30000305175781 674.7000122070312 Z" class="st13" style="opacity: 0.5; fill: rgb(255, 255, 255);" transform="matrix(1, 0, 0, 1, 25.4293212890625, 29.6676025390625)"/>
<path d="M 39.79999923706055 720.5 L 41.20000076293945 724.7000122070312 L 45.599998474121094 724.7000122070312 L 42 727.2999877929688 L 43.400001525878906 731.4000244140625 L 39.79999923706055 728.9000244140625 L 36.29999923706055 731.4000244140625 L 37.70000076293945 727.2999877929688 L 34.099998474121094 724.7000122070312 L 38.5 724.7000122070312 Z" class="st13" style="opacity: 0.5; fill: rgb(255, 255, 255);" transform="matrix(1, 0, 0, 1, 25.4293212890625, 29.6676025390625)"/>
<path d="M 121.0999984741211 295.6000061035156 L 122.5 299.79998779296875 L 126.80000305175781 299.79998779296875 L 123.30000305175781 302.29998779296875 L 124.69999694824219 306.5 L 121.0999984741211 303.8999938964844 L 117.5999984741211 306.5 L 118.9000015258789 302.29998779296875 L 115.4000015258789 299.79998779296875 L 119.80000305175781 299.79998779296875 Z" class="st13" style="opacity: 0.5; fill: rgb(255, 255, 255);" transform="matrix(1, 0, 0, 1, 25.4293212890625, 29.6676025390625)"/>
<path d="M 25.899999618530273 363.79998779296875 L 27.299999237060547 368 L 31.700000762939453 368 L 28.100000381469727 370.5 L 29.5 374.70001220703125 L 25.899999618530273 372.1000061035156 L 22.399999618530273 374.70001220703125 L 23.700000762939453 370.5 L 20.200000762939453 368 L 24.600000381469727 368 Z" class="st13" style="opacity: 0.5; fill: rgb(255, 255, 255);" transform="matrix(1, 0, 0, 1, 25.4293212890625, 29.6676025390625)"/>
<path d="M 1173.800048828125 112.5999984741211 L 1175.0999755859375 116.69999694824219 L 1179.5 116.69999694824219 L 1176 119.30000305175781 L 1177.300048828125 123.5 L 1173.800048828125 120.9000015258789 L 1170.300048828125 123.5 L 1171.5999755859375 119.30000305175781 L 1168.0999755859375 116.69999694824219 L 1172.4000244140625 116.69999694824219 Z" class="st13" style="opacity: 0.5; fill: rgb(255, 255, 255);" transform="matrix(1, 0, 0, 1, 25.4293212890625, 29.6676025390625)"/>
<path d="M 1178.800048828125 155.39999389648438 L 1180.199951171875 159.60000610351562 L 1184.5 159.60000610351562 L 1181 162.10000610351562 L 1182.300048828125 166.3000030517578 L 1178.800048828125 163.6999969482422 L 1175.300048828125 166.3000030517578 L 1176.5999755859375 162.10000610351562 L 1173.0999755859375 159.60000610351562 L 1177.4000244140625 159.60000610351562 Z" class="st13" style="opacity: 0.5; fill: rgb(255, 255, 255);" transform="matrix(1, 0, 0, 1, 25.4293212890625, 29.6676025390625)"/>
<path d="M 1114.0999755859375 241.6999969482422 L 1115.5 245.8000030517578 L 1119.800048828125 245.8000030517578 L 1116.300048828125 248.39999389648438 L 1117.699951171875 252.60000610351562 L 1114.0999755859375 250 L 1110.5999755859375 252.60000610351562 L 1111.9000244140625 248.39999389648438 L 1108.4000244140625 245.8000030517578 L 1112.800048828125 245.8000030517578 Z" class="st13" style="opacity: 0.5; fill: rgb(255, 255, 255);" transform="matrix(1, 0, 0, 1, 25.4293212890625, 29.6676025390625)"/>
<path d="M 1072.5 356.8999938964844 L 1073.800048828125 361 L 1078.199951171875 361 L 1074.699951171875 363.6000061035156 L 1076 367.79998779296875 L 1072.5 365.20001220703125 L 1068.9000244140625 367.79998779296875 L 1070.300048828125 363.6000061035156 L 1066.699951171875 361 L 1071.0999755859375 361 Z" class="st13" style="opacity: 0.5; fill: rgb(255, 255, 255);" transform="matrix(1, 0, 0, 1, 25.4293212890625, 29.6676025390625)"/>
<path d="M 1162.0999755859375 210.89999389648438 L 1163.5 215.10000610351562 L 1167.800048828125 215.10000610351562 L 1164.300048828125 217.6999969482422 L 1165.699951171875 221.8000030517578 L 1162.0999755859375 219.3000030517578 L 1158.5999755859375 221.8000030517578 L 1159.9000244140625 217.6999969482422 L 1156.4000244140625 215.10000610351562 L 1160.699951171875 215.10000610351562 Z" class="st13" style="opacity: 0.5; fill: rgb(255, 255, 255);" transform="matrix(1, 0, 0, 1, 25.4293212890625, 29.6676025390625)"/>
<path d="M 1161.300048828125 73.69999694824219 L 1162.699951171875 77.9000015258789 L 1167 77.9000015258789 L 1163.5 80.4000015258789 L 1164.9000244140625 84.5999984741211 L 1161.300048828125 82 L 1157.800048828125 84.5999984741211 L 1159.0999755859375 80.4000015258789 L 1155.5999755859375 77.9000015258789 L 1160 77.9000015258789 Z" class="st13" style="opacity: 0.5; fill: rgb(255, 255, 255);" transform="matrix(1, 0, 0, 1, 25.4293212890625, 29.6676025390625)"/>
<path d="M 758.7999877929688 170.89999389648438 L 760.2000122070312 175 L 764.5999755859375 175 L 761 177.60000610351562 L 762.4000244140625 181.8000030517578 L 758.7999877929688 179.1999969482422 L 755.2999877929688 181.8000030517578 L 756.5999755859375 177.60000610351562 L 753.0999755859375 175 L 757.5 175 Z" class="st13" style="opacity: 0.5; fill: rgb(255, 255, 255);" transform="matrix(1, 0, 0, 1, 25.4293212890625, 29.6676025390625)"/>
<path d="M 1212.0999755859375 340 L 1213.4000244140625 344.20001220703125 L 1217.800048828125 344.20001220703125 L 1214.300048828125 346.70001220703125 L 1215.5999755859375 350.8999938964844 L 1212.0999755859375 348.29998779296875 L 1208.5 350.8999938964844 L 1209.9000244140625 346.70001220703125 L 1206.300048828125 344.20001220703125 L 1210.699951171875 344.20001220703125 Z" class="st13" style="opacity: 0.5; fill: rgb(255, 255, 255);" transform="matrix(1, 0, 0, 1, 25.4293212890625, 29.6676025390625)"/>
<path d="M 781.7999877929688 216.5 L 783.2000122070312 220.60000610351562 L 787.5 220.60000610351562 L 784 223.1999969482422 L 785.2999877929688 227.39999389648438 L 781.7999877929688 224.8000030517578 L 778.2999877929688 227.39999389648438 L 779.5999755859375 223.1999969482422 L 776.0999755859375 220.60000610351562 L 780.5 220.60000610351562 Z" class="st13" style="opacity: 0.5; fill: rgb(255, 255, 255);" transform="matrix(1, 0, 0, 1, 25.4293212890625, 29.6676025390625)"/>
<path d="M 740.2000122070312 423.29998779296875 L 741.5 427.3999938964844 L 745.9000244140625 427.3999938964844 L 742.4000244140625 430 L 743.7000122070312 434.20001220703125 L 740.2000122070312 431.6000061035156 L 736.5999755859375 434.20001220703125 L 738 430 L 734.4000244140625 427.3999938964844 L 738.7999877929688 427.3999938964844 Z" class="st13" style="opacity: 0.5; fill: rgb(255, 255, 255);" transform="matrix(1, 0, 0, 1, 25.4293212890625, 29.6676025390625)"/>
<path d="M 761 496.8999938964844 L 762.2999877929688 501 L 766.7000122070312 501 L 763.2000122070312 503.6000061035156 L 764.5 507.79998779296875 L 761 505.20001220703125 L 757.4000244140625 507.79998779296875 L 758.7999877929688 503.6000061035156 L 755.2999877929688 501 L 759.5999755859375 501 Z" class="st13" style="opacity: 0.5; fill: rgb(255, 255, 255);" transform="matrix(1, 0, 0, 1, 25.4293212890625, 29.6676025390625)"/>
<path d="M 476.3999938964844 423.29998779296875 L 477.79998779296875 427.5 L 482.1000061035156 427.5 L 478.6000061035156 430 L 480 434.20001220703125 L 476.3999938964844 431.6000061035156 L 472.8999938964844 434.20001220703125 L 474.20001220703125 430 L 470.70001220703125 427.5 L 475.1000061035156 427.5 Z" class="st13" style="opacity: 0.5; fill: rgb(255, 255, 255);" transform="matrix(1, 0, 0, 1, 25.4293212890625, 29.6676025390625)"/>
<path d="M 486.1000061035156 369.20001220703125 L 487.5 373.29998779296875 L 491.8999938964844 373.29998779296875 L 488.29998779296875 375.8999938964844 L 489.70001220703125 380.1000061035156 L 486.1000061035156 377.5 L 482.6000061035156 380.1000061035156 L 483.8999938964844 375.8999938964844 L 480.3999938964844 373.29998779296875 L 484.79998779296875 373.29998779296875 Z" class="st13" style="opacity: 0.5; fill: rgb(255, 255, 255);" transform="matrix(1, 0, 0, 1, 25.4293212890625, 29.6676025390625)"/>
<path d="M 795.5 140.10000610351562 L 796.9000244140625 144.3000030517578 L 801.2000122070312 144.3000030517578 L 797.7000122070312 146.89999389648438 L 799 151 L 795.5 148.5 L 792 151 L 793.2999877929688 146.89999389648438 L 789.7999877929688 144.3000030517578 L 794.2000122070312 144.3000030517578 Z" class="st13" style="opacity: 0.5; fill: rgb(255, 255, 255);" transform="matrix(1, 0, 0, 1, 25.4293212890625, 29.6676025390625)"/>
<path d="M 760.9000244140625 101.30000305175781 L 762.2999877929688 105.4000015258789 L 766.7000122070312 105.4000015258789 L 763.0999755859375 108 L 764.5 112.19999694824219 L 760.9000244140625 109.5999984741211 L 757.4000244140625 112.19999694824219 L 758.7999877929688 108 L 755.2000122070312 105.4000015258789 L 759.5999755859375 105.4000015258789 Z" class="st13" style="opacity: 0.5; fill: rgb(255, 255, 255);" transform="matrix(1, 0, 0, 1, 25.4293212890625, 29.6676025390625)"/>
<path d="M 1040 398 L 1042.300048828125 405.1000061035156 L 1049.800048828125 405.1000061035156 L 1043.699951171875 409.5 L 1046 416.6000061035156 L 1040 412.20001220703125 L 1033.9000244140625 416.6000061035156 L 1036.199951171875 409.5 L 1030.199951171875 405.1000061035156 L 1037.699951171875 405.1000061035156 Z" class="st13" style="opacity: 0.5; fill: rgb(255, 255, 255);" transform="matrix(1, 0, 0, 1, 25.4293212890625, 29.6676025390625)"/>
<path d="M 1253.5999755859375 306.70001220703125 L 1255.9000244140625 313.79998779296875 L 1263.300048828125 313.79998779296875 L 1257.300048828125 318.20001220703125 L 1259.5999755859375 325.29998779296875 L 1253.5999755859375 320.8999938964844 L 1247.5 325.29998779296875 L 1249.800048828125 318.20001220703125 L 1243.800048828125 313.79998779296875 L 1251.199951171875 313.79998779296875 Z" class="st13" style="opacity: 0.5; fill: rgb(255, 255, 255);" transform="matrix(1, 0, 0, 1, 25.4293212890625, 29.6676025390625)"/>
<path d="M 1247.199951171875 371.79998779296875 L 1249.5999755859375 378.8999938964844 L 1257 378.8999938964844 L 1251 383.29998779296875 L 1253.300048828125 390.3999938964844 L 1247.199951171875 386 L 1241.199951171875 390.3999938964844 L 1243.5 383.29998779296875 L 1237.4000244140625 378.8999938964844 L 1244.9000244140625 378.8999938964844 Z" class="st13" style="opacity: 0.5; fill: rgb(255, 255, 255);" transform="matrix(1, 0, 0, 1, 25.4293212890625, 29.6676025390625)"/>
<path d="M 1321.4000244140625 420.20001220703125 L 1323.699951171875 427.3999938964844 L 1331.199951171875 427.3999938964844 L 1325.199951171875 431.79998779296875 L 1327.5 438.8999938964844 L 1321.4000244140625 434.5 L 1315.4000244140625 438.8999938964844 L 1317.699951171875 431.79998779296875 L 1311.5999755859375 427.3999938964844 L 1319.0999755859375 427.3999938964844 Z" class="st13" style="opacity: 0.5; fill: rgb(255, 255, 255);" transform="matrix(1, 0, 0, 1, 25.4293212890625, 29.6676025390625)"/>
<path d="M 1337.4000244140625 474.79998779296875 L 1339.699951171875 481.8999938964844 L 1347.199951171875 481.8999938964844 L 1341.199951171875 486.29998779296875 L 1343.5 493.3999938964844 L 1337.4000244140625 489 L 1331.4000244140625 493.3999938964844 L 1333.699951171875 486.29998779296875 L 1327.5999755859375 481.8999938964844 L 1335.0999755859375 481.8999938964844 Z" class="st13" style="opacity: 0.5; fill: rgb(255, 255, 255);" transform="matrix(1, 0, 0, 1, 25.4293212890625, 29.6676025390625)"/>
<path d="M 1323.800048828125 572 L 1326.0999755859375 579.0999755859375 L 1333.5999755859375 579.0999755859375 L 1327.5 583.5 L 1329.800048828125 590.5999755859375 L 1323.800048828125 586.2000122070312 L 1317.699951171875 590.5999755859375 L 1320 583.5 L 1314 579.0999755859375 L 1321.5 579.0999755859375 Z" class="st13" style="opacity: 0.5; fill: rgb(255, 255, 255);" transform="matrix(1, 0, 0, 1, 25.4293212890625, 29.6676025390625)"/>
<path d="M 1378 427.70001220703125 L 1380.300048828125 434.8999938964844 L 1387.800048828125 434.8999938964844 L 1381.699951171875 439.29998779296875 L 1384.0999755859375 446.3999938964844 L 1378 442 L 1371.9000244140625 446.3999938964844 L 1374.300048828125 439.29998779296875 L 1368.199951171875 434.8999938964844 L 1375.699951171875 434.8999938964844 Z" class="st13" style="opacity: 0.5; fill: rgb(255, 255, 255);" transform="matrix(1, 0, 0, 1, 25.4293212890625, 29.6676025390625)"/>
<path d="M 1378.5999755859375 351.29998779296875 L 1380.9000244140625 358.5 L 1388.4000244140625 358.5 L 1382.300048828125 362.79998779296875 L 1384.699951171875 370 L 1378.5999755859375 365.6000061035156 L 1372.5999755859375 370 L 1374.9000244140625 362.79998779296875 L 1368.800048828125 358.5 L 1376.300048828125 358.5 Z" class="st12" style="fill: rgb(255, 255, 255);" transform="matrix(1, 0, 0, 1, 25.4293212890625, 29.6676025390625)"/>
<path d="M 840.0999755859375 768.5 L 844.2000122070312 781.0999755859375 L 857.2999877929688 781.0999755859375 L 846.7000122070312 788.7999877929688 L 850.7999877929688 801.2999877929688 L 840.0999755859375 793.5999755859375 L 829.4000244140625 801.2999877929688 L 833.5 788.7999877929688 L 822.7999877929688 781.0999755859375 L 836 781.0999755859375 Z" class="st12" style="fill: rgb(255, 255, 255);" transform="matrix(1, 0, 0, 1, 25.4293212890625, 29.6676025390625)"/>
<path d="M 914.0999755859375 668.9000244140625 L 918.0999755859375 681.4000244140625 L 931.2999877929688 681.4000244140625 L 920.7000122070312 689.2000122070312 L 924.7000122070312 701.7000122070312 L 914.0999755859375 694 L 903.4000244140625 701.7000122070312 L 907.5 689.2000122070312 L 896.7999877929688 681.4000244140625 L 910 681.4000244140625 Z" class="st12" style="fill: rgb(255, 255, 255);" transform="matrix(1, 0, 0, 1, 25.4293212890625, 29.6676025390625)"/>
<path d="M 385.29998779296875 621.7000122070312 L 389.29998779296875 634.2000122070312 L 402.5 634.2000122070312 L 391.8999938964844 642 L 395.8999938964844 654.5 L 385.29998779296875 646.7999877929688 L 374.6000061035156 654.5 L 378.70001220703125 642 L 368 634.2000122070312 L 381.20001220703125 634.2000122070312 Z" class="st12" style="fill: rgb(255, 255, 255);" transform="matrix(1, 0, 0, 1, 25.4293212890625, 29.6676025390625)"/>
</svg>