<?xml version="1.0" encoding="utf-8"?>
<svg id="master-artboard" viewBox="0 0 1096 780" version="1.1" xmlns="http://www.w3.org/2000/svg" x="0px" y="0px" style="enable-background:new 0 0 1096 780;" width="1096px" height="780px">

<g transform="matrix(1, 0, 0, 1, 0, 0)">
		<path d="M 0 0 H 1096 V 775.5 H 0 V 0 Z" class="st0" style="fill: rgb(199, 234, 251);"/>
		<path class="st1" d="M595.9,775.5L548,387.8l0,387.8H595.9z M694.8,775.5L548,387.8l96.6,387.8H694.8z M931.7,775.5L548,387.8&#10;&#9;&#9;&#9;l316.4,387.8H931.7z M292.5,775.5L548,387.8L231.6,775.5H292.5z M164.3,775.5L548,387.8L88.2,775.5H164.3z M1096,775.5L1096,775.5&#10;&#9;&#9;&#9;L548,387.8l459.8,387.8H1096z M401.2,775.5L548,387.8L348.5,775.5H401.2z M500.1,775.5L548,387.8l-96.6,387.8H500.1z M1096,568.6&#10;&#9;&#9;&#9;L548,387.8l548,223.9V568.6z M1096,283.9L548,387.8l548-68.4V283.9z M1096,206.9L548,387.8l548-141.1V206.9z M1096,353.8&#10;&#9;&#9;&#9;l-548,33.9h548V353.8z M1096,116.2L548,387.8l548-223.9V116.2z M0,775.5L0,775.5l548-387.8L0,713.1V775.5z M1096,659.3L548,387.8&#10;&#9;&#9;&#9;l548,325.4V659.3z M1096,421.7l-548-33.9l548,68.4V421.7z M1096,491.7L548,387.8l548,141.1V491.7z M803.5,775.5L548,387.8&#10;&#9;&#9;&#9;l199.5,387.8H803.5z M500.1,0L548,387.8L548,0H500.1z M595.9,0L548,387.8L644.6,0H595.9z M0,659.3l548-271.5L0,611.6V659.3z&#10;&#9;&#9;&#9; M164.3,0L548,387.8L231.6,0H164.3z M292.5,0L548,387.8L348.5,0H292.5z M694.8,0L548,387.8L747.5,0H694.8z M931.7,0L548,387.8&#10;&#9;&#9;&#9;L1007.8,0H931.7z M1096,0L1096,0L548,387.8l548-325.4V0z M803.5,0L548,387.8L864.4,0H803.5z M401.2,0L548,387.8L451.4,0H401.2z&#10;&#9;&#9;&#9; M0,421.7l548-33.9H0V421.7z M0,353.8l548,33.9L0,319.4V353.8z M0,491.7l548-103.9L0,456.1V491.7z M0,0L0,0l548,387.8L88.2,0H0z&#10;&#9;&#9;&#9; M0,568.6l548-180.8L0,528.9V568.6z M0,283.9l548,103.9L0,246.6V283.9z M0,116.2l548,271.5L0,62.4V116.2z M0,206.9l548,180.8&#10;&#9;&#9;&#9;L0,163.9V206.9z" style="fill: rgb(185, 229, 251);"/>
	</g><path d="M 0 345.799988 H 1096 V 362.999989 H 0 V 345.799988 Z" class="st2" style="fill: rgb(198, 168, 125);" transform="matrix(1, 0, 0, 1, 0, 0)"/><path class="st3" d="M516.3,392.8v-52.6c0-5.2,4.2-9.4,9.4-9.4c5.2,0,9.4,4.2,9.4,9.4v52.6H516.3z" style="fill: rgb(210, 187, 152);" transform="matrix(1, 0, 0, 1, 0, 0)"/><path d="M 527.700012 350.200012 A 2 2 0 0 1 525.700012 352.200012 A 2 2 0 0 1 523.700012 350.200012 A 2 2 0 0 1 525.700012 348.200012 A 2 2 0 0 1 527.700012 350.200012 Z" class="st4" style="fill: rgb(151, 115, 72);" transform="matrix(1, 0, 0, 1, 0, 0)"/><path d="M 527.700012 358.299988 A 2 2 0 0 1 525.700012 360.299988 A 2 2 0 0 1 523.700012 358.299988 A 2 2 0 0 1 525.700012 356.299988 A 2 2 0 0 1 527.700012 358.299988 Z" class="st4" style="fill: rgb(151, 115, 72);" transform="matrix(1, 0, 0, 1, 0, 0)"/><path class="st3" d="M560.9,392.8v-52.6c0-5.2,4.2-9.4,9.4-9.4s9.4,4.2,9.4,9.4v52.6H560.9z" style="fill: rgb(210, 187, 152);" transform="matrix(1, 0, 0, 1, 0, 0)"/><path d="M 572.299988 358.299988 A 2 2 0 0 1 570.299988 360.299988 A 2 2 0 0 1 568.299988 358.299988 A 2 2 0 0 1 570.299988 356.299988 A 2 2 0 0 1 572.299988 358.299988 Z" class="st4" style="fill: rgb(151, 115, 72);" transform="matrix(1, 0, 0, 1, 0, 0)"/><path d="M 572.299988 350.200012 A 2 2 0 0 1 570.299988 352.200012 A 2 2 0 0 1 568.299988 350.200012 A 2 2 0 0 1 570.299988 348.200012 A 2 2 0 0 1 572.299988 350.200012 Z" class="st4" style="fill: rgb(151, 115, 72);" transform="matrix(1, 0, 0, 1, 0, 0)"/><g transform="matrix(1, 0, 0, 1, 0, 0)">
				<path class="st3" d="M605.5,392.8v-52.6c0-5.2,4.2-9.4,9.4-9.4s9.4,4.2,9.4,9.4v52.6H605.5z" style="fill: rgb(210, 187, 152);"/>
			</g><path d="M 616.900024 350.200012 A 2 2 0 0 1 614.900024 352.200012 A 2 2 0 0 1 612.900024 350.200012 A 2 2 0 0 1 614.900024 348.200012 A 2 2 0 0 1 616.900024 350.200012 Z" class="st4" style="fill: rgb(151, 115, 72);" transform="matrix(1, 0, 0, 1, 0, 0)"/><path d="M 616.900024 358.299988 A 2 2 0 0 1 614.900024 360.299988 A 2 2 0 0 1 612.900024 358.299988 A 2 2 0 0 1 614.900024 356.299988 A 2 2 0 0 1 616.900024 358.299988 Z" class="st4" style="fill: rgb(151, 115, 72);" transform="matrix(1, 0, 0, 1, 0, 0)"/><path class="st3" d="M471.7,392.8v-52.6c0-5.2,4.2-9.4,9.4-9.4c5.2,0,9.4,4.2,9.4,9.4v52.6H471.7z" style="fill: rgb(210, 187, 152);" transform="matrix(1, 0, 0, 1, 0, 0)"/><path d="M 483.100006 350.200012 A 2 2 0 0 1 481.100006 352.200012 A 2 2 0 0 1 479.100006 350.200012 A 2 2 0 0 1 481.100006 348.200012 A 2 2 0 0 1 483.100006 350.200012 Z" class="st4" style="fill: rgb(151, 115, 72);" transform="matrix(1, 0, 0, 1, 0, 0)"/><path d="M 483.100006 358.299988 A 2 2 0 0 1 481.100006 360.299988 A 2 2 0 0 1 479.100006 358.299988 A 2 2 0 0 1 481.100006 356.299988 A 2 2 0 0 1 483.100006 358.299988 Z" class="st4" style="fill: rgb(151, 115, 72);" transform="matrix(1, 0, 0, 1, 0, 0)"/><path class="st3" d="M25.8,392.8v-52.6c0-5.2,4.2-9.4,9.4-9.4s9.4,4.2,9.4,9.4v52.6H25.8z" style="fill: rgb(210, 187, 152);" transform="matrix(1, 0, 0, 1, 0, 0)"/><path d="M 37.200001 350.200012 A 2 2 0 0 1 35.200001 352.200012 A 2 2 0 0 1 33.200001 350.200012 A 2 2 0 0 1 35.200001 348.200012 A 2 2 0 0 1 37.200001 350.200012 Z" class="st4" style="fill: rgb(151, 115, 72);" transform="matrix(1, 0, 0, 1, 0, 0)"/><path d="M 37.200001 358.299988 A 2 2 0 0 1 35.200001 360.299988 A 2 2 0 0 1 33.200001 358.299988 A 2 2 0 0 1 35.200001 356.299988 A 2 2 0 0 1 37.200001 358.299988 Z" class="st4" style="fill: rgb(151, 115, 72);" transform="matrix(1, 0, 0, 1, 0, 0)"/><path class="st3" d="M204.2,392.8v-52.6c0-5.2,4.2-9.4,9.4-9.4s9.4,4.2,9.4,9.4v52.6H204.2z" style="fill: rgb(210, 187, 152);" transform="matrix(1, 0, 0, 1, 0, 0)"/><path d="M 215.600006 358.299988 A 2 2 0 0 1 213.600006 360.299988 A 2 2 0 0 1 211.600006 358.299988 A 2 2 0 0 1 213.600006 356.299988 A 2 2 0 0 1 215.600006 358.299988 Z" class="st4" style="fill: rgb(151, 115, 72);" transform="matrix(1, 0, 0, 1, 0, 0)"/><path d="M 215.600006 350.200012 A 2 2 0 0 1 213.600006 352.200012 A 2 2 0 0 1 211.600006 350.200012 A 2 2 0 0 1 213.600006 348.200012 A 2 2 0 0 1 215.600006 350.200012 Z" class="st4" style="fill: rgb(151, 115, 72);" transform="matrix(1, 0, 0, 1, 0, 0)"/><path class="st3" d="M382.5,392.8v-52.6c0-5.2,4.2-9.4,9.4-9.4s9.4,4.2,9.4,9.4v52.6H382.5z" style="fill: rgb(210, 187, 152);" transform="matrix(1, 0, 0, 1, 0, 0)"/><path d="M 393.899994 350.200012 A 2 2 0 0 1 391.899994 352.200012 A 2 2 0 0 1 389.899994 350.200012 A 2 2 0 0 1 391.899994 348.200012 A 2 2 0 0 1 393.899994 350.200012 Z" class="st4" style="fill: rgb(151, 115, 72);" transform="matrix(1, 0, 0, 1, 0, 0)"/><path d="M 393.899994 358.299988 A 2 2 0 0 1 391.899994 360.299988 A 2 2 0 0 1 389.899994 358.299988 A 2 2 0 0 1 391.899994 356.299988 A 2 2 0 0 1 393.899994 358.299988 Z" class="st4" style="fill: rgb(151, 115, 72);" transform="matrix(1, 0, 0, 1, 0, 0)"/><path class="st3" d="M293.4,392.8v-52.6c0-5.2,4.2-9.4,9.4-9.4s9.4,4.2,9.4,9.4v52.6H293.4z" style="fill: rgb(210, 187, 152);" transform="matrix(1, 0, 0, 1, 0, 0)"/><path d="M 304.700012 350.200012 A 2 2 0 0 1 302.700012 352.200012 A 2 2 0 0 1 300.700012 350.200012 A 2 2 0 0 1 302.700012 348.200012 A 2 2 0 0 1 304.700012 350.200012 Z" class="st4" style="fill: rgb(151, 115, 72);" transform="matrix(1, 0, 0, 1, 0, 0)"/><path d="M 304.700012 358.299988 A 2 2 0 0 1 302.700012 360.299988 A 2 2 0 0 1 300.700012 358.299988 A 2 2 0 0 1 302.700012 356.299988 A 2 2 0 0 1 304.700012 358.299988 Z" class="st4" style="fill: rgb(151, 115, 72);" transform="matrix(1, 0, 0, 1, 0, 0)"/><path class="st3" d="M337.9,392.8v-52.6c0-5.2,4.2-9.4,9.4-9.4c5.2,0,9.4,4.2,9.4,9.4v52.6H337.9z" style="fill: rgb(210, 187, 152);" transform="matrix(1, 0, 0, 1, 0, 0)"/><path d="M 349.299988 350.200012 A 2 2 0 0 1 347.299988 352.200012 A 2 2 0 0 1 345.299988 350.200012 A 2 2 0 0 1 347.299988 348.200012 A 2 2 0 0 1 349.299988 350.200012 Z" class="st4" style="fill: rgb(151, 115, 72);" transform="matrix(1, 0, 0, 1, 0, 0)"/><path d="M 349.299988 358.299988 A 2 2 0 0 1 347.299988 360.299988 A 2 2 0 0 1 345.299988 358.299988 A 2 2 0 0 1 347.299988 356.299988 A 2 2 0 0 1 349.299988 358.299988 Z" class="st4" style="fill: rgb(151, 115, 72);" transform="matrix(1, 0, 0, 1, 0, 0)"/><path class="st3" d="M427.1,392.8v-52.6c0-5.2,4.2-9.4,9.4-9.4s9.4,4.2,9.4,9.4v52.6H427.1z" style="fill: rgb(210, 187, 152);" transform="matrix(1, 0, 0, 1, 0, 0)"/><path d="M 438.5 358.299988 A 2 2 0 0 1 436.5 360.299988 A 2 2 0 0 1 434.5 358.299988 A 2 2 0 0 1 436.5 356.299988 A 2 2 0 0 1 438.5 358.299988 Z" class="st4" style="fill: rgb(151, 115, 72);" transform="matrix(1, 0, 0, 1, 0, 0)"/><path d="M 438.5 350.200012 A 2 2 0 0 1 436.5 352.200012 A 2 2 0 0 1 434.5 350.200012 A 2 2 0 0 1 436.5 348.200012 A 2 2 0 0 1 438.5 350.200012 Z" class="st4" style="fill: rgb(151, 115, 72);" transform="matrix(1, 0, 0, 1, 0, 0)"/><path class="st3" d="M248.8,392.8v-52.6c0-5.2,4.2-9.4,9.4-9.4c5.2,0,9.4,4.2,9.4,9.4v52.6H248.8z" style="fill: rgb(210, 187, 152);" transform="matrix(1, 0, 0, 1, 0, 0)"/><path d="M 260.200012 350.200012 A 2 2 0 0 1 258.200012 352.200012 A 2 2 0 0 1 256.200012 350.200012 A 2 2 0 0 1 258.200012 348.200012 A 2 2 0 0 1 260.200012 350.200012 Z" class="st4" style="fill: rgb(151, 115, 72);" transform="matrix(1, 0, 0, 1, 0, 0)"/><path d="M 260.200012 358.299988 A 2 2 0 0 1 258.200012 360.299988 A 2 2 0 0 1 256.200012 358.299988 A 2 2 0 0 1 258.200012 356.299988 A 2 2 0 0 1 260.200012 358.299988 Z" class="st4" style="fill: rgb(151, 115, 72);" transform="matrix(1, 0, 0, 1, 0, 0)"/><path class="st3" d="M70.4,392.8v-52.6c0-5.2,4.2-9.4,9.4-9.4s9.4,4.2,9.4,9.4v52.6H70.4z" style="fill: rgb(210, 187, 152);" transform="matrix(1, 0, 0, 1, 0, 0)"/><path d="M 81.800003 358.299988 A 2 2 0 0 1 79.800003 360.299988 A 2 2 0 0 1 77.800003 358.299988 A 2 2 0 0 1 79.800003 356.299988 A 2 2 0 0 1 81.800003 358.299988 Z" class="st4" style="fill: rgb(151, 115, 72);" transform="matrix(1, 0, 0, 1, 0, 0)"/><path d="M 81.800003 350.200012 A 2 2 0 0 1 79.800003 352.200012 A 2 2 0 0 1 77.800003 350.200012 A 2 2 0 0 1 79.800003 348.200012 A 2 2 0 0 1 81.800003 350.200012 Z" class="st4" style="fill: rgb(151, 115, 72);" transform="matrix(1, 0, 0, 1, 0, 0)"/><path class="st3" d="M159.6,392.8v-52.6c0-5.2,4.2-9.4,9.4-9.4s9.4,4.2,9.4,9.4v52.6H159.6z" style="fill: rgb(210, 187, 152);" transform="matrix(1, 0, 0, 1, 0, 0)"/><path d="M 171 350.200012 A 2 2 0 0 1 169 352.200012 A 2 2 0 0 1 167 350.200012 A 2 2 0 0 1 169 348.200012 A 2 2 0 0 1 171 350.200012 Z" class="st4" style="fill: rgb(151, 115, 72);" transform="matrix(1, 0, 0, 1, 0, 0)"/><path d="M 171 358.299988 A 2 2 0 0 1 169 360.299988 A 2 2 0 0 1 167 358.299988 A 2 2 0 0 1 169 356.299988 A 2 2 0 0 1 171 358.299988 Z" class="st4" style="fill: rgb(151, 115, 72);" transform="matrix(1, 0, 0, 1, 0, 0)"/><path class="st3" d="M115,392.8v-52.6c0-5.2,4.2-9.4,9.4-9.4c5.2,0,9.4,4.2,9.4,9.4v52.6H115z" style="fill: rgb(210, 187, 152);" transform="matrix(1, 0, 0, 1, 0, 0)"/><path d="M 126.400002 350.200012 A 2 2 0 0 1 124.400002 352.200012 A 2 2 0 0 1 122.400002 350.200012 A 2 2 0 0 1 124.400002 348.200012 A 2 2 0 0 1 126.400002 350.200012 Z" class="st4" style="fill: rgb(151, 115, 72);" transform="matrix(1, 0, 0, 1, 0, 0)"/><path d="M 126.400002 358.299988 A 2 2 0 0 1 124.400002 360.299988 A 2 2 0 0 1 122.400002 358.299988 A 2 2 0 0 1 124.400002 356.299988 A 2 2 0 0 1 126.400002 358.299988 Z" class="st4" style="fill: rgb(151, 115, 72);" transform="matrix(1, 0, 0, 1, 0, 0)"/><g transform="matrix(1, 0, 0, 1, 0, 0)">
				<path class="st3" d="M917.6,392.8v-52.6c0-5.2,4.2-9.4,9.4-9.4s9.4,4.2,9.4,9.4v52.6H917.6z" style="fill: rgb(210, 187, 152);"/>
			</g><path d="M 929 350.200012 A 2 2 0 0 1 927 352.200012 A 2 2 0 0 1 925 350.200012 A 2 2 0 0 1 927 348.200012 A 2 2 0 0 1 929 350.200012 Z" class="st4" style="fill: rgb(151, 115, 72);" transform="matrix(1, 0, 0, 1, 0, 0)"/><path d="M 929 358.299988 A 2 2 0 0 1 927 360.299988 A 2 2 0 0 1 925 358.299988 A 2 2 0 0 1 927 356.299988 A 2 2 0 0 1 929 358.299988 Z" class="st4" style="fill: rgb(151, 115, 72);" transform="matrix(1, 0, 0, 1, 0, 0)"/><path class="st3" d="M962.2,392.8v-52.6c0-5.2,4.2-9.4,9.4-9.4s9.4,4.2,9.4,9.4v52.6H962.2z" style="fill: rgb(210, 187, 152);" transform="matrix(1, 0, 0, 1, 0, 0)"/><path d="M 973.599976 358.299988 A 2 2 0 0 1 971.599976 360.299988 A 2 2 0 0 1 969.599976 358.299988 A 2 2 0 0 1 971.599976 356.299988 A 2 2 0 0 1 973.599976 358.299988 Z" class="st4" style="fill: rgb(151, 115, 72);" transform="matrix(1, 0, 0, 1, 0, 0)"/><path d="M 973.599976 350.200012 A 2 2 0 0 1 971.599976 352.200012 A 2 2 0 0 1 969.599976 350.200012 A 2 2 0 0 1 971.599976 348.200012 A 2 2 0 0 1 973.599976 350.200012 Z" class="st4" style="fill: rgb(151, 115, 72);" transform="matrix(1, 0, 0, 1, 0, 0)"/><path class="st3" d="M1051.4,392.8v-52.6c0-5.2,4.2-9.4,9.4-9.4c5.2,0,9.4,4.2,9.4,9.4v52.6H1051.4z" style="fill: rgb(210, 187, 152);" transform="matrix(1, 0, 0, 1, 0, 0)"/><path d="M 1062.800049 350.200012 A 2 2 0 0 1 1060.800049 352.200012 A 2 2 0 0 1 1058.800049 350.200012 A 2 2 0 0 1 1060.800049 348.200012 A 2 2 0 0 1 1062.800049 350.200012 Z" class="st4" style="fill: rgb(151, 115, 72);" transform="matrix(1, 0, 0, 1, 0, 0)"/><path d="M 1062.800049 358.299988 A 2 2 0 0 1 1060.800049 360.299988 A 2 2 0 0 1 1058.800049 358.299988 A 2 2 0 0 1 1060.800049 356.299988 A 2 2 0 0 1 1062.800049 358.299988 Z" class="st4" style="fill: rgb(151, 115, 72);" transform="matrix(1, 0, 0, 1, 0, 0)"/><path class="st3" d="M1006.8,392.8v-52.6c0-5.2,4.2-9.4,9.4-9.4c5.2,0,9.4,4.2,9.4,9.4v52.6H1006.8z" style="fill: rgb(210, 187, 152);" transform="matrix(1, 0, 0, 1, 0, 0)"/><path d="M 1018.200012 358.299988 A 2 2 0 0 1 1016.200012 360.299988 A 2 2 0 0 1 1014.200012 358.299988 A 2 2 0 0 1 1016.200012 356.299988 A 2 2 0 0 1 1018.200012 358.299988 Z" class="st4" style="fill: rgb(151, 115, 72);" transform="matrix(1, 0, 0, 1, 0, 0)"/><path d="M 1018.200012 350.200012 A 2 2 0 0 1 1016.200012 352.200012 A 2 2 0 0 1 1014.200012 350.200012 A 2 2 0 0 1 1016.200012 348.200012 A 2 2 0 0 1 1018.200012 350.200012 Z" class="st4" style="fill: rgb(151, 115, 72);" transform="matrix(1, 0, 0, 1, 0, 0)"/><path class="st3" d="M739.3,392.8v-52.6c0-5.2,4.2-9.4,9.4-9.4c5.2,0,9.4,4.2,9.4,9.4v52.6H739.3z" style="fill: rgb(210, 187, 152);" transform="matrix(1, 0, 0, 1, 0, 0)"/><path d="M 750.700012 350.200012 A 2 2 0 0 1 748.700012 352.200012 A 2 2 0 0 1 746.700012 350.200012 A 2 2 0 0 1 748.700012 348.200012 A 2 2 0 0 1 750.700012 350.200012 Z" class="st4" style="fill: rgb(151, 115, 72);" transform="matrix(1, 0, 0, 1, 0, 0)"/><path d="M 750.700012 358.299988 A 2 2 0 0 1 748.700012 360.299988 A 2 2 0 0 1 746.700012 358.299988 A 2 2 0 0 1 748.700012 356.299988 A 2 2 0 0 1 750.700012 358.299988 Z" class="st4" style="fill: rgb(151, 115, 72);" transform="matrix(1, 0, 0, 1, 0, 0)"/><path class="st3" d="M694.7,392.8v-52.6c0-5.2,4.2-9.4,9.4-9.4s9.4,4.2,9.4,9.4v52.6H694.7z" style="fill: rgb(210, 187, 152);" transform="matrix(1, 0, 0, 1, 0, 0)"/><path d="M 706.099976 358.299988 A 2 2 0 0 1 704.099976 360.299988 A 2 2 0 0 1 702.099976 358.299988 A 2 2 0 0 1 704.099976 356.299988 A 2 2 0 0 1 706.099976 358.299988 Z" class="st4" style="fill: rgb(151, 115, 72);" transform="matrix(1, 0, 0, 1, 0, 0)"/><path d="M 706.099976 350.200012 A 2 2 0 0 1 704.099976 352.200012 A 2 2 0 0 1 702.099976 350.200012 A 2 2 0 0 1 704.099976 348.200012 A 2 2 0 0 1 706.099976 350.200012 Z" class="st4" style="fill: rgb(151, 115, 72);" transform="matrix(1, 0, 0, 1, 0, 0)"/><g transform="matrix(1, 0, 0, 1, 0, 0)">
				<path class="st3" d="M783.9,392.8v-52.6c0-5.2,4.2-9.4,9.4-9.4c5.2,0,9.4,4.2,9.4,9.4v52.6H783.9z" style="fill: rgb(210, 187, 152);"/>
			</g><path d="M 795.299988 358.299988 A 2 2 0 0 1 793.299988 360.299988 A 2 2 0 0 1 791.299988 358.299988 A 2 2 0 0 1 793.299988 356.299988 A 2 2 0 0 1 795.299988 358.299988 Z" class="st4" style="fill: rgb(151, 115, 72);" transform="matrix(1, 0, 0, 1, 0, 0)"/><path d="M 795.299988 350.200012 A 2 2 0 0 1 793.299988 352.200012 A 2 2 0 0 1 791.299988 350.200012 A 2 2 0 0 1 793.299988 348.200012 A 2 2 0 0 1 795.299988 350.200012 Z" class="st4" style="fill: rgb(151, 115, 72);" transform="matrix(1, 0, 0, 1, 0, 0)"/><path class="st3" d="M828.5,392.8v-52.6c0-5.2,4.2-9.4,9.4-9.4s9.4,4.2,9.4,9.4v52.6H828.5z" style="fill: rgb(210, 187, 152);" transform="matrix(1, 0, 0, 1, 0, 0)"/><path d="M 839.799988 358.299988 A 2 2 0 0 1 837.799988 360.299988 A 2 2 0 0 1 835.799988 358.299988 A 2 2 0 0 1 837.799988 356.299988 A 2 2 0 0 1 839.799988 358.299988 Z" class="st4" style="fill: rgb(151, 115, 72);" transform="matrix(1, 0, 0, 1, 0, 0)"/><path d="M 839.799988 350.200012 A 2 2 0 0 1 837.799988 352.200012 A 2 2 0 0 1 835.799988 350.200012 A 2 2 0 0 1 837.799988 348.200012 A 2 2 0 0 1 839.799988 350.200012 Z" class="st4" style="fill: rgb(151, 115, 72);" transform="matrix(1, 0, 0, 1, 0, 0)"/><g transform="matrix(1, 0, 0, 1, 0, 0)">
				<path class="st3" d="M650.1,392.8v-52.6c0-5.2,4.2-9.4,9.4-9.4s9.4,4.2,9.4,9.4v52.6H650.1z" style="fill: rgb(210, 187, 152);"/>
			</g><path d="M 661.5 358.299988 A 2 2 0 0 1 659.5 360.299988 A 2 2 0 0 1 657.5 358.299988 A 2 2 0 0 1 659.5 356.299988 A 2 2 0 0 1 661.5 358.299988 Z" class="st4" style="fill: rgb(151, 115, 72);" transform="matrix(1, 0, 0, 1, 0, 0)"/><path d="M 661.5 350.200012 A 2 2 0 0 1 659.5 352.200012 A 2 2 0 0 1 657.5 350.200012 A 2 2 0 0 1 659.5 348.200012 A 2 2 0 0 1 661.5 350.200012 Z" class="st4" style="fill: rgb(151, 115, 72);" transform="matrix(1, 0, 0, 1, 0, 0)"/><path class="st3" d="M873,392.8v-52.6c0-5.2,4.2-9.4,9.4-9.4c5.2,0,9.4,4.2,9.4,9.4v52.6H873z" style="fill: rgb(210, 187, 152);" transform="matrix(1, 0, 0, 1, 0, 0)"/><path d="M 884.400024 350.200012 A 2 2 0 0 1 882.400024 352.200012 A 2 2 0 0 1 880.400024 350.200012 A 2 2 0 0 1 882.400024 348.200012 A 2 2 0 0 1 884.400024 350.200012 Z" class="st4" style="fill: rgb(151, 115, 72);" transform="matrix(1, 0, 0, 1, 0, 0)"/><path d="M 884.400024 358.299988 A 2 2 0 0 1 882.400024 360.299988 A 2 2 0 0 1 880.400024 358.299988 A 2 2 0 0 1 882.400024 356.299988 A 2 2 0 0 1 884.400024 358.299988 Z" class="st4" style="fill: rgb(151, 115, 72);" transform="matrix(1, 0, 0, 1, 0, 0)"/><g transform="matrix(1, 0, 0, 1, 0, 0)">
			<g>
				<path class="st5" d="M1062.8,229.7c-3.2-3.2-12-5.1-21.7-5.6c0.5-9.7-0.9-20.6-4.1-23.8c-3.6-3.6-16.4-4.9-26.8-3.9&#10;&#9;&#9;&#9;&#9;&#9;c-0.7-6.9-2.2-12.8-4.6-15.2c-6.6-6.6-40.4-6.6-47,0c-2.9,2.9-4.5,10.8-4.9,19.4c-13.9-1.1-30.7,0.7-35.4,5.4&#10;&#9;&#9;&#9;&#9;&#9;c-3.4,3.4-5.3,13-5.7,23.4c-4.8,0-9.7,0.7-11.2,2.3c-3.1,3.1-3.1,18.9,0,21.9c0.9,0.9,2.7,1.5,5,1.9&#10;&#9;&#9;&#9;&#9;&#9;c-2.5,10.6-1.5,29.1,2.9,33.5c2,2,7.1,3.3,13,3.9c-1.9,12.6-0.5,30.7,4.1,35.4c3.5,3.5,14.7,5.2,25.4,4.9&#10;&#9;&#9;&#9;&#9;&#9;c0.8,2.6,1.9,4.6,3.1,5.9c7.6,7.6,46.7,7.6,54.3,0c2.9-2.9,4.7-10.2,5.4-18.6c9.9,0.6,21.4-0.8,24.7-4.1&#10;&#9;&#9;&#9;&#9;&#9;c3.6-3.6,4.9-16.5,3.9-26.9c8.8-0.7,16.5-2.5,19.5-5.4C1070.4,276.4,1070.4,237.3,1062.8,229.7z" style="fill: rgb(191, 215, 48);"/>
			</g>
		</g><path class="st6" d="M988.5,392.9V285.3h15.8c7.8,0,12.9-4.3,12.9-11.1v-6.9h4.8c7,0,12.1-5.2,12.1-12.4v-6.4&#10;&#9;&#9;&#9;c0-2.6-2.1-4.8-4.8-4.8c-2.6,0-4.8,2.1-4.8,4.8v6.4c0,1.3-0.4,2.8-2.5,2.8h-4.8v-18.3c0-2.6-2.1-4.8-4.8-4.8&#10;&#9;&#9;&#9;c-2.6,0-4.8,2.1-4.8,4.8v34.8c0,0.7-0.2,0.8-0.3,0.9c-0.2,0.1-1.1,0.6-3,0.6h-15.8v-55.4c0-3.5-2.9-6.4-6.4-6.4&#10;&#9;&#9;&#9;c-3.5,0-6.4,2.9-6.4,6.4v14.6h-13.4c-0.9,0-1.9-0.2-2.8-1.6c-0.8-1.2-1.1-2.7-1.1-3.4v-8.8c0-2.6-2.1-4.8-4.8-4.8&#10;&#9;&#9;&#9;c-2.6,0-4.8,2.1-4.8,4.8v8.8c0,5.9,4.3,14.5,13.5,14.5h13.4v61.8H952c-5.3,0-5.3-2.8-5.3-4.1v-9.4h6.4c3.8,0,6.6-0.7,8.8-2.3&#10;&#9;&#9;&#9;c1.8-1.3,3.9-3.9,3.9-8.6v-18.5c0-2.6-2.1-4.8-4.8-4.8s-4.8,2.1-4.8,4.8v18.5c0,0.5-0.1,0.8-0.1,0.9c-0.2,0.1-1,0.4-3.1,0.4h-6.4&#10;&#9;&#9;&#9;V272c0-2.6-2.1-4.8-4.8-4.8c-2.6,0-4.8,2.1-4.8,4.8v30.2c0,8.3,5.8,13.7,14.9,13.7h23.8v77H988.5z" style="fill: rgb(120, 92, 55);" transform="matrix(1, 0, 0, 1, 0, 0)"/><path class="st7" d="M948.2,243.3c-3.5,0-6.3,2.8-6.3,6.3c0,3.5,2.8,6.3,6.3,6.3c3.5,0,6.3-2.8,6.3-6.3&#10;&#9;&#9;&#9;C954.5,246.1,951.7,243.3,948.2,243.3z M934.5,212.9c-3.5,0-6.3,2.8-6.3,6.3s2.8,6.3,6.3,6.3c3.5,0,6.3-2.8,6.3-6.3&#10;&#9;&#9;&#9;S938,212.9,934.5,212.9z M965.2,323.4c-3.5,0-6.3,2.8-6.3,6.3c0,3.5,2.8,6.3,6.3,6.3c3.5,0,6.3-2.8,6.3-6.3&#10;&#9;&#9;&#9;C971.6,326.3,968.7,323.4,965.2,323.4z M925.1,274.2c-3.5,0-6.3,2.8-6.3,6.3c0,3.5,2.8,6.3,6.3,6.3c3.5,0,6.3-2.8,6.3-6.3&#10;&#9;&#9;&#9;C931.4,277,928.6,274.2,925.1,274.2z M980.5,187.7c-3.5,0-6.3,2.8-6.3,6.3c0,3.5,2.8,6.3,6.3,6.3c3.5,0,6.3-2.8,6.3-6.3&#10;&#9;&#9;&#9;C986.9,190.6,984,187.7,980.5,187.7z M921.5,246.6c0-3.5-2.8-6.3-6.3-6.3c-3.5,0-6.3,2.8-6.3,6.3c0,3.5,2.8,6.3,6.3,6.3&#10;&#9;&#9;&#9;C918.7,252.9,921.5,250.1,921.5,246.6z M1051.8,264.8c-3.5,0-6.3,2.8-6.3,6.3c0,3.5,2.8,6.3,6.3,6.3s6.3-2.8,6.3-6.3&#10;&#9;&#9;&#9;C1058.2,267.6,1055.3,264.8,1051.8,264.8z M1051.8,240.3c0-3.5-2.8-6.3-6.3-6.3c-3.5,0-6.3,2.8-6.3,6.3c0,3.5,2.8,6.3,6.3,6.3&#10;&#9;&#9;&#9;C1049,246.6,1051.8,243.8,1051.8,240.3z M1003.6,230.5c0-3.5-2.8-6.3-6.3-6.3c-3.5,0-6.3,2.8-6.3,6.3c0,3.5,2.8,6.3,6.3,6.3&#10;&#9;&#9;&#9;C1000.8,236.8,1003.6,234,1003.6,230.5z M1025.7,286.2c-3.5,0-6.3,2.8-6.3,6.3c0,3.5,2.8,6.3,6.3,6.3c3.5,0,6.3-2.8,6.3-6.3&#10;&#9;&#9;&#9;C1032,289,1029.2,286.2,1025.7,286.2z M1002,303.8c-3.5,0-6.3,2.8-6.3,6.3c0,3.5,2.8,6.3,6.3,6.3c3.5,0,6.3-2.8,6.3-6.3&#10;&#9;&#9;&#9;C1008.3,306.7,1005.5,303.8,1002,303.8z M1025.7,209.3c0-3.5-2.8-6.3-6.3-6.3c-3.5,0-6.3,2.8-6.3,6.3c0,3.5,2.8,6.3,6.3,6.3&#10;&#9;&#9;&#9;C1022.9,215.6,1025.7,212.8,1025.7,209.3z" style="fill: rgb(141, 198, 63);" transform="matrix(1, 0, 0, 1, 0, 0)"/><path class="st8" d="M1007.8,392.9c-1.4-7.5-7.7-13.3-15.4-13.9c-1.1-8.4-8.3-15-17-15c-1.4,0-2.9,0.2-4.2,0.5&#10;&#9;&#9;c-2.8-5.6-8.6-9.5-15.4-9.5c-4.8,0-9.2,2-12.3,5.2c-3.1-3.2-7.5-5.2-12.3-5.2c-7.2,0-13.3,4.4-15.9,10.6c-1.4-0.4-2.9-0.6-4.5-0.6&#10;&#9;&#9;c-9.2,0-16.7,7.2-17.1,16.3c-7,0.5-12.9,5.2-15.1,11.6H1007.8z" style="fill: rgb(127, 181, 57);" transform="matrix(1, 0, 0, 1, 0, 0)"/><path d="M 0 392.899994 H 1096 V 780 H 0 V 392.899994 Z" class="st7" style="fill: rgb(141, 198, 63);" transform="matrix(1, 0, 0, 1, 0, 0)"/><path class="st9" d="M476.7,392.9L89.6,780h17l387.1-387.1H476.7z M681.6,392.9L294.5,780h17l387.1-387.1H681.6z M408.5,392.9&#10;&#9;&#9;L21.3,780h17l387.1-387.1H408.5z M442.6,392.9L55.5,780h17l387.1-387.1H442.6z M510.9,392.9L123.8,780h17l387.1-387.1H510.9z&#10;&#9;&#9; M374.3,392.9L0,767.2V780h4.2l387.1-387.1H374.3z M545,392.9L157.9,780h17L562,392.9H545z M647.5,392.9L260.4,780h17l387.1-387.1&#10;&#9;&#9;H647.5z M613.3,392.9L226.2,780h17l387.1-387.1H613.3z M579.2,392.9L192.1,780h17l387.1-387.1H579.2z M271.9,392.9L0,664.7v17&#10;&#9;&#9;l288.8-288.8H271.9z M67,392.9l-67,67v17l84-84H67z M135.3,392.9L0,528.2v17l152.2-152.3H135.3z M101.1,392.9L0,494v17l118.1-118.1&#10;&#9;&#9;H101.1z M32.8,392.9L0,425.7v17l49.8-49.8H32.8z M0,392.9v15.7l15.7-15.7H0z M715.8,392.9L328.7,780h17l387.1-387.1H715.8z&#10;&#9;&#9; M340.2,392.9L0,733v17l357.1-357.1H340.2z M169.4,392.9L0,562.3v17l186.4-186.4H169.4z M306,392.9L0,698.9v17l323-323H306z&#10;&#9;&#9; M237.7,392.9L0,630.6v17l254.7-254.7H237.7z M203.6,392.9L0,596.5v17l220.5-220.5H203.6z M926.1,780L1096,610.1v-17L909.1,780&#10;&#9;&#9;H926.1z M749.9,392.9L362.8,780h17l387.1-387.1H749.9z M960.3,780L1096,644.3v-17L943.3,780H960.3z M994.4,780L1096,678.4v-17&#10;&#9;&#9;L977.4,780H994.4z M1028.6,780l67.4-67.4v-17l-84.4,84.4H1028.6z M789.5,780L1096,473.5v-17L772.6,780H789.5z M755.4,780&#10;&#9;&#9;L1096,439.4v-17L738.4,780H755.4z M1091.4,392.9L704.3,780h17L1096,405.2v-12.4H1091.4z M857.8,780L1096,541.8v-17L840.8,780H857.8&#10;&#9;&#9;z M1062.7,780l33.3-33.3v-17l-50.3,50.3H1062.7z M823.7,780L1096,507.7v-17L806.7,780H823.7z M892,780l204-204v-17L875,780H892z&#10;&#9;&#9; M886.5,392.9L499.4,780h17l387.1-387.1H886.5z M852.4,392.9L465.2,780h17l387.1-387.1H852.4z M1096,780v-16.1l-16.1,16.1H1096z&#10;&#9;&#9; M818.2,392.9L431.1,780h17l387.1-387.1H818.2z M784.1,392.9L396.9,780h17L801,392.9H784.1z M920.6,392.9L533.5,780h17l387.1-387.1&#10;&#9;&#9;H920.6z M954.8,392.9L567.7,780h17l387.1-387.1H954.8z M1057.2,392.9L670.1,780h17l387.1-387.1H1057.2z M1023.1,392.9L636,780h17&#10;&#9;&#9;l387.1-387.1H1023.1z M988.9,392.9L601.8,780h17l387.1-387.1H988.9z" style="fill: rgb(154, 202, 60);" transform="matrix(1, 0, 0, 1, 0, 0)"/><path class="st10" d="M659.2,253.1c-3.9-1.2-5.7,9.4-9.1,13.6c-3,3.7-7,3.4-12.4,3.2c-0.4-10.2-0.7-18.7-1-24.3&#10;&#9;&#9;&#9;c-0.3-5.1-1.7-7.1-5.6-7.1l0,0c-3.9,0-5.3,2-5.6,7.1c-0.7,12.3-1.6,39.2-2.3,66.7c-8.8-0.3-19.2-4-25.4-11.6&#10;&#9;&#9;&#9;c-6.4-7.9-8.8-31-12.5-30.2c-3.7,0.8-2.7,27.3,6.1,38.5c7.1,9,17.8,15.6,31.4,16.1c-0.9,35.2-1.7,67.8-1.7,67.8H641&#10;&#9;&#9;&#9;c0,0-1.5-67-3-112.7c8.8-0.3,13.6-2.1,17.1-6.1C659.1,269.6,663,254.2,659.2,253.1z" style="fill: rgb(177, 137, 99);" transform="matrix(1, 0, 0, 1, 0, 0)"/><path class="st5" d="M617.5,287.5c0,9.8-9.5,14.4-9.5,14.4s-9.5-4.6-9.5-14.4c0-9.8,9.5-14.4,9.5-14.4S617.5,277.7,617.5,287.5z" style="fill: rgb(191, 215, 48);" transform="matrix(1, 0, 0, 1, 0, 0)"/><path class="st5" d="M620.4,228.4c0,9.8-9.5,14.4-9.5,14.4s-9.5-4.6-9.5-14.4c0-9.8,9.5-14.4,9.5-14.4S620.4,218.6,620.4,228.4z" style="fill: rgb(191, 215, 48);" transform="matrix(1, 0, 0, 1, 0, 0)"/><path class="st11" d="M597.6,234.6c0,9.8-9.5,14.4-9.5,14.4s-9.5-4.6-9.5-14.4c0-9.8,9.5-14.4,9.5-14.4&#10;&#9;&#9;&#9;C588.2,220.2,597.6,224.8,597.6,234.6z" style="fill: rgb(57, 181, 74);" transform="matrix(1, 0, 0, 1, 0, 0)"/><path class="st7" d="M606.5,204.5c0,9.8-9.5,14.4-9.5,14.4c0,0-9.5-4.6-9.5-14.4c0-9.8,9.5-14.4,9.5-14.4S606.5,194.7,606.5,204.5&#10;&#9;&#9;&#9;z" style="fill: rgb(141, 198, 63);" transform="matrix(1, 0, 0, 1, 0, 0)"/><path class="st11" d="M627.6,194.3c0,9.8-9.5,14.4-9.5,14.4s-9.5-4.6-9.5-14.4c0-9.8,9.5-14.4,9.5-14.4&#10;&#9;&#9;&#9;C618.2,179.9,627.6,184.5,627.6,194.3z" style="fill: rgb(57, 181, 74);" transform="matrix(1, 0, 0, 1, 0, 0)"/><path class="st11" d="M676.3,205c0,9.8-9.5,14.4-9.5,14.4s-9.5-4.6-9.5-14.4c0-9.8,9.5-14.4,9.5-14.4S676.3,195.1,676.3,205z" style="fill: rgb(57, 181, 74);" transform="matrix(1, 0, 0, 1, 0, 0)"/><path class="st7" d="M666.8,233.8c0,9.8-9.5,14.4-9.5,14.4s-9.5-4.6-9.5-14.4c0-9.8,9.5-14.4,9.5-14.4&#10;&#9;&#9;&#9;C657.3,219.4,666.8,224,666.8,233.8z" style="fill: rgb(141, 198, 63);" transform="matrix(1, 0, 0, 1, 0, 0)"/><path class="st7" d="M563.1,287.9c-9.8,0-14.4-9.5-14.4-9.5s4.6-9.5,14.4-9.5c9.8,0,14.4,9.5,14.4,9.5S573,287.9,563.1,287.9z" style="fill: rgb(141, 198, 63);" transform="matrix(1, 0, 0, 1, 0, 0)"/><path class="st11" d="M700.6,274.5c-9.8,0-14.4-9.5-14.4-9.5s4.6-9.5,14.4-9.5c9.8,0,14.4,9.5,14.4,9.5S710.5,274.5,700.6,274.5z" style="fill: rgb(57, 181, 74);" transform="matrix(1, 0, 0, 1, 0, 0)"/><path class="st7" d="M673.5,287.2c-9.8,0-14.4-9.5-14.4-9.5s4.6-9.5,14.4-9.5c9.8,0,14.4,9.5,14.4,9.5&#10;&#9;&#9;&#9;C688,277.8,683.4,287.2,673.5,287.2z" style="fill: rgb(141, 198, 63);" transform="matrix(1, 0, 0, 1, 0, 0)"/><path class="st7" d="M609.5,265.4c-7,7-16.9,3.5-16.9,3.5c0,0-3.4-9.9,3.5-16.9c7-7,16.9-3.5,16.9-3.5S616.4,258.4,609.5,265.4z" style="fill: rgb(141, 198, 63);" transform="matrix(1, 0, 0, 1, 0, 0)"/><path class="st5" d="M688.7,232.7c-7,7-16.9,3.5-16.9,3.5s-3.4-9.9,3.5-16.9c7-7,16.9-3.5,16.9-3.5S695.7,225.7,688.7,232.7z" style="fill: rgb(191, 215, 48);" transform="matrix(1, 0, 0, 1, 0, 0)"/><path class="st11" d="M683,259.3c-7,7-16.9,3.5-16.9,3.5s-3.4-9.9,3.5-16.9c7-7,16.9-3.5,16.9-3.5&#10;&#9;&#9;&#9;C686.5,242.4,689.9,252.4,683,259.3z" style="fill: rgb(57, 181, 74);" transform="matrix(1, 0, 0, 1, 0, 0)"/><path class="st5" d="M575.9,309.1c-7,7-16.9,3.5-16.9,3.5c0,0-3.4-9.9,3.5-16.9c7-7,16.9-3.5,16.9-3.5&#10;&#9;&#9;&#9;C579.4,292.2,582.9,302.2,575.9,309.1z" style="fill: rgb(191, 215, 48);" transform="matrix(1, 0, 0, 1, 0, 0)"/><path class="st7" d="M699.8,204.1c-7,7-16.9,3.5-16.9,3.5s-3.4-9.9,3.5-16.9c7-7,16.9-3.5,16.9-3.5S706.7,197.1,699.8,204.1z" style="fill: rgb(141, 198, 63);" transform="matrix(1, 0, 0, 1, 0, 0)"/><path class="st7" d="M708.8,245.5c-7,7-16.9,3.5-16.9,3.5c0,0-3.4-9.9,3.5-16.9c7-7,16.9-3.5,16.9-3.5S715.8,238.6,708.8,245.5z" style="fill: rgb(141, 198, 63);" transform="matrix(1, 0, 0, 1, 0, 0)"/><path class="st5" d="M648.4,302.5c-7-7-3.5-16.9-3.5-16.9s9.9-3.4,16.9,3.5c7,7,3.5,16.9,3.5,16.9&#10;&#9;&#9;&#9;C665.3,306,655.4,309.5,648.4,302.5z" style="fill: rgb(191, 215, 48);" transform="matrix(1, 0, 0, 1, 0, 0)"/><path class="st11" d="M567.3,262.2c-7-7-3.5-16.9-3.5-16.9s9.9-3.4,16.9,3.5c7,7,3.5,16.9,3.5,16.9&#10;&#9;&#9;&#9;C584.2,265.7,574.3,269.2,567.3,262.2z" style="fill: rgb(57, 181, 74);" transform="matrix(1, 0, 0, 1, 0, 0)"/><path class="st5" d="M542,260.6c-7-7-3.5-16.9-3.5-16.9c0,0,9.9-3.4,16.9,3.5c7,7,3.5,16.9,3.5,16.9S548.9,267.6,542,260.6z" style="fill: rgb(191, 215, 48);" transform="matrix(1, 0, 0, 1, 0, 0)"/><path class="st7" d="M557.7,235.8c-7-7-3.5-16.9-3.5-16.9s9.9-3.4,16.9,3.5c7,7,3.5,16.9,3.5,16.9S564.7,242.7,557.7,235.8z" style="fill: rgb(141, 198, 63);" transform="matrix(1, 0, 0, 1, 0, 0)"/><path class="st11" d="M675.3,309.1c-7-7-3.5-16.9-3.5-16.9c0,0,9.9-3.4,16.9,3.5c7,7,3.5,16.9,3.5,16.9&#10;&#9;&#9;&#9;C692.2,312.6,682.3,316.1,675.3,309.1z" style="fill: rgb(57, 181, 74);" transform="matrix(1, 0, 0, 1, 0, 0)"/><path class="st11" d="M627.5,229.3c-7-7-3.5-16.9-3.5-16.9s9.9-3.4,16.9,3.5c7,7,3.5,16.9,3.5,16.9S634.5,236.2,627.5,229.3z" style="fill: rgb(57, 181, 74);" transform="matrix(1, 0, 0, 1, 0, 0)"/><path class="st5" d="M635.4,208.3c-7-7-3.5-16.9-3.5-16.9c0,0,9.9-3.4,16.9,3.5c7,7,3.5,16.9,3.5,16.9&#10;&#9;&#9;&#9;C652.3,211.8,642.4,215.2,635.4,208.3z" style="fill: rgb(191, 215, 48);" transform="matrix(1, 0, 0, 1, 0, 0)"/><path class="st7" d="M592.7,323.8c0,9.8-9.5,14.4-9.5,14.4s-9.5-4.6-9.5-14.4c0-9.8,9.5-14.4,9.5-14.4S592.7,314,592.7,323.8z" style="fill: rgb(141, 198, 63);" transform="matrix(1, 0, 0, 1, 0, 0)"/><path class="st8" d="M655.1,392.9c-0.2-8.1-6.8-14.5-14.9-14.5c-0.2,0-0.4,0-0.7,0c-1.9-6.1-7.6-10.5-14.3-10.5c0,0-0.1,0-0.1,0&#10;&#9;&#9;c-0.9-7.4-7.2-13.1-14.8-13.1c-4.3,0-8.1,1.8-10.8,4.7c-2.7-3.9-7.2-6.5-12.3-6.5c-6.7,0-12.3,4.4-14.2,10.4&#10;&#9;&#9;c-2.4-1.6-5.2-2.5-8.2-2.5c-8.2,0-14.9,6.7-14.9,14.9c0,0.9,0.1,1.7,0.2,2.6c-0.1,0-0.1,0-0.2,0c-8.1,0-14.7,6.5-14.9,14.5H655.1z" style="fill: rgb(127, 181, 57);" transform="matrix(1, 0, 0, 1, 0, 0)"/>
<g transform="matrix(1, 0, 0, 1, 0, 0)">
		<g>
			<path d="M 143.5 163 H 149.4 V 205 H 143.5 V 163 Z"/>
			<path d="M 154.099994 158.899994 A 7.7 7.7 0 0 1 146.399994 166.599994 A 7.7 7.7 0 0 1 138.699994 158.899994 A 7.7 7.7 0 0 1 146.399994 151.199994 A 7.7 7.7 0 0 1 154.099994 158.899994 Z" class="st12" style="fill: rgb(88, 89, 91);"/>
			<path d="M 77.099998 275.100006 H 215.599998 V 450.800003 H 77.099998 V 275.100006 Z" class="st13" style="fill: rgb(0, 114, 188);"/>
			<path class="st14" d="M77.1,430.1l138.5,3.6v-10l-138.5,2.1V430.1z M77.1,416.5l138.5-4.7v-6.3l-138.5-3V416.5z M77.1,450.7&#10;&#9;&#9;&#9;&#9;h138.5v-4.3l-138.5-6.5V450.7z M77.1,275.1v23.8l138.5-8.4v-15.4H77.1z M77.1,389.9l138.5,6.5v-33.8l-138.5,4.7V389.9z&#10;&#9;&#9;&#9;&#9; M77.1,318.9l138.5,6.5v-17.7l-138.5,4.7V318.9z M77.1,353.1l138.5-4.7v-10.6l-138.5-6.5V353.1z" style="fill: rgb(0, 131, 202);"/>
			<path d="M 188.499992 339.299988 A 42.099998 42.099998 0 0 1 146.399994 381.399986 A 42.099998 42.099998 0 0 1 104.299995 339.299988 A 42.099998 42.099998 0 0 1 146.399994 297.199989 A 42.099998 42.099998 0 0 1 188.499992 339.299988 Z" class="st12" style="fill: rgb(88, 89, 91);"/>
			<path d="M 177.799994 339.299988 A 31.4 31.4 0 0 1 146.399994 370.699987 A 31.4 31.4 0 0 1 114.999994 339.299988 A 31.4 31.4 0 0 1 146.399994 307.899988 A 31.4 31.4 0 0 1 177.799994 339.299988 Z" class="st0" style="fill: rgb(199, 234, 251);"/>
			<path d="M 146.39999389648438 199.5 L 77.0999984741211 275.1000061035156 L 215.6999969482422 275.1000061035156 Z" class="st6" style="fill: rgb(120, 92, 55);"/>
			<g>
				<path class="st15" d="M132.1,222.3c5.5,0,5.5-3.9,11-3.9c5.5,0,5.5,3.9,11,3.9c5,0,5.5-3.3,9.7-3.8l-2.9-3.1&#10;&#9;&#9;&#9;&#9;&#9;c-1.9,1.2-3.2,2.8-6.8,2.8c-5.5,0-5.5-3.9-11-3.9c-5.5,0-5.5,3.9-11,3.9c-1,0-1.8-0.1-2.5-0.3l-2.6,2.8&#10;&#9;&#9;&#9;&#9;&#9;C128.3,221.5,129.6,222.3,132.1,222.3z" style="fill: rgb(105, 80, 47);"/>
				<path class="st15" d="M143.1,226.5c5.5,0,5.5,3.9,11,3.9c5.5,0,5.5-3.9,11-3.9c4.9,0,5.5,3.2,9.5,3.8l-7-7.6&#10;&#9;&#9;&#9;&#9;&#9;c-0.7-0.2-1.5-0.3-2.5-0.3c-5.5,0-5.5,3.9-11,3.9c-5.5,0-5.5-3.9-11-3.9c-5.5,0-5.5,3.9-11,3.9c-3.9,0-5.1-2-7.4-3.1l-3.1,3.4&#10;&#9;&#9;&#9;&#9;&#9;c5,0.2,5.2,3.9,10.5,3.9C137.6,230.4,137.6,226.5,143.1,226.5z" style="fill: rgb(105, 80, 47);"/>
				<path class="st15" d="M154.1,214.2c2.1,0,3.4-0.6,4.5-1.3l-2.8-3c-0.5,0.1-1.1,0.2-1.8,0.2c-5.5,0-5.5-3.9-11-3.9&#10;&#9;&#9;&#9;&#9;&#9;c-1.5,0-2.5,0.3-3.4,0.7l-6.8,7.4c4.7-0.4,5-3.9,10.2-3.9C148.6,210.2,148.6,214.2,154.1,214.2z" style="fill: rgb(105, 80, 47);"/>
				<path class="st15" d="M146.4,199.5l-2.5,2.7c4.1,0.3,4.8,3,8.4,3.7L146.4,199.5z" style="fill: rgb(105, 80, 47);"/>
				<path class="st15" d="M132.1,238.5c5.5,0,5.5-3.9,11-3.9c5.5,0,5.5,3.9,11,3.9c5.5,0,5.5-3.9,11-3.9c5.5,0,5.5,3.9,11,3.9&#10;&#9;&#9;&#9;&#9;&#9;c2.2,0,3.6-0.7,4.7-1.4l-2.7-3c-0.6,0.1-1.2,0.2-2,0.2c-5.5,0-5.5-3.9-11-3.9c-5.5,0-5.5,3.9-11,3.9c-5.5,0-5.5-3.9-11-3.9&#10;&#9;&#9;&#9;&#9;&#9;c-5.5,0-5.5,3.9-11,3.9c-5.5,0-5.5-3.9-11-3.9c-1.8,0-2.9,0.4-3.9,0.9l-6.5,7.1c5-0.2,5.2-3.9,10.5-3.9&#10;&#9;&#9;&#9;&#9;&#9;C126.6,234.6,126.6,238.5,132.1,238.5z" style="fill: rgb(105, 80, 47);"/>
				<path class="st15" d="M212.5,271.6c-0.9-0.4-1.9-0.7-3.4-0.7c-5.5,0-5.5,3.9-11,3.9c-5.5,0-5.5-3.9-11-3.9&#10;&#9;&#9;&#9;&#9;&#9;c-5.5,0-5.5,3.9-11,3.9c-5.5,0-5.5-3.9-11-3.9c-5.5,0-5.5,3.9-11,3.9c-5.5,0-5.5-3.9-11-3.9c-5.5,0-5.5,3.9-11,3.9&#10;&#9;&#9;&#9;&#9;&#9;c-5.5,0-5.5-3.9-11-3.9c-5.5,0-5.5,3.9-11,3.9c-5.5,0-5.5-3.9-11-3.9c-5.5,0-5.5,3.9-11,3.9c-4.1,0-5.2-2.2-7.8-3.3l-3.2,3.5&#10;&#9;&#9;&#9;&#9;&#9;h138.5L212.5,271.6z" style="fill: rgb(105, 80, 47);"/>
				<path class="st15" d="M88.1,270.9c5.5,0,5.5-3.9,11-3.9c5.5,0,5.5,3.9,11,3.9c5.5,0,5.5-3.9,11-3.9c5.5,0,5.5,3.9,11,3.9&#10;&#9;&#9;&#9;&#9;&#9;c5.5,0,5.5-3.9,11-3.9c5.5,0,5.5,3.9,11,3.9c5.5,0,5.5-3.9,11-3.9c5.5,0,5.5,3.9,11,3.9c5.5,0,5.5-3.9,11-3.9&#10;&#9;&#9;&#9;&#9;&#9;c5.5,0,5.5,3.9,11,3.9c5.2,0,5.5-3.5,10.2-3.9l-3-3.3c-2.2,1.2-3.4,3-7.2,3c-5.5,0-5.5-3.9-11-3.9c-5.5,0-5.5,3.9-11,3.9&#10;&#9;&#9;&#9;&#9;&#9;c-5.5,0-5.5-3.9-11-3.9c-5.5,0-5.5,3.9-11,3.9c-5.5,0-5.5-3.9-11-3.9c-5.5,0-5.5,3.9-11,3.9c-5.5,0-5.5-3.9-11-3.9&#10;&#9;&#9;&#9;&#9;&#9;c-5.5,0-5.5,3.9-11,3.9c-5.5,0-5.5-3.9-11-3.9c-5.5,0-5.5,3.9-11,3.9c-1.2,0-2.2-0.2-2.9-0.5l-2.5,2.7&#10;&#9;&#9;&#9;&#9;&#9;C84.1,270,85.4,270.9,88.1,270.9z" style="fill: rgb(105, 80, 47);"/>
				<path class="st15" d="M121.1,250.8c5.5,0,5.5,3.9,11,3.9c5.5,0,5.5-3.9,11-3.9c5.5,0,5.5,3.9,11,3.9c5.5,0,5.5-3.9,11-3.9&#10;&#9;&#9;&#9;&#9;&#9;c5.5,0,5.5,3.9,11,3.9c5.5,0,5.5-3.9,11-3.9c5.1,0,5.5,3.4,9.8,3.9l-6.9-7.5c-0.8-0.3-1.7-0.5-2.9-0.5c-5.5,0-5.5,3.9-11,3.9&#10;&#9;&#9;&#9;&#9;&#9;c-5.5,0-5.5-3.9-11-3.9c-5.5,0-5.5,3.9-11,3.9c-5.5,0-5.5-3.9-11-3.9c-5.5,0-5.5,3.9-11,3.9c-5.5,0-5.5-3.9-11-3.9&#10;&#9;&#9;&#9;&#9;&#9;c-5.5,0-5.5,3.9-11,3.9c-4,0-5.1-2.1-7.6-3.2l-3.2,3.5c5.2,0.1,5.3,3.9,10.8,3.9C115.6,254.7,115.6,250.8,121.1,250.8z" style="fill: rgb(105, 80, 47);"/>
				<path class="st15" d="M110.1,262.8c5.5,0,5.5-3.9,11-3.9c5.5,0,5.5,3.9,11,3.9c5.5,0,5.5-3.9,11-3.9c5.5,0,5.5,3.9,11,3.9&#10;&#9;&#9;&#9;&#9;&#9;c5.5,0,5.5-3.9,11-3.9c5.5,0,5.5,3.9,11,3.9c5.5,0,5.5-3.9,11-3.9c5.5,0,5.5,3.9,11,3.9c2.4,0,3.7-0.7,4.9-1.6l-2.6-2.9&#10;&#9;&#9;&#9;&#9;&#9;c-0.6,0.2-1.4,0.3-2.3,0.3c-5.5,0-5.5-3.9-11-3.9c-5.5,0-5.5,3.9-11,3.9c-5.5,0-5.5-3.9-11-3.9c-5.5,0-5.5,3.9-11,3.9&#10;&#9;&#9;&#9;&#9;&#9;c-5.5,0-5.5-3.9-11-3.9c-5.5,0-5.5,3.9-11,3.9c-5.5,0-5.5-3.9-11-3.9c-5.5,0-5.5,3.9-11,3.9c-5.5,0-5.5-3.9-11-3.9&#10;&#9;&#9;&#9;&#9;&#9;c-2.2,0-3.5,0.6-4.6,1.3l-6.2,6.8c5.3-0.1,5.4-3.9,10.8-3.9C104.6,258.9,104.6,262.8,110.1,262.8z" style="fill: rgb(105, 80, 47);"/>
				<path class="st15" d="M110.1,246.6c5.5,0,5.5-3.9,11-3.9c5.5,0,5.5,3.9,11,3.9c5.5,0,5.5-3.9,11-3.9c5.5,0,5.5,3.9,11,3.9&#10;&#9;&#9;&#9;&#9;&#9;c5.5,0,5.5-3.9,11-3.9c5.5,0,5.5,3.9,11,3.9c5.1,0,5.5-3.4,9.9-3.9l-3-3.2c-2.1,1.2-3.3,2.9-7,2.9c-5.5,0-5.5-3.9-11-3.9&#10;&#9;&#9;&#9;&#9;&#9;c-5.5,0-5.5,3.9-11,3.9c-5.5,0-5.5-3.9-11-3.9c-5.5,0-5.5,3.9-11,3.9c-5.5,0-5.5-3.9-11-3.9c-5.5,0-5.5,3.9-11,3.9&#10;&#9;&#9;&#9;&#9;&#9;c-1.1,0-2-0.2-2.7-0.4l-2.5,2.8C106.2,245.7,107.5,246.6,110.1,246.6z" style="fill: rgb(105, 80, 47);"/>
			</g>
			<path d="M 186.1999969482422 198 L 149.3000030517578 198 L 149.3000030517578 169 L 186.1999969482422 169 L 178.1999969482422 183.5 Z" class="st7" style="fill: rgb(141, 198, 63);"/>
		</g>
		<g>
			<g>
				<path class="st16" d="M109.8,460.7v-45.2c50,0,60.9-21.8,76.1-52c13.4-26.7,31.7-63.2,85.4-63.2h21.6v45.2h-21.6&#10;&#9;&#9;&#9;&#9;&#9;c-24.8,0-31.3,11.1-45,38.3C209.9,416.3,187.6,460.7,109.8,460.7z" style="fill: rgb(236, 0, 140);"/>
				<path class="st16" d="M452.2,345.5h-20.9v-45.2h20.9c15.3,0,27.8-12.5,27.8-27.8c0-15.3-12.5-27.8-27.8-27.8h-20.9v-45.2h20.9&#10;&#9;&#9;&#9;&#9;&#9;c40.2,0,72.9,32.7,72.9,72.9C525.2,312.8,492.5,345.5,452.2,345.5z" style="fill: rgb(236, 0, 140);"/>
			</g>
			<path d="M 359.100006 74.599998 H 365.000006 V 116.599998 H 359.100006 V 74.599998 Z"/>
			<path d="M 369.800006 70.599998 A 7.7 7.7 0 0 1 362.100006 78.299998 A 7.7 7.7 0 0 1 354.400006 70.599998 A 7.7 7.7 0 0 1 362.100006 62.899999 A 7.7 7.7 0 0 1 369.800006 70.599998 Z" class="st12" style="fill: rgb(88, 89, 91);"/>
			<path d="M 292.799988 186.699997 H 431.299988 V 460.699997 H 292.799988 V 186.699997 Z" class="st17" style="fill: rgb(255, 221, 0);"/>
			<g>
				<path d="M 412.1000061035156 231.3000030517578 L 395.3999938964844 244.6999969482422 L 378.79998779296875 231.3000030517578 L 362.20001220703125 244.6999969482422 L 345.6000061035156 231.3000030517578 L 329 244.6999969482422 L 312.3999938964844 231.3000030517578 L 295.79998779296875 244.6999969482422 L 292.79998779296875 242.3000030517578 L 292.79998779296875 255.1999969482422 L 295.79998779296875 257.70001220703125 L 312.3999938964844 244.1999969482422 L 329 257.70001220703125 L 345.6000061035156 244.1999969482422 L 362.20001220703125 257.70001220703125 L 378.79998779296875 244.1999969482422 L 395.3999938964844 257.70001220703125 L 412.1000061035156 244.1999969482422 L 428.70001220703125 257.70001220703125 L 431.29998779296875 255.5 L 431.29998779296875 242.60000610351562 L 428.70001220703125 244.6999969482422 Z" class="st18" style="fill: rgb(255, 212, 0);"/>
				<path d="M 295.79998779296875 284 L 312.3999938964844 270.6000061035156 L 329 284 L 345.6000061035156 270.6000061035156 L 362.20001220703125 284 L 378.79998779296875 270.6000061035156 L 395.3999938964844 284 L 412.1000061035156 270.6000061035156 L 428.70001220703125 284 L 431.29998779296875 281.8999938964844 L 431.29998779296875 268.8999938964844 L 428.70001220703125 271.1000061035156 L 412.1000061035156 257.70001220703125 L 395.3999938964844 271.1000061035156 L 378.79998779296875 257.70001220703125 L 362.20001220703125 271.1000061035156 L 345.6000061035156 257.70001220703125 L 329 271.1000061035156 L 312.3999938964844 257.70001220703125 L 295.79998779296875 271.1000061035156 L 292.79998779296875 268.70001220703125 L 292.79998779296875 281.6000061035156 Z" class="st18" style="fill: rgb(255, 212, 0);"/>
				<path d="M 431.29998779296875 453.3999938964844 L 428.70001220703125 455.5 L 412.1000061035156 442.1000061035156 L 395.3999938964844 455.5 L 378.79998779296875 442.1000061035156 L 362.20001220703125 455.5 L 345.6000061035156 442.1000061035156 L 329 455.5 L 312.3999938964844 442.1000061035156 L 295.79998779296875 455.5 L 292.79998779296875 453.1000061035156 L 292.79998779296875 460.70001220703125 L 305.3999938964844 460.70001220703125 L 312.3999938964844 455 L 319.3999938964844 460.70001220703125 L 338.6000061035156 460.70001220703125 L 345.6000061035156 455 L 352.70001220703125 460.70001220703125 L 371.79998779296875 460.70001220703125 L 378.79998779296875 455 L 385.8999938964844 460.70001220703125 L 405 460.70001220703125 L 412.1000061035156 455 L 419.1000061035156 460.70001220703125 L 431.29998779296875 460.70001220703125 Z" class="st18" style="fill: rgb(255, 212, 0);"/>
				<path d="M 292.79998779296875 202.5 L 295.79998779296875 205 L 312.3999938964844 191.5 L 329 205 L 345.6000061035156 191.5 L 362.20001220703125 205 L 378.79998779296875 191.5 L 395.3999938964844 205 L 412.1000061035156 191.5 L 428.70001220703125 205 L 431.29998779296875 202.8000030517578 L 431.29998779296875 189.89999389648438 L 428.70001220703125 192 L 422.1000061035156 186.6999969482422 L 402 186.6999969482422 L 395.3999938964844 192 L 388.8999938964844 186.6999969482422 L 368.79998779296875 186.6999969482422 L 362.20001220703125 192 L 355.70001220703125 186.6999969482422 L 335.6000061035156 186.6999969482422 L 329 192 L 322.5 186.6999969482422 L 302.29998779296875 186.6999969482422 L 295.79998779296875 192 L 292.79998779296875 189.60000610351562 Z" class="st18" style="fill: rgb(255, 212, 0);"/>
				<path d="M 295.79998779296875 310.3999938964844 L 312.3999938964844 296.8999938964844 L 329 310.3999938964844 L 345.6000061035156 296.8999938964844 L 362.20001220703125 310.3999938964844 L 378.79998779296875 296.8999938964844 L 395.3999938964844 310.3999938964844 L 412.1000061035156 296.8999938964844 L 428.70001220703125 310.3999938964844 L 431.29998779296875 308.20001220703125 L 431.29998779296875 295.29998779296875 L 428.70001220703125 297.3999938964844 L 412.1000061035156 284 L 395.3999938964844 297.3999938964844 L 378.79998779296875 284 L 362.20001220703125 297.3999938964844 L 345.6000061035156 284 L 329 297.3999938964844 L 312.3999938964844 284 L 295.79998779296875 297.3999938964844 L 292.79998779296875 295 L 292.79998779296875 307.8999938964844 Z" class="st18" style="fill: rgb(255, 212, 0);"/>
				<path d="M 295.79998779296875 415.70001220703125 L 312.3999938964844 402.29998779296875 L 329 415.70001220703125 L 345.6000061035156 402.29998779296875 L 362.20001220703125 415.70001220703125 L 378.79998779296875 402.29998779296875 L 395.3999938964844 415.70001220703125 L 412.1000061035156 402.29998779296875 L 428.70001220703125 415.70001220703125 L 431.29998779296875 413.6000061035156 L 431.29998779296875 400.70001220703125 L 428.70001220703125 402.79998779296875 L 412.1000061035156 389.3999938964844 L 395.3999938964844 402.79998779296875 L 378.79998779296875 389.3999938964844 L 362.20001220703125 402.79998779296875 L 345.6000061035156 389.3999938964844 L 329 402.79998779296875 L 312.3999938964844 389.3999938964844 L 295.79998779296875 402.79998779296875 L 292.79998779296875 400.3999938964844 L 292.79998779296875 413.29998779296875 Z" class="st18" style="fill: rgb(255, 212, 0);"/>
				<path d="M 412.1000061035156 205 L 395.3999938964844 218.39999389648438 L 378.79998779296875 205 L 362.20001220703125 218.39999389648438 L 345.6000061035156 205 L 329 218.39999389648438 L 312.3999938964844 205 L 295.79998779296875 218.39999389648438 L 292.79998779296875 216 L 292.79998779296875 228.89999389648438 L 295.79998779296875 231.3000030517578 L 312.3999938964844 217.89999389648438 L 329 231.3000030517578 L 345.6000061035156 217.89999389648438 L 362.20001220703125 231.3000030517578 L 378.79998779296875 217.89999389648438 L 395.3999938964844 231.3000030517578 L 412.1000061035156 217.89999389648438 L 428.70001220703125 231.3000030517578 L 431.29998779296875 229.1999969482422 L 431.29998779296875 216.1999969482422 L 428.70001220703125 218.39999389648438 Z" class="st19" style="fill: rgb(255, 208, 0);"/>
				<path d="M 312.3999938964844 428.70001220703125 L 329 442.1000061035156 L 345.6000061035156 428.70001220703125 L 362.20001220703125 442.1000061035156 L 378.79998779296875 428.70001220703125 L 395.3999938964844 442.1000061035156 L 412.1000061035156 428.70001220703125 L 428.70001220703125 442.1000061035156 L 431.29998779296875 440 L 431.29998779296875 427 L 428.70001220703125 429.20001220703125 L 412.1000061035156 415.70001220703125 L 395.3999938964844 429.20001220703125 L 378.79998779296875 415.70001220703125 L 362.20001220703125 429.20001220703125 L 345.6000061035156 415.70001220703125 L 329 429.20001220703125 L 312.3999938964844 415.70001220703125 L 295.79998779296875 429.20001220703125 L 292.79998779296875 426.70001220703125 L 292.79998779296875 439.70001220703125 L 295.79998779296875 442.1000061035156 Z" class="st18" style="fill: rgb(255, 212, 0);"/>
				<path d="M 295.79998779296875 363 L 312.3999938964844 349.6000061035156 L 329 363 L 345.6000061035156 349.6000061035156 L 362.20001220703125 363 L 378.79998779296875 349.6000061035156 L 395.3999938964844 363 L 412.1000061035156 349.6000061035156 L 428.70001220703125 363 L 431.29998779296875 360.8999938964844 L 431.29998779296875 348 L 428.70001220703125 350.1000061035156 L 412.1000061035156 336.70001220703125 L 395.3999938964844 350.1000061035156 L 378.79998779296875 336.70001220703125 L 362.20001220703125 350.1000061035156 L 345.6000061035156 336.70001220703125 L 329 350.1000061035156 L 312.3999938964844 336.70001220703125 L 295.79998779296875 350.1000061035156 L 292.79998779296875 347.70001220703125 L 292.79998779296875 360.6000061035156 Z" class="st18" style="fill: rgb(255, 212, 0);"/>
				<path d="M 295.79998779296875 389.3999938964844 L 312.3999938964844 376 L 329 389.3999938964844 L 345.6000061035156 376 L 362.20001220703125 389.3999938964844 L 378.79998779296875 376 L 395.3999938964844 389.3999938964844 L 412.1000061035156 376 L 428.70001220703125 389.3999938964844 L 431.29998779296875 387.29998779296875 L 431.29998779296875 374.29998779296875 L 428.70001220703125 376.5 L 412.1000061035156 363 L 395.3999938964844 376.5 L 378.79998779296875 363 L 362.20001220703125 376.5 L 345.6000061035156 363 L 329 376.5 L 312.3999938964844 363 L 295.79998779296875 376.5 L 292.79998779296875 374.1000061035156 L 292.79998779296875 387 Z" class="st18" style="fill: rgb(255, 212, 0);"/>
				<path d="M 295.79998779296875 336.70001220703125 L 312.3999938964844 323.29998779296875 L 329 336.70001220703125 L 345.6000061035156 323.29998779296875 L 362.20001220703125 336.70001220703125 L 378.79998779296875 323.29998779296875 L 395.3999938964844 336.70001220703125 L 412.1000061035156 323.29998779296875 L 428.70001220703125 336.70001220703125 L 431.29998779296875 334.6000061035156 L 431.29998779296875 321.6000061035156 L 428.70001220703125 323.79998779296875 L 412.1000061035156 310.3999938964844 L 395.3999938964844 323.79998779296875 L 378.79998779296875 310.3999938964844 L 362.20001220703125 323.79998779296875 L 345.6000061035156 310.3999938964844 L 329 323.79998779296875 L 312.3999938964844 310.3999938964844 L 295.79998779296875 323.79998779296875 L 292.79998779296875 321.3999938964844 L 292.79998779296875 334.29998779296875 Z" class="st18" style="fill: rgb(255, 212, 0);"/>
			</g>
			<path d="M 404.200005 272.299988 A 42.099998 42.099998 0 0 1 362.100006 314.399986 A 42.099998 42.099998 0 0 1 320.000008 272.299988 A 42.099998 42.099998 0 0 1 362.100006 230.199989 A 42.099998 42.099998 0 0 1 404.200005 272.299988 Z" class="st12" style="fill: rgb(88, 89, 91);"/>
			<path d="M 393.500006 272.299988 A 31.4 31.4 0 0 1 362.100006 303.699987 A 31.4 31.4 0 0 1 330.700006 272.299988 A 31.4 31.4 0 0 1 362.100006 240.899988 A 31.4 31.4 0 0 1 393.500006 272.299988 Z" class="st0" style="fill: rgb(199, 234, 251);"/>
			<path d="M 404.200005 405.700012 A 42.099998 42.099998 0 0 1 362.100006 447.800011 A 42.099998 42.099998 0 0 1 320.000008 405.700012 A 42.099998 42.099998 0 0 1 362.100006 363.600014 A 42.099998 42.099998 0 0 1 404.200005 405.700012 Z" class="st12" style="fill: rgb(88, 89, 91);"/>
			<path d="M 393.500006 405.700012 A 31.4 31.4 0 0 1 362.100006 437.100012 A 31.4 31.4 0 0 1 330.700006 405.700012 A 31.4 31.4 0 0 1 362.100006 374.300013 A 31.4 31.4 0 0 1 393.500006 405.700012 Z" class="st0" style="fill: rgb(199, 234, 251);"/>
			<path d="M 362.1000061035156 111.0999984741211 L 292.79998779296875 186.6999969482422 L 431.29998779296875 186.6999969482422 Z" class="st20" style="fill: rgb(106, 65, 44);"/>
			<g>
				<path class="st21" d="M369.8,125.8c2.1,0,3.4-0.6,4.5-1.3l-2.8-3c-0.5,0.1-1.1,0.2-1.7,0.2c-5.5,0-5.5-3.9-11-3.9&#10;&#9;&#9;&#9;&#9;&#9;c-1.4,0-2.4,0.3-3.3,0.6l-6.8,7.4c4.6-0.4,4.9-3.9,10.1-3.9C364.3,121.9,364.3,125.8,369.8,125.8z" style="fill: rgb(93, 55, 36);"/>
				<path class="st21" d="M347.8,133.9c5.5,0,5.5-3.9,11-3.9c5.5,0,5.5,3.9,11,3.9c5,0,5.5-3.2,9.6-3.8l-2.9-3.1&#10;&#9;&#9;&#9;&#9;&#9;c-1.9,1.2-3.2,2.8-6.7,2.8c-5.5,0-5.5-3.9-11-3.9c-5.5,0-5.5,3.9-11,3.9c-1,0-1.8-0.1-2.5-0.3l-2.6,2.8&#10;&#9;&#9;&#9;&#9;&#9;C344,133.1,345.3,133.9,347.8,133.9z" style="fill: rgb(93, 55, 36);"/>
				<path class="st21" d="M413.8,186.5c-5.5,0-5.5-3.9-11-3.9c-5.5,0-5.5,3.9-11,3.9c-5.5,0-5.5-3.9-11-3.9s-5.5,3.9-11,3.9&#10;&#9;&#9;&#9;&#9;&#9;c-5.5,0-5.5-3.9-11-3.9c-5.5,0-5.5,3.9-11,3.9c-5.5,0-5.5-3.9-11-3.9c-5.5,0-5.5,3.9-11,3.9c-5.5,0-5.5-3.9-11-3.9&#10;&#9;&#9;&#9;&#9;&#9;c-5.5,0-5.5,3.9-11,3.9c-4.1,0-5.2-2.2-7.7-3.3l-3.3,3.5c0.1,0,0.3,0,0.4,0h21.1c0.1,0,0.3,0,0.4,0c0.2,0,0.3,0,0.4,0h21.1&#10;&#9;&#9;&#9;&#9;&#9;c0.1,0,0.3,0,0.4,0s0.3,0,0.4,0h21.1c0.1,0,0.3,0,0.4,0c0.2,0,0.3,0,0.4,0h21.1c0.1,0,0.3,0,0.4,0s0.3,0,0.4,0h21.1&#10;&#9;&#9;&#9;&#9;&#9;c0.1,0,0.3,0,0.4,0c0.2,0,0.3,0,0.4,0h21.1c0.1,0,0.3,0,0.4,0c0.2,0,0.3,0,0.4,0h6.1l-3.3-3.6c-0.9-0.4-1.9-0.6-3.3-0.6&#10;&#9;&#9;&#9;&#9;&#9;C419.3,182.5,419.3,186.5,413.8,186.5z" style="fill: rgb(93, 55, 36);"/>
				<path class="st21" d="M362.1,111.1l-2.4,2.6c4,0.3,4.8,3,8.2,3.7L362.1,111.1z" style="fill: rgb(93, 55, 36);"/>
				<path class="st21" d="M358.8,138.1c5.5,0,5.5,3.9,11,3.9c5.5,0,5.5-3.9,11-3.9c4.9,0,5.4,3.1,9.4,3.8l-7-7.7&#10;&#9;&#9;&#9;&#9;&#9;c-0.7-0.2-1.5-0.3-2.4-0.3c-5.5,0-5.5,3.9-11,3.9c-5.5,0-5.5-3.9-11-3.9c-5.5,0-5.5,3.9-11,3.9c-3.9,0-5-2-7.3-3.1l-3.1,3.4&#10;&#9;&#9;&#9;&#9;&#9;c4.9,0.3,5.1,3.9,10.4,3.9C353.3,142,353.3,138.1,358.8,138.1z" style="fill: rgb(93, 55, 36);"/>
				<path class="st21" d="M336.8,162.4c5.5,0,5.5,3.9,11,3.9c5.5,0,5.5-3.9,11-3.9c5.5,0,5.5,3.9,11,3.9c5.5,0,5.5-3.9,11-3.9&#10;&#9;&#9;&#9;&#9;&#9;s5.5,3.9,11,3.9c5.5,0,5.5-3.9,11-3.9c5.1,0,5.5,3.3,9.8,3.9l-6.9-7.6c-0.8-0.3-1.7-0.5-2.8-0.5c-5.5,0-5.5,3.9-11,3.9&#10;&#9;&#9;&#9;&#9;&#9;c-5.5,0-5.5-3.9-11-3.9s-5.5,3.9-11,3.9c-5.5,0-5.5-3.9-11-3.9c-5.5,0-5.5,3.9-11,3.9c-5.5,0-5.5-3.9-11-3.9&#10;&#9;&#9;&#9;&#9;&#9;c-5.5,0-5.5,3.9-11,3.9c-4,0-5.1-2.1-7.5-3.2l-3.2,3.5c5.2,0.1,5.3,3.9,10.7,3.9C331.3,166.3,331.3,162.4,336.8,162.4z" style="fill: rgb(93, 55, 36);"/>
				<path class="st21" d="M325.8,174.4c5.5,0,5.5-3.9,11-3.9c5.5,0,5.5,3.9,11,3.9c5.5,0,5.5-3.9,11-3.9c5.5,0,5.5,3.9,11,3.9&#10;&#9;&#9;&#9;&#9;&#9;c5.5,0,5.5-3.9,11-3.9s5.5,3.9,11,3.9c5.5,0,5.5-3.9,11-3.9c5.5,0,5.5,3.9,11,3.9c2.3,0,3.7-0.7,4.9-1.5L416,170&#10;&#9;&#9;&#9;&#9;&#9;c-0.6,0.2-1.4,0.3-2.2,0.3c-5.5,0-5.5-3.9-11-3.9c-5.5,0-5.5,3.9-11,3.9c-5.5,0-5.5-3.9-11-3.9s-5.5,3.9-11,3.9&#10;&#9;&#9;&#9;&#9;&#9;c-5.5,0-5.5-3.9-11-3.9c-5.5,0-5.5,3.9-11,3.9c-5.5,0-5.5-3.9-11-3.9c-5.5,0-5.5,3.9-11,3.9c-5.5,0-5.5-3.9-11-3.9&#10;&#9;&#9;&#9;&#9;&#9;c-2.1,0-3.3,0.6-4.4,1.2l-6.3,6.8c5.2-0.1,5.3-3.9,10.7-3.9C320.3,170.5,320.3,174.4,325.8,174.4z" style="fill: rgb(93, 55, 36);"/>
				<path class="st21" d="M347.8,150.1c5.5,0,5.5-3.9,11-3.9c5.5,0,5.5,3.9,11,3.9c5.5,0,5.5-3.9,11-3.9s5.5,3.9,11,3.9&#10;&#9;&#9;&#9;&#9;&#9;c2.2,0,3.5-0.6,4.7-1.4l-2.7-3c-0.6,0.1-1.2,0.2-2,0.2c-5.5,0-5.5-3.9-11-3.9s-5.5,3.9-11,3.9c-5.5,0-5.5-3.9-11-3.9&#10;&#9;&#9;&#9;&#9;&#9;c-5.5,0-5.5,3.9-11,3.9c-5.5,0-5.5-3.9-11-3.9c-1.7,0-2.9,0.4-3.8,0.9l-6.6,7.2c4.9-0.3,5.1-3.9,10.4-3.9&#10;&#9;&#9;&#9;&#9;&#9;C342.3,146.2,342.3,150.1,347.8,150.1z" style="fill: rgb(93, 55, 36);"/>
				<path class="st21" d="M303.8,182.5c5.5,0,5.5-3.9,11-3.9c5.5,0,5.5,3.9,11,3.9c5.5,0,5.5-3.9,11-3.9c5.5,0,5.5,3.9,11,3.9&#10;&#9;&#9;&#9;&#9;&#9;c5.5,0,5.5-3.9,11-3.9c5.5,0,5.5,3.9,11,3.9c5.5,0,5.5-3.9,11-3.9s5.5,3.9,11,3.9c5.5,0,5.5-3.9,11-3.9c5.5,0,5.5,3.9,11,3.9&#10;&#9;&#9;&#9;&#9;&#9;c5.2,0,5.5-3.5,10.1-3.9l-3-3.3c-2.2,1.2-3.3,3-7.1,3c-5.5,0-5.5-3.9-11-3.9c-5.5,0-5.5,3.9-11,3.9c-5.5,0-5.5-3.9-11-3.9&#10;&#9;&#9;&#9;&#9;&#9;s-5.5,3.9-11,3.9c-5.5,0-5.5-3.9-11-3.9c-5.5,0-5.5,3.9-11,3.9c-5.5,0-5.5-3.9-11-3.9c-5.5,0-5.5,3.9-11,3.9&#10;&#9;&#9;&#9;&#9;&#9;c-5.5,0-5.5-3.9-11-3.9c-5.5,0-5.5,3.9-11,3.9c-1.2,0-2.1-0.2-2.9-0.5l-2.5,2.7C299.7,181.6,301.1,182.5,303.8,182.5z" style="fill: rgb(93, 55, 36);"/>
				<path class="st21" d="M325.8,158.2c5.5,0,5.5-3.9,11-3.9c5.5,0,5.5,3.9,11,3.9c5.5,0,5.5-3.9,11-3.9c5.5,0,5.5,3.9,11,3.9&#10;&#9;&#9;&#9;&#9;&#9;c5.5,0,5.5-3.9,11-3.9s5.5,3.9,11,3.9c5.1,0,5.5-3.4,9.9-3.9l-2.9-3.2c-2,1.2-3.3,2.9-6.9,2.9c-5.5,0-5.5-3.9-11-3.9&#10;&#9;&#9;&#9;&#9;&#9;s-5.5,3.9-11,3.9c-5.5,0-5.5-3.9-11-3.9c-5.5,0-5.5,3.9-11,3.9c-5.5,0-5.5-3.9-11-3.9c-5.5,0-5.5,3.9-11,3.9&#10;&#9;&#9;&#9;&#9;&#9;c-1.1,0-1.9-0.2-2.7-0.4l-2.5,2.8C321.9,157.4,323.2,158.2,325.8,158.2z" style="fill: rgb(93, 55, 36);"/>
			</g>
			<path d="M 401.79998779296875 109.69999694824219 L 365 109.69999694824219 L 365 80.69999694824219 L 401.79998779296875 80.69999694824219 L 393.8999938964844 95.19999694824219 Z" class="st22" style="fill: rgb(241, 91, 64);"/>
			<path class="st23" d="M292.8,431h-34.9c-32.5,0-58.9-26.4-58.9-58.9v-63.4c0-32.5,26.4-58.9,58.9-58.9h34.9V295h-34.9&#10;&#9;&#9;&#9;&#9;c-7.6,0-13.7,6.1-13.7,13.7v63.4c0,7.6,6.1,13.7,13.7,13.7h34.9V431z" style="fill: rgb(247, 148, 30);"/>
			<path class="st24" d="M614.3,460.7c-79.9,0-101.6-61.4-117.5-106.2c-14.3-40.4-22.3-56.8-43.9-56.8h-21.6v-45.2h21.6&#10;&#9;&#9;&#9;&#9;c55.6,0,72.7,48.2,86.5,86.9c16.8,47.2,29.3,76.2,75,76.2V460.7z" style="fill: rgb(215, 25, 32);"/>
			<path d="M 196.399994 308.700012 H 246.899994 V 319.300013 H 196.399994 V 308.700012 Z" class="st25" style="fill: rgb(224, 134, 26);"/>
			<path d="M 257.899994 247.199997 H 268.499994 V 297.699997 H 257.899994 V 247.199997 Z" class="st25" style="fill: rgb(224, 134, 26);"/>
			<path d="M 444.399994 249.800003 H 454.999994 V 300.300003 H 444.399994 V 249.800003 Z" class="st26" style="fill: rgb(177, 17, 22);"/>
			<path d="M 257.899994 383.100006 H 268.499994 V 433.600006 H 257.899994 V 383.100006 Z" class="st25" style="fill: rgb(224, 134, 26);"/>
			<path d="M 614.299988 412.799988 H 624.899988 V 463.299988 H 614.299988 V 412.799988 Z" class="st26" style="fill: rgb(177, 17, 22);"/>
			<path d="M 99.199997 412.799988 H 109.799997 V 463.299988 H 99.199997 V 412.799988 Z" class="st27" style="fill: rgb(196, 0, 95);"/>
			<path d="M 196.399994 361.5 H 246.899994 V 372.1 H 196.399994 V 361.5 Z" class="st25" style="fill: rgb(224, 134, 26);"/>
			
				<path d="M 482.600006 314.600006 H 533.100006 V 325.200006 H 482.600006 V 314.600006 Z" transform="matrix(0.931 -0.365 0.365 0.931 -81.7196 207.4273)" class="st26" style="fill: rgb(177, 17, 22);"/>
			
				<path d="M 506.299988 375.600006 H 556.799988 V 386.200006 H 506.299988 V 375.600006 Z" transform="matrix(0.9028 -0.4301 0.4301 0.9028 -112.1592 265.6212)" class="st26" style="fill: rgb(177, 17, 22);"/>
		</g>
	</g><g transform="matrix(1, 0, 0, 1, 0, 0)">
			<path d="M 826.2000122070312 597.5 L 813.5999755859375 597.5 L 768.7000122070312 658.2999877929688 L 781.2999877929688 658.2999877929688 Z" class="st28" style="fill: rgb(220, 221, 222);"/>
			<path d="M 768.7000122070312 597.5 L 781.2999877929688 597.5 L 826.2000122070312 658.2999877929688 L 813.5999755859375 658.2999877929688 Z" class="st29" style="fill: rgb(209, 211, 212);"/>
			<path d="M 800.2 627.900024 A 2.7 2.7 0 0 1 797.5 630.600024 A 2.7 2.7 0 0 1 794.8 627.900024 A 2.7 2.7 0 0 1 797.5 625.200024 A 2.7 2.7 0 0 1 800.2 627.900024 Z" class="st30" style="fill: rgb(255, 255, 255);"/>
			<path class="st31" d="M827.5,587.1h-60c-1.4,0-2.6,1.2-2.6,2.6v5.2c0,1.4,1.2,2.6,2.6,2.6h60c1.4,0,2.6-1.2,2.6-2.6v-5.2&#10;&#9;&#9;&#9;&#9;C830.1,588.2,828.9,587.1,827.5,587.1z" style="fill: rgb(242, 101, 34);"/>
		</g><path d="M 972.9000244140625 551.4000244140625 L 957.2999877929688 551.4000244140625 L 844.4000244140625 658.2999877929688 L 860 658.2999877929688 Z" class="st28" style="fill: rgb(220, 221, 222);" transform="matrix(1, 0, 0, 1, 0, 0)"/><path d="M 844.4000244140625 551.4000244140625 L 860 551.4000244140625 L 972.9000244140625 658.2999877929688 L 957.2999877929688 658.2999877929688 Z" class="st29" style="fill: rgb(209, 211, 212);" transform="matrix(1, 0, 0, 1, 0, 0)"/><path d="M 911.400012 604.799988 A 2.7 2.7 0 0 1 908.700012 607.499988 A 2.7 2.7 0 0 1 906.000012 604.799988 A 2.7 2.7 0 0 1 908.700012 602.099988 A 2.7 2.7 0 0 1 911.400012 604.799988 Z" class="st30" style="fill: rgb(255, 255, 255);" transform="matrix(1, 0, 0, 1, 0, 0)"/><path class="st31" d="M993.6,541h-170c-1.4,0-2.6,1.2-2.6,2.6v5.2c0,1.4,1.2,2.6,2.6,2.6h170c1.4,0,2.6-1.2,2.6-2.6v-5.2&#10;&#9;&#9;&#9;&#9;C996.3,542.1,995.1,541,993.6,541z" style="fill: rgb(242, 101, 34);" transform="matrix(1, 0, 0, 1, 0, 0)"/><path d="M 1044.5999755859375 597.5 L 1032 597.5 L 987.2000122070312 658.2999877929688 L 999.7999877929688 658.2999877929688 Z" class="st28" style="fill: rgb(220, 221, 222);" transform="matrix(1, 0, 0, 1, 0, 0)"/><path d="M 987.2000122070312 597.5 L 999.7999877929688 597.5 L 1044.5999755859375 658.2000122070312 L 1032.0999755859375 658.2000122070312 Z" class="st29" style="fill: rgb(209, 211, 212);" transform="matrix(1, 0, 0, 1, 0, 0)"/><path d="M 1018.600024 627.900024 A 2.7 2.7 0 0 1 1015.900024 630.600024 A 2.7 2.7 0 0 1 1013.200024 627.900024 A 2.7 2.7 0 0 1 1015.900024 625.200024 A 2.7 2.7 0 0 1 1018.600024 627.900024 Z" class="st30" style="fill: rgb(255, 255, 255);" transform="matrix(1, 0, 0, 1, 0, 0)"/><path class="st31" d="M1045.9,587.1l-60,0c-1.4,0-2.6,1.2-2.6,2.6v5.2c0,1.4,1.2,2.6,2.6,2.6l60,0c1.4,0,2.6-1.2,2.6-2.6l0-5.2&#10;&#9;&#9;&#9;&#9;C1048.5,588.2,1047.3,587.1,1045.9,587.1z" style="fill: rgb(242, 101, 34);" transform="matrix(1, 0, 0, 1, 0, 0)"/><path class="st32" d="M716.8,443.2l22.9-167.8c1.4-9.8,10.5-17.8,20.4-17.8h183.8c9.9,0,19,8,20.4,17.8l22.9,167.8h-10.5&#10;&#9;&#9;&#9;l-22.9-166.4c-0.6-4.6-5.1-8.6-9.8-8.6H760.1c-4.7,0-9.2,3.9-9.8,8.6l-22.9,166.4H716.8z" style="fill: rgb(255, 203, 5);" transform="matrix(1, 0, 0, 1, 0, 0)"/><path d="M 763.599976 256.5 H 940.399979 V 269.6 H 763.599976 V 256.5 Z" class="st22" style="fill: rgb(241, 91, 64);" transform="matrix(1, 0, 0, 1, 0, 0)"/><g transform="matrix(1, 0, 0, 1, 0, 0)">
				<path class="st16" d="M781.2,350.4c-9.7,0-17.5-7.9-17.5-17.5c0-9.7,7.9-17.5,17.5-17.5c9.7,0,17.5,7.9,17.5,17.5&#10;&#9;&#9;&#9;&#9;&#9;C798.7,342.5,790.8,350.4,781.2,350.4z M781.2,320.6c-6.7,0-12.2,5.5-12.2,12.2c0,6.7,5.5,12.2,12.2,12.2&#10;&#9;&#9;&#9;&#9;&#9;c6.7,0,12.2-5.5,12.2-12.2C793.4,326.1,787.9,320.6,781.2,320.6z" style="fill: rgb(236, 0, 140);"/>
				<path d="M 775.700012 269.700012 H 786.600012 V 312.700012 H 775.700012 V 269.700012 Z" class="st33" style="fill: rgb(146, 39, 143);"/>
			</g><path class="st34" d="M785.5,312.7c0,2.4-2,4.4-4.4,4.4c-2.4,0-4.4-2-4.4-4.4c0-2.4,2-4.4,4.4-4.4&#10;&#9;&#9;&#9;&#9;C783.6,308.3,785.5,310.3,785.5,312.7z" style="fill: rgb(84, 22, 110);" transform="matrix(1, 0, 0, 1, 0, 0)"/><g transform="matrix(1, 0, 0, 1, 0, 0)">
				<path class="st16" d="M828.4,369c-9.7,0-17.5-7.9-17.5-17.5c0-9.7,7.9-17.5,17.5-17.5c9.7,0,17.5,7.9,17.5,17.5&#10;&#9;&#9;&#9;&#9;&#9;C845.9,361.1,838.1,369,828.4,369z M828.4,339.3c-6.7,0-12.2,5.5-12.2,12.2c0,6.7,5.5,12.2,12.2,12.2c6.7,0,12.2-5.5,12.2-12.2&#10;&#9;&#9;&#9;&#9;&#9;C840.6,344.7,835.1,339.3,828.4,339.3z" style="fill: rgb(236, 0, 140);"/>
				<path d="M 822.900024 269.700012 H 833.800024 V 331.300011 H 822.900024 V 269.700012 Z" class="st33" style="fill: rgb(146, 39, 143);"/>
			</g><path class="st34" d="M832.8,331.3c0,2.4-2,4.4-4.4,4.4c-2.4,0-4.4-2-4.4-4.4c0-2.4,2-4.4,4.4-4.4&#10;&#9;&#9;&#9;&#9;C830.8,326.9,832.8,328.9,832.8,331.3z" style="fill: rgb(84, 22, 110);" transform="matrix(1, 0, 0, 1, 0, 0)"/><g transform="matrix(1, 0, 0, 1, 0, 0)">
				<path class="st16" d="M875.6,369c-9.7,0-17.5-7.9-17.5-17.5c0-9.7,7.9-17.5,17.5-17.5c9.7,0,17.5,7.9,17.5,17.5&#10;&#9;&#9;&#9;&#9;&#9;C893.2,361.1,885.3,369,875.6,369z M875.6,339.3c-6.7,0-12.2,5.5-12.2,12.2c0,6.7,5.5,12.2,12.2,12.2c6.7,0,12.2-5.5,12.2-12.2&#10;&#9;&#9;&#9;&#9;&#9;C887.8,344.7,882.4,339.3,875.6,339.3z" style="fill: rgb(236, 0, 140);"/>
				<path d="M 870.200012 269.700012 H 881.100012 V 331.300011 H 870.200012 V 269.700012 Z" class="st33" style="fill: rgb(146, 39, 143);"/>
			</g><path d="M 879.999976 331.299988 A 4.4 4.4 0 0 1 875.599976 335.699988 A 4.4 4.4 0 0 1 871.199975 331.299988 A 4.4 4.4 0 0 1 875.599976 326.899988 A 4.4 4.4 0 0 1 879.999976 331.299988 Z" class="st34" style="fill: rgb(84, 22, 110);" transform="matrix(1, 0, 0, 1, 0, 0)"/><g transform="matrix(1, 0, 0, 1, 0, 0)">
				<path class="st16" d="M922.9,347.7c-9.7,0-17.5-7.9-17.5-17.5c0-9.7,7.9-17.5,17.5-17.5c9.7,0,17.5,7.9,17.5,17.5&#10;&#9;&#9;&#9;&#9;&#9;C940.4,339.9,932.5,347.7,922.9,347.7z M922.9,318c-6.7,0-12.2,5.5-12.2,12.2c0,6.7,5.5,12.2,12.2,12.2&#10;&#9;&#9;&#9;&#9;&#9;c6.7,0,12.2-5.5,12.2-12.2C935.1,323.5,929.6,318,922.9,318z" style="fill: rgb(236, 0, 140);"/>
				<path d="M 917.400024 269.700012 H 928.300024 V 310.100014 H 917.400024 V 269.700012 Z" class="st33" style="fill: rgb(146, 39, 143);"/>
			</g><path d="M 927.300025 310 A 4.4 4.4 0 0 1 922.900024 314.4 A 4.4 4.4 0 0 1 918.500024 310 A 4.4 4.4 0 0 1 922.900024 305.6 A 4.4 4.4 0 0 1 927.300025 310 Z" class="st34" style="fill: rgb(84, 22, 110);" transform="matrix(1, 0, 0, 1, 0, 0)"/><path class="st35" d="M332.2,720.1l22.3-163.2c1.3-9.5,10.2-17.3,19.8-17.3h237.1c9.6,0,18.5,7.7,19.8,17.3l22.3,163.2h-10.2&#10;&#9;&#9;&#9;L621,558.4c-0.6-4.5-5-8.3-9.6-8.3H374.4c-4.6,0-8.9,3.8-9.6,8.3l-22.3,161.7H332.2z" style="fill: rgb(0, 174, 239);" transform="matrix(1, 0, 0, 1, 0, 0)"/><path class="st13" d="M342.9,688h48.2v-5.3h-48.2V688z M345.1,669.3h48.2V664h-48.2V669.3z M340.7,706.7h48.2v-5.3h-48.2V706.7z&#10;&#9;&#9;&#9; M347.2,650.6h48.2v-5.3h-48.2V650.6z M353.8,594.5H402v-5.3h-48.2V594.5z M356,570.5v5.3h48.2v-5.3H356z M349.4,631.9h48.2v-5.3&#10;&#9;&#9;&#9;h-48.2V631.9z M351.6,613.2h48.2v-5.3h-48.2V613.2z" style="fill: rgb(0, 114, 188);" transform="matrix(1, 0, 0, 1, 0, 0)"/><path class="st13" d="M691,682.7h-48.2v5.3H691V682.7z M688.8,664h-48.2v5.3h48.2V664z M693.2,701.4H645v5.3h48.2V701.4z&#10;&#9;&#9;&#9; M686.6,645.3h-48.2v5.3h48.2V645.3z M680,589.2h-48.2v5.3H680V589.2z M629.7,570.5v5.3h48.2v-5.3H629.7z M684.4,626.6h-48.2v5.3&#10;&#9;&#9;&#9;h48.2V626.6z M682.2,607.9H634v5.3h48.2V607.9z" style="fill: rgb(0, 114, 188);" transform="matrix(1, 0, 0, 1, 0, 0)"/><path class="st36" d="M380.9,720.1l22.3-163.2c1.3-9.5,10.2-17.3,19.8-17.3H660c9.6,0,18.5,7.7,19.8,17.3l22.3,163.2h-10.2&#10;&#9;&#9;&#9;l-22.3-161.7c-0.6-4.5-5-8.3-9.6-8.3H423c-4.6,0-8.9,3.8-9.6,8.3l-22.3,161.7H380.9z" style="fill: rgb(0, 143, 213);" transform="matrix(1, 0, 0, 1, 0, 0)"/><path class="st5" d="M166.2,670.1c0,3.3-24.8,10.3-51.3,10.3c-26.5,0-51.3-7-51.3-10.3c0-71.7,39.4-187.1,51.3-187.1&#10;&#9;&#9;&#9;C126.8,483,166.2,592.4,166.2,670.1z" style="fill: rgb(191, 215, 48);" transform="matrix(1, 0, 0, 1, 0, 0)"/><path d="M 150 631.9000244140625 L 146.3000030517578 628.0999755859375 L 125.30000305175781 645.7000122070312 L 123.4000015258789 613.4000244140625 L 140.89999389648438 596.5999755859375 L 138.60000610351562 594.2999877929688 L 123 607.5999755859375 L 119 542.9000244140625 L 112.19999694824219 542.9000244140625 L 107.5999984741211 608.4000244140625 L 91.19999694824219 594.2999877929688 L 88.80000305175781 596.5999755859375 L 107.19999694824219 614.4000244140625 L 105 646.2000122070312 L 83.5 628.0999755859375 L 79.69999694824219 631.9000244140625 L 104.0999984741211 659.0999755859375 L 99.4000015258789 727.9000244140625 L 130.39999389648438 727.9000244140625 L 126.0999984741211 658.5 Z" class="st10" style="fill: rgb(177, 137, 99);" transform="matrix(1, 0, 0, 1, 0, 0)"/><path class="st37" d="M255.4,624.5c0,52.6-24.8,77.9-51.3,77.9c-26.5,0-51.3-25.2-51.3-77.9c0-72.9,51.3-115.9,51.3-115.9&#10;&#9;&#9;&#9;C204.1,508.5,255.4,551.5,255.4,624.5z" style="fill: rgb(172, 91, 46);" transform="matrix(1, 0, 0, 1, 0, 0)"/><path d="M 235.89999389648438 593.5 L 208.3000030517578 635.9000244140625 L 207.10000610351562 608.9000244140625 L 225.1999969482422 573.4000244140625 L 206.8000030517578 601.5999755859375 L 205 557.7000122070312 L 203.10000610351562 557.7000122070312 L 200.39999389648438 623.5999755859375 L 179.3000030517578 591.2000122070312 L 200 631.9000244140625 L 199 657.9000244140625 L 168.6999969482422 611.2999877929688 L 198.39999389648438 669.9000244140625 L 195 753.2999877929688 L 213.1999969482422 753.2999877929688 L 208.6999969482422 646.9000244140625 Z" class="st6" style="fill: rgb(120, 92, 55);" transform="matrix(1, 0, 0, 1, 0, 0)"/>
</svg>